<svg id="Layer_1" data-name="Layer 1" xmlns="http://www.w3.org/2000/svg" viewBox="0 0 89 218"><defs><style>.cls-1{fill:#231f20;}</style></defs><path class="cls-1" d="M82,15.09,65.75,31.37l-6.69.74a1.41,1.41,0,0,1-1.55-1.55l.74-6.69L74.54,7.58Zm4.64-4.64-3.32,3.31-7.5-7.5L79.17,3a2.81,2.81,0,0,1,4,0l3.53,3.52A2.83,2.83,0,0,1,86.68,10.45Z"/><path class="cls-1" d="M38.16,77.34c.17-7.19-1.59-14.29-1.26-21.5a18.22,18.22,0,0,1,2.59-9.32A11.6,11.6,0,0,1,43,43.18a15,15,0,0,1,2.42-1.25,6.92,6.92,0,0,1,.76-.28c.72-.18.24-.07.14-.09a3.62,3.62,0,0,1,1.36.81c2.76,2.41,1.1,7.3-.13,10.08-.64,1.46,1.08,3.12,2.36,1.81a13.65,13.65,0,0,0,1.7-2.08c1-1.53-1.12-2.82-2.36-1.82a7.17,7.17,0,0,0-1.7,2.09A1.5,1.5,0,0,0,50.09,54a64.23,64.23,0,0,1,3.83-5.3c1.29-1.48,3-3.08,5.09-3.09,3.1,0,3,4.59,2.75,6.71-1,7.93-9.22,11.47-15.4,14.88-4,2.22-7.92,4.72-10.66,8.49-1.14,1.56,1.46,3.06,2.59,1.51,5.36-7.36,15.47-9,21.77-15.33A16.07,16.07,0,0,0,64.85,51c.14-3.6-1.11-8.07-5.33-8.43-5.78-.5-9.21,5.85-12,9.85L50.09,54a4.89,4.89,0,0,1,1.23-1.48L49,50.67a9.52,9.52,0,0,1-1.22,1.47L50.09,54c1.57-3.55,2.95-8.05,1.12-11.77-.82-1.67-3.21-4-5.25-3.64a14.7,14.7,0,0,0-6,3.06c-6.67,5.27-6.51,14.6-5.84,22.28.4,4.47,1.1,9,1,13.45,0,1.93,3,1.93,3,0Z"/><path class="cls-1" d="M31,215.37a19.44,19.44,0,0,1-3.54-11.28c0-4.29,1.53-8.48,2.47-12.63a254.15,254.15,0,0,0,4.7-28.91c2.05-19.25,2.07-38.65,1.14-58-.22-4.54-.59-9.1-.69-13.65s.36-8.92,2.83-12.74c1.06-1.63-1.54-3.13-2.59-1.51-4.6,7.1-3,15.76-2.7,23.72.42,9.68.78,19.37.74,29.07-.08,20-1.72,40-6,59.51-1.05,4.85-2.84,9.75-2.94,14.74a22.2,22.2,0,0,0,3.94,13.18c1.09,1.57,3.7.07,2.59-1.52Z"/><path class="cls-1" d="M34.83,103.06a10.18,10.18,0,0,0-1.51-3.44c-.66-1.18-1-2.52-1.63-3.7-.54-1-1.27-1.84-1.88-2.75a8.92,8.92,0,0,0-2.72-2.88,24.62,24.62,0,0,0-3.54-1.51,38.83,38.83,0,0,0-4-1.52c-2.36-.66-4.74-1.08-7-1.94-1.41-.54-3.18-1.13-4.57-.22-1.84,1.21-1.13,3.66-.39,5.28,2.08,4.57,4.34,9.68,9.08,12.08,5.18,2.63,11.47,2.89,17.17,2.9a1.5,1.5,0,0,0,0-3,46,46,0,0,1-13-1.45,11.93,11.93,0,0,1-5.46-3.15,19.12,19.12,0,0,1-3.69-5.56c-.38-.86-.76-1.72-1.17-2.56A12.39,12.39,0,0,1,10,88.47c-.14-.35-.1-.71-.21-1,0-.13-.1.26-.25.2,0,0,.37,0,.5,0a10.5,10.5,0,0,1,1.92.62,45.41,45.41,0,0,0,5.73,1.58,45.94,45.94,0,0,1,6.74,2.44c2.16.89,3.45,3,4.62,5,.6,1,.87,2.15,1.37,3.2s1.38,2.11,1.56,3.38c.26,1.91,3.15,1.1,2.89-.79Z"/><path class="cls-1" d="M37.93,132.69c1.71-3.05,3.79-5.88,5.45-9a13.26,13.26,0,0,1,5.41-5.85,22.75,22.75,0,0,1,8-2.69,37.39,37.39,0,0,1,4.49-.08c1.53,0,3-.31,4.5-.36l-1.45-1.1c.45,1.57-1.38,2.8-2.25,3.92-1,1.31-1.85,2.75-2.83,4.08a18.81,18.81,0,0,1-7.52,6A32.41,32.41,0,0,1,43,130.54a22.2,22.2,0,0,1-3.65.13c-.76,0-2-.07-2.49-.62-1.3-1.42-3.42.7-2.12,2.13,1.77,1.94,5.52,1.62,7.86,1.4,3.73-.36,7.26-1.83,10.66-3.31A21.45,21.45,0,0,0,62,123a55.6,55.6,0,0,1,3.77-5.11c1.33-1.49,2.08-3.05,1.51-5.07a1.5,1.5,0,0,0-1.44-1.1c-1.67,0-3.26.35-4.94.36a33.59,33.59,0,0,0-4.81.18,26,26,0,0,0-8.79,3,14.86,14.86,0,0,0-6.06,6.11c-1.79,3.36-4,6.45-5.88,9.76-.94,1.69,1.65,3.2,2.59,1.52Z"/><path class="cls-1" d="M33.47,159a8.51,8.51,0,0,1-1.54-3.22A16.08,16.08,0,0,0,30.18,152a41.27,41.27,0,0,0-2.32-3.53,19,19,0,0,0-3.2-2.86,11.47,11.47,0,0,0-4-1.71,14.84,14.84,0,0,0-5.28-.81c-3.39.14-6.84.1-10-1.25a1.52,1.52,0,0,0-2.2.9,9.11,9.11,0,0,0,.46,4.56,43.11,43.11,0,0,0,1.45,5.38,13.47,13.47,0,0,0,6.78,7,28.25,28.25,0,0,0,4.93,1.56,25.91,25.91,0,0,0,6.1.27,34.08,34.08,0,0,1,5.53.23,3.83,3.83,0,0,1,1.82.58,4.24,4.24,0,0,0,2.16.9c1.91.23,1.9-2.77,0-3-.42-.05-1.11-.82-1.55-1a7.44,7.44,0,0,0-1.63-.38,26.64,26.64,0,0,0-4.46-.34c-1.78,0-3.57.06-5.35,0a19.19,19.19,0,0,1-5-1.11,10.38,10.38,0,0,1-6.39-5.39,21.16,21.16,0,0,1-1.34-4.71c-.28-1.16-1-2.59-.67-3.78l-2.21.89a24,24,0,0,0,9.56,1.73,18.35,18.35,0,0,1,5.13.21A12.69,12.69,0,0,1,22.82,148a14.7,14.7,0,0,1,3,2.74c.79,1.1,1.49,2.31,2.19,3.46,1.32,2.21,1.5,5,3.35,6.92,1.35,1.39,3.47-.73,2.12-2.12Z"/><path class="cls-1" d="M15.68,153.19a17.36,17.36,0,0,0,7.18,3.73c2.09.55,4.53,1,6.1,2.56.94,1,2.43-.51,1.48-1.48-1.66-1.71-4.08-2.35-6.32-2.92a16.32,16.32,0,0,1-7-3.37c-1-.9-2.5.58-1.48,1.48Z"/><path class="cls-1" d="M39.37,131.13c2.68,0,4.85-2,7-3.34s4.35-2.62,5.89-4.55a1.06,1.06,0,0,0,0-1.48,1,1,0,0,0-1.48,0c-1.4,1.75-3.48,2.92-5.33,4.13-.92.59-1.8,1.24-2.72,1.83A6.56,6.56,0,0,1,39.37,129a1.05,1.05,0,0,0,0,2.1Z"/><path class="cls-1" d="M29.5,99.37a4.16,4.16,0,0,1-1.35-.67,16.17,16.17,0,0,0-1.5-.91c-.79-.39-1.62-.73-2.42-1.11-1-.47-1.93-1-2.87-1.49-.42-.24-.85-.49-1.26-.76a4.72,4.72,0,0,1-.86-.67c-1-1-2.45.54-1.48,1.48a20.32,20.32,0,0,0,5.54,3.31c.86.41,1.78.75,2.61,1.23,1.17.67,2.2,1.54,3.59,1.69a1.06,1.06,0,0,0,1.05-1,1.08,1.08,0,0,0-1.05-1Z"/></svg>