<svg class="icon-search-svg" version="1.0" xmlns="http://www.w3.org/2000/svg" xmlns:xlink="http://www.w3.org/1999/xlink" x="0px" y="0px"
	 width="30px" height="30px" viewBox="0 0 30 30" enable-background="new 0 0 30 30" xml:space="preserve">
   <path fill="#333333" d="M30,26.439l-6.202-6.204c1.392-2.07,2.207-4.559,2.207-7.234C26.005,5.831,20.17,0,13.001,0
   	S0,5.831,0,13.001c0,7.167,5.833,13,13.001,13c2.676,0,5.166-0.814,7.236-2.206l6.202,6.203L30,26.439z M13.001,20.969
   	c-4.393,0-7.967-3.576-7.967-7.968c0-4.395,3.574-7.97,7.967-7.97c4.395,0,7.969,3.575,7.969,7.97
   	C20.97,17.394,17.396,20.969,13.001,20.969z"/>
</svg>
