<?xml version="1.0" encoding="utf-8"?>
<!-- Generator: Adobe Illustrator 15.1.0, SVG Export Plug-In . SVG Version: 6.00 Build 0)  -->
<!DOCTYPE svg PUBLIC "-//W3C//DTD SVG 1.1//EN" "http://www.w3.org/Graphics/SVG/1.1/DTD/svg11.dtd">
<svg version="1.1" id="Layer_1" xmlns="http://www.w3.org/2000/svg" xmlns:xlink="http://www.w3.org/1999/xlink" x="0px" y="0px"
	 width="10.081px" height="10.081px" viewBox="0 0 10.081 10.081" enable-background="new 0 0 10.081 10.081" xml:space="preserve">
<circle fill="#393939" cx="7.561" cy="7.561" r="0.756"/>
<circle fill="#393939" cx="7.561" cy="2.52" r="0.756"/>
<path fill="#393939" d="M10.081,9.325c-0.418,0-0.756,0.339-0.756,0.756h0.756V9.325z"/>
<circle fill="#393939" cx="2.52" cy="7.561" r="0.756"/>
<path fill="#393939" d="M0.756,5.041c0-0.417-0.339-0.756-0.756-0.756v1.513C0.417,5.797,0.756,5.458,0.756,5.041z"/>
<path fill="#393939" d="M9.325,5.041c0,0.417,0.338,0.757,0.756,0.757V4.285C9.663,4.285,9.325,4.624,9.325,5.041z"/>
<circle fill="#393939" cx="2.52" cy="2.52" r="0.756"/>
<path fill="#393939" d="M10.081,0.756V0H9.325C9.325,0.418,9.663,0.756,10.081,0.756z"/>
<path fill="#393939" d="M5.041,9.325c-0.418,0-0.756,0.339-0.756,0.756h1.512C5.796,9.664,5.458,9.325,5.041,9.325z"/>
<path fill="#393939" d="M0,0.756c0.417,0,0.756-0.338,0.756-0.756H0V0.756z"/>
<path fill="#393939" d="M0,9.325v0.756h0.756C0.756,9.664,0.417,9.325,0,9.325z"/>
<circle fill="#393939" cx="5.041" cy="5.041" r="0.756"/>
<path fill="#393939" d="M5.041,0.756c0.417,0,0.756-0.338,0.756-0.756H4.284C4.284,0.418,4.623,0.756,5.041,0.756z"/>
</svg>
