<?xml version="1.0" encoding="utf-8"?>
<!-- Generator: Adobe Illustrator 15.1.0, SVG Export Plug-In . SVG Version: 6.00 Build 0)  -->
<!DOCTYPE svg PUBLIC "-//W3C//DTD SVG 1.1//EN" "http://www.w3.org/Graphics/SVG/1.1/DTD/svg11.dtd">
<svg version="1.1" id="Layer_1" xmlns="http://www.w3.org/2000/svg" xmlns:xlink="http://www.w3.org/1999/xlink" x="0px" y="0px"
	 width="12px" height="12px" viewBox="0 0 12 12" enable-background="new 0 0 12 12" xml:space="preserve">
<circle fill="#393939" cx="9" cy="9" r="0.899"/>
<circle fill="#393939" cx="9" cy="2.999" r="0.9"/>
<path fill="#393939" d="M12,11.1C11.501,11.1,11.1,11.501,11.1,12H12V11.1z"/>
<circle fill="#393939" cx="3" cy="9" r="0.899"/>
<path fill="#393939" d="M0.9,6C0.9,5.503,0.497,5.1,0,5.1v1.802C0.497,6.899,0.9,6.497,0.9,6z"/>
<path fill="#393939" d="M11.1,6c0,0.497,0.401,0.902,0.899,0.902V5.1C11.501,5.1,11.1,5.503,11.1,6z"/>
<circle fill="#393939" cx="3" cy="2.999" r="0.9"/>
<path fill="#393939" d="M12,0.9V0H11.1C11.1,0.498,11.501,0.9,12,0.9z"/>
<path fill="#393939" d="M6,11.1c-0.497,0-0.899,0.401-0.899,0.899h1.798C6.899,11.501,6.497,11.1,6,11.1z"/>
<path fill="#393939" d="M0,0.9c0.497,0,0.9-0.402,0.9-0.9H0V0.9z"/>
<path fill="#393939" d="M0,11.1V12h0.9C0.9,11.501,0.497,11.1,0,11.1z"/>
<circle fill="#393939" cx="6" cy="6" r="0.899"/>
<path fill="#393939" d="M6,0.9c0.497,0,0.899-0.402,0.899-0.9h-1.8C5.099,0.498,5.502,0.9,6,0.9z"/>
</svg>
