<?xml version="1.0" encoding="utf-8"?>
<!-- Generator: Adobe Illustrator 24.3.0, SVG Export Plug-In . SVG Version: 6.00 Build 0)  -->
<svg version="1.1" xmlns="http://www.w3.org/2000/svg" xmlns:xlink="http://www.w3.org/1999/xlink" x="0px" y="0px"
	 viewBox="0 0 659.2 138.1" style="enable-background:new 0 0 659.2 138.1;" xml:space="preserve">
<style type="text/css">
	.st0{fill:#FFFFFF;}
</style>
<g id="Layer_1">
	<g>
		<polygon class="st0" points="161.8,2.3 161.8,59.4 132.5,59.4 132.5,2.3 101.6,2.3 101.6,134.7 132.5,134.7 132.5,71.7 
			161.8,71.7 161.8,134.7 192.6,134.7 192.6,2.3 		"/>
		<g>
			<path class="st0" d="M7.5,2.3L3.7,17.4c0,0,13.9-3.8,29.5-3.8v121.1h30.9V13.6c16.5,0,29.9,3.8,29.9,3.8L90.2,2.3H7.5z"/>
			<path class="st0" d="M234.6,70.4c10.5,0,26.5,3.8,26.5,3.8l2.5-14.8h-29V13.6c21.4,0,33.5,2.9,36.1,3.6l2.5-14.9h-69.5v132.4
				h69.5l1.5-15.1c0,0-15.1,3.5-37.4,3.8c-1.5,0-2.8-1.2-2.8-2.7V70.4z"/>
			<path class="st0" d="M312,2.3l-3.8,15.1c0,0,13.9-3.8,29.5-3.8v121.1h30.9V13.6c16.5,0,29.9,3.8,29.9,3.8l-3.8-15.1H312z"/>
			<path class="st0" d="M461,77L435.7,2.3H401c0,0,38.4,98.5,41.4,106.1c1.8,4.7,2.2,8.9-0.4,10.9c-2.6,2-6.8,0.5-11.1-2.4
				c-11-7.5-30.5-21.4-30.5-21.4l5.7,37.5c6.3,2.8,13.9,4.3,21.6,4.3c12.4,0,24.7-8.4,30.6-22.1c6.4-15,44.6-112.8,44.6-112.8h-21.4
				C476.9,29.1,471.9,48,461,77"/>
			<path class="st0" d="M539.2,70.4c10.5,0,26.5,3.8,26.5,3.8l2.5-14.8h-29V13.6c21.4,0,33.5,2.9,36.1,3.6l2.5-14.9h-69.5v132.4
				h69.5l1.5-15.1c0,0-15.1,3.5-37.4,3.8c-1.5,0-2.8-1.2-2.8-2.7V70.4z"/>
			<path class="st0" d="M617,70.4c10.5,0,26.5,3.8,26.5,3.8l2.5-14.8h-29V13.6c21.4,0,33.5,2.9,36.1,3.6l2.5-14.9h-69.5v132.4h69.5
				l1.5-15.1c0,0-15.1,3.5-37.4,3.8c-1.5,0-2.8-1.2-2.8-2.7V70.4z"/>
		</g>
	</g>
</g>
<g id="Layer_2">
</g>
</svg>
