<?xml version="1.0" encoding="utf-8"?>
<!-- Generator: Adobe Illustrator 15.1.0, SVG Export Plug-In . SVG Version: 6.00 Build 0)  -->
<!DOCTYPE svg PUBLIC "-//W3C//DTD SVG 1.1//EN" "http://www.w3.org/Graphics/SVG/1.1/DTD/svg11.dtd">
<svg version="1.1" id="Layer_1" xmlns="http://www.w3.org/2000/svg" xmlns:xlink="http://www.w3.org/1999/xlink" x="0px" y="0px"
	 width="470.628px" height="163.556px" viewBox="0 0 470.628 163.556" enable-background="new 0 0 470.628 163.556"
	 xml:space="preserve">
<g>
	<polygon fill="#FFD000" points="147.963,125.584 303.417,125.584 429.885,123.148 276.492,120.19 425.959,99.615 274.543,114.394 
		414.339,76.984 270.709,108.931 395.472,56.13 265.151,104.017 370.078,37.849 258.074,99.833 339.136,22.847 249.754,96.551 
		303.831,11.7 240.508,94.289 265.523,4.835 230.691,93.136 225.693,2.518 220.688,93.136 185.854,4.835 210.872,94.289 
		147.546,11.7 201.622,96.551 112.245,22.847 193.307,99.833 81.305,37.849 186.229,104.017 55.908,56.13 180.668,108.931 
		37.038,76.984 176.841,114.394 25.42,99.615 174.889,120.19 21.498,123.148 	"/>
</g>
<path fill="#231F20" d="M45.304,46.304H0V64.65h2.044l0.017-0.19c1-12.004,5.02-14.015,14.188-14.046c0,0.427,0,55.564,0,55.564
	c0,2.64-0.494,4.329-1.56,5.316c-1.028,0.954-2.684,1.33-5.062,1.15l-0.225-0.018v2.227h26.709v-2.221l-0.219,0.012
	c-2.537,0.133-4.179-0.24-5.166-1.178c-1.039-0.984-1.461-2.604-1.461-5.586c0,0,0-54.832,0-55.265
	c9.762,0.05,13.101,3.356,14.188,14.046l0.019,0.188h2.04V46.304H45.304z"/>
<path fill="#231F20" d="M104.641,46.304h-24.58v2.213l0.212-0.004c2.079-0.041,3.456,0.34,4.333,1.2
	c0.986,0.967,1.387,2.55,1.387,5.466c0,0,0,21.494,0,21.903c-0.402,0-17.529,0-17.93,0c0-0.409,0-22.403,0-22.403
	c0-2.411,0.452-3.979,1.432-4.935c0.892-0.874,2.296-1.276,4.287-1.231l0.213,0.005v-2.214H49.113v2.219l0.216-0.01
	c1.908-0.084,3.282,0.304,4.202,1.184c1.033,0.99,1.514,2.605,1.514,5.083v51.399c0,2.496-0.453,4.103-1.427,5.055
	c-0.892,0.872-2.255,1.257-4.292,1.211l-0.213-0.006v2.215h24.881v-2.21h-0.209c-4.279,0-5.723-1.681-5.723-6.664
	c0,0,0-23.587,0-23.996c0.4,0,17.527,0,17.93,0c0,0.409,0,23.697,0,23.697c0,3.003-0.477,4.799-1.546,5.823
	c-0.884,0.849-2.246,1.221-4.171,1.141l-0.215-0.01v2.219h24.788v-2.21h-0.208c-4.762,0-5.632-2.345-5.632-6.963V54.78
	c0-2.452,0.479-4.112,1.468-5.077c0.885-0.861,2.203-1.238,4.16-1.189l0.212,0.006v-2.215H104.641z"/>
<path fill="#231F20" d="M149.738,46.304h-42.293v2.217l0.217-0.008c2.369-0.086,3.907,0.296,4.848,1.203
	c1.007,0.969,1.415,2.58,1.415,5.562v50.502c0,2.816-0.476,4.521-1.546,5.526c-0.969,0.913-2.465,1.274-4.711,1.139l-0.223-0.014
	v2.223h43.843l3.07-21.336h-2.036l-0.045,0.146c-4.045,12.936-8.942,17.087-20.157,17.087c-4.357,0-5.179-1.249-5.179-7.859
	c0,0,0-20.236,0-20.688c6.898,0.202,10.266,5.104,10.266,15.012v0.208h2.059V62.242h-2.059v0.209
	c0,10.108-3.273,14.998-10.266,15.399c0-0.462,0-27.036,0-27.443c0.379,0,4.539,0,4.539,0c13.023,0,15.602,7.86,16.408,15.551
	l0.018,0.188h2.041V46.304H149.738z"/>
<path fill="#231F20" d="M317.768,29.32H261.19v22.829h2.453l0.014-0.19c1.256-15.07,6.307-17.576,17.844-17.608
	c0,0.428,0,69.513,0,69.513c0,3.313-0.625,5.437-1.965,6.681c-1.299,1.202-3.38,1.679-6.367,1.454l-0.225-0.018v2.674h33.281v-2.668
	l-0.22,0.012c-3.187,0.168-5.251-0.306-6.499-1.488c-1.309-1.241-1.842-3.275-1.842-7.021c0,0,0-68.701,0-69.135
	c12.285,0.05,16.479,4.188,17.844,17.608l0.018,0.188h2.449V29.32H317.768z"/>
<path fill="#231F20" d="M368.342,46.304h-12.443v2.202l0.203,0.007c3.038,0.096,4.455,1.01,4.455,2.88
	c0,1.347-0.432,3.143-1.541,6.407c0,0-7,20.506-8.204,24.036c-0.384-1.087-9.754-27.624-9.754-27.624
	c-0.003-0.007-0.092-0.23-0.092-0.23c-0.301-0.762-0.809-2.037-0.809-2.986c0-0.652,0.23-1.194,0.685-1.611
	c0.803-0.738,2.257-1.039,4.204-0.871l0.227,0.02v-2.229H321.85v2.177l0.175,0.029c3.452,0.58,3.583,0.769,6.957,10.126
	l11.139,30.879l-0.012,16.463c0,2.771-0.43,4.357-1.441,5.306c-1.097,1.026-2.976,1.374-6.282,1.161l-0.221-0.015v2.224h28.718
	v-2.222l-0.221,0.013c-3.177,0.18-4.976-0.163-6.017-1.146c-1.288-1.217-1.523-3.45-1.523-7.411V86.654
	c-0.012,0.067,9.481-27.723,9.481-27.723c3.238-9.49,3.589-9.869,5.791-10.425l0.157-0.038v-2.164H368.342z"/>
<path fill="#231F20" d="M414.557,46.304h-42.29v2.217l0.216-0.008c2.368-0.086,3.908,0.297,4.85,1.203
	c1.004,0.971,1.414,2.581,1.414,5.562v50.502c0,2.815-0.476,4.52-1.545,5.526c-0.97,0.913-2.466,1.274-4.712,1.139l-0.223-0.014
	v2.223h43.84l3.073-21.336h-2.037l-0.046,0.146c-4.043,12.936-8.94,17.087-20.158,17.087c-4.354,0-5.179-1.249-5.179-7.859
	c0,0,0-20.236,0-20.688c6.897,0.202,10.265,5.104,10.265,15.012v0.208h2.062V62.242h-2.062v0.209
	c0,10.108-3.271,14.998-10.265,15.399c0-0.462,0-27.036,0-27.443c0.382,0,4.542,0,4.542,0c13.021,0,15.599,7.86,16.408,15.552
	l0.019,0.187h2.037V46.304H414.557z"/>
<path fill="#231F20" d="M464.035,46.304h-42.294v2.217l0.216-0.008c2.369-0.086,3.912,0.297,4.853,1.204
	c1.005,0.97,1.415,2.581,1.415,5.561v50.502c0,2.814-0.476,4.52-1.546,5.526c-0.969,0.913-2.469,1.274-4.715,1.139l-0.223-0.014
	v2.223h43.843l3.074-21.336h-2.039l-0.045,0.146c-4.046,12.936-8.943,17.087-20.158,17.087c-4.354,0-5.179-1.249-5.179-7.859
	c0,0,0-20.236,0-20.688c6.897,0.202,10.267,5.104,10.267,15.012v0.208h2.06V62.242h-2.06v0.209c0,10.108-3.273,14.998-10.267,15.399
	c0-0.462,0-27.036,0-27.443c0.383,0,4.539,0,4.539,0c13.025,0,15.604,7.86,16.407,15.551l0.019,0.188h2.041V46.304H464.035z"/>
<rect x="0.733" y="123.535" fill="#231F20" width="198.848" height="2.139"/>
<path fill="none" stroke="#231F20" stroke-width="2.0836" d="M230.114,124.603"/>
<rect x="197.138" y="123.529" fill="#231F20" width="273.49" height="2.149"/>
<path fill="#231F20" d="M116.682,66.88"/>
<g>
	<g>
		<path d="M71.68,147.258l5.28,11.545v-11.545h2.208v16.01h-2.472l-5.929-12.817v12.817H68.56v-16.01H71.68z"/>
		<path d="M94.888,147.258v2.112h-6.504v4.608h5.112v2.112h-5.112v5.017h6.624v2.16h-9.265v-16.01H94.888z"/>
		<path d="M101.606,147.258l2.161,12.001l2.496-12.001h2.304l2.473,12.001l2.28-12.001h2.231l-3.36,16.058h-2.399l-2.521-11.761
			l-2.496,11.761h-2.425l-3.456-16.058H101.606z"/>
		<path d="M128.008,151.627c-0.504-1.488-1.176-2.473-2.832-2.473c-1.704,0-2.185,1.296-2.185,2.017c0,1.439,1.297,1.92,3.192,2.664
			c1.849,0.696,4.488,1.704,4.488,4.872c0,2.305-1.632,4.849-5.376,4.849c-4.488,0-5.28-3.385-5.545-4.465l2.353-0.672
			c0.168,0.721,0.648,2.952,3.265,2.952c2.208,0,2.592-1.56,2.592-2.304c0-1.513-1.296-2.088-2.736-2.616
			c-1.776-0.672-2.521-0.96-3.384-1.704c-0.744-0.648-1.44-1.776-1.44-3.265c0-2.184,1.536-4.513,4.92-4.513
			c3.769,0,4.608,2.761,4.945,3.865L128.008,151.627z"/>
		<path d="M137.463,160.244v3.024h-2.664v-3.024H137.463z"/>
		<path d="M164.224,158.228c-0.192,1.296-0.792,5.328-5.232,5.328c-5.209,0-5.785-5.593-5.785-8.232
			c0-2.545,0.504-8.354,5.833-8.354c4.464,0,5.017,4.104,5.208,5.473l-2.472,0.336c-0.168-1.344-0.48-3.624-2.688-3.624
			c-2.761,0-3.072,3.696-3.072,6.24c0,2.881,0.528,5.977,3.072,5.977c1.632,0,2.304-1.151,2.688-3.48L164.224,158.228z"/>
		<path d="M172.479,147.258v9.938c0,2.136,0,4.176,2.664,4.176c2.616,0,2.616-1.92,2.616-4.224v-9.89h2.376v9.77
			c0,2.328-0.048,4.344-1.656,5.544c-0.624,0.456-1.608,0.984-3.48,0.984c-5.04,0-5.112-3.528-5.112-6.36v-9.938H172.479z"/>
		<path d="M189.327,147.258v13.777h5.664v2.232h-8.305v-16.01H189.327z"/>
		<path d="M207.212,147.258v2.257h-3.576v13.753h-2.64v-13.753h-3.528v-2.257H207.212z"/>
		<path d="M214.46,147.258v9.938c0,2.136,0,4.176,2.664,4.176c2.616,0,2.616-1.92,2.616-4.224v-9.89h2.376v9.77
			c0,2.328-0.048,4.344-1.656,5.544c-0.624,0.456-1.608,0.984-3.48,0.984c-5.04,0-5.112-3.528-5.112-6.36v-9.938H214.46z"/>
		<path d="M233.492,147.258c1.513,0,2.593,0.217,3.433,0.816c0.864,0.624,1.68,1.849,1.68,3.744c0,2.904-1.775,3.841-2.472,4.2
			l3.048,7.249h-2.856l-2.52-6.696h-2.496v6.696h-2.641v-16.01H233.492z M231.309,149.299v5.232h2.04c1.896,0,2.64-1.152,2.64-2.736
			c0-2.496-2.063-2.496-2.616-2.496H231.309z"/>
		<path d="M254.084,147.258v2.112h-6.504v4.608h5.112v2.112h-5.112v5.017h6.624v2.16h-9.265v-16.01H254.084z"/>
		<path d="M260.443,160.244v3.024h-2.664v-3.024H260.443z"/>
		<path d="M283.987,151.627c-0.504-1.488-1.176-2.473-2.832-2.473c-1.704,0-2.185,1.296-2.185,2.017c0,1.439,1.297,1.92,3.192,2.664
			c1.849,0.696,4.488,1.704,4.488,4.872c0,2.305-1.632,4.849-5.376,4.849c-4.488,0-5.28-3.385-5.545-4.465l2.353-0.672
			c0.168,0.721,0.648,2.952,3.265,2.952c2.208,0,2.592-1.56,2.592-2.304c0-1.513-1.296-2.088-2.736-2.616
			c-1.776-0.672-2.521-0.96-3.384-1.704c-0.744-0.648-1.44-1.776-1.44-3.265c0-2.184,1.536-4.513,4.92-4.513
			c3.769,0,4.608,2.761,4.945,3.865L283.987,151.627z"/>
		<path d="M303.548,155.275c0,3.289-0.744,8.281-5.712,8.281c-4.801,0-5.785-4.561-5.785-8.281c0-3.672,0.96-8.305,5.761-8.305
			C302.588,146.97,303.548,151.531,303.548,155.275z M295.483,150.787c-0.6,1.368-0.648,3.505-0.648,4.488
			c0,0.961,0.072,3.097,0.648,4.465c0.456,1.032,1.08,1.632,2.353,1.632c1.344,0,1.92-0.815,2.28-1.632
			c0.6-1.416,0.647-3.601,0.647-4.465c0-1.104-0.072-3.144-0.647-4.488c-0.36-0.792-0.912-1.632-2.305-1.632
			C296.443,149.155,295.867,149.923,295.483,150.787z"/>
		<path d="M312.308,147.258v13.777h5.664v2.232h-8.305v-16.01H312.308z"/>
		<path d="M325.556,147.258v9.938c0,2.136,0,4.176,2.664,4.176c2.616,0,2.616-1.92,2.616-4.224v-9.89h2.376v9.77
			c0,2.328-0.048,4.344-1.656,5.544c-0.624,0.456-1.608,0.984-3.48,0.984c-5.04,0-5.112-3.528-5.112-6.36v-9.938H325.556z"/>
		<path d="M347.587,147.258v2.257h-3.576v13.753h-2.64v-13.753h-3.528v-2.257H347.587z"/>
		<path d="M355.003,147.258v16.01h-2.641v-16.01H355.003z"/>
		<path d="M372.668,155.275c0,3.289-0.744,8.281-5.712,8.281c-4.801,0-5.785-4.561-5.785-8.281c0-3.672,0.96-8.305,5.761-8.305
			C371.708,146.97,372.668,151.531,372.668,155.275z M364.604,150.787c-0.601,1.368-0.648,3.505-0.648,4.488
			c0,0.961,0.072,3.097,0.648,4.465c0.456,1.032,1.08,1.632,2.353,1.632c1.344,0,1.92-0.815,2.28-1.632
			c0.6-1.416,0.647-3.601,0.647-4.465c0-1.104-0.072-3.144-0.647-4.488c-0.36-0.792-0.912-1.632-2.305-1.632
			C365.563,149.155,364.987,149.923,364.604,150.787z"/>
		<path d="M381.812,147.258l5.28,11.545v-11.545h2.208v16.01h-2.472l-5.929-12.817v12.817h-2.208v-16.01H381.812z"/>
		<path d="M403.147,151.627c-0.504-1.488-1.176-2.473-2.832-2.473c-1.704,0-2.185,1.296-2.185,2.017c0,1.439,1.297,1.92,3.192,2.664
			c1.849,0.696,4.488,1.704,4.488,4.872c0,2.305-1.632,4.849-5.376,4.849c-4.488,0-5.28-3.385-5.545-4.465l2.353-0.672
			c0.168,0.721,0.648,2.952,3.265,2.952c2.208,0,2.592-1.56,2.592-2.304c0-1.513-1.296-2.088-2.736-2.616
			c-1.776-0.672-2.521-0.96-3.384-1.704c-0.744-0.648-1.44-1.776-1.44-3.265c0-2.184,1.536-4.513,4.92-4.513
			c3.769,0,4.608,2.761,4.945,3.865L403.147,151.627z"/>
		<path d="M412.603,160.244v3.024h-2.664v-3.024H412.603z"/>
	</g>
</g>
<g>
	<path fill="#FFFFFF" d="M148.832,18.679l-2.417-3.687l-1.264-1.619c-0.039-0.037-3.455-3.167-6.575-4.369
		c-2.058-0.79-2.896-1.848-2.903-1.858c-0.005-0.007-0.447-0.619-0.278-1.227c0.104-0.376,0.419-0.676,0.935-0.889
		c11.104-4.518,25.129-6.022,39.492-4.239c22.293,1.014,42.243,10.454,53.37,25.248c4.254,1.013,10.672,3.102,14.851,5.706
		c4.621,2.877,8.147,6.404,8.2,8.205c0.014,0.361-0.121,0.645-0.396,0.84l-2.073,1.279c-1.897,1.112-4.046,2.374-4.445,3.456
		c-0.556,1.516-2.73,5.178-4.822,5.238c-0.838,0.023-2.436,1.482-2.903,1.929c-0.014,0.031,0.048,1.777,0.048,1.777l-0.01,2.524
		c-0.002,0.005-0.297,5.255-0.297,5.255c-0.891,14.368-4.364,27.52-10.317,39.098c-6.508,12.662-16.679,24.856-27.906,33.454
		c-3.562,3.077-6.733,5.353-8.276,5.946c-0.572,0.221-0.952,0.225-1.166,0.018c-0.661-0.643,0.29-3.317,1.601-7.019
		c2.19-6.178,5.501-15.513,4.252-23.816c-1.092-7.263-1.033-10.54,0.21-11.692c1.014-0.939,2.872-0.514,5.44,0.073l2.051,0.454
		c4.505,0.922,8.428,2.459,8.466,2.474c0.014,0.005,1.123,0.397,2.432,1.359c0.006,0.004,0.442,0.328,0.798,0.042
		c0.262-0.21,0.206-1.007,0.146-1.848l-0.048-0.838l-0.006-0.35c-0.008,0-0.004,0.062-0.009,0.072
		c-0.007-0.086-0.017-0.124-0.038-0.124c-0.049,0-0.049,0-0.039,0.405c0,0,0.058,0.999,0.063,1.08
		c-0.469-9.131-16.849-31.843-31.151-46.089c-8.004-7.977-16.651-14.784-24.348-19.172c-0.01-0.004-0.285-0.087-0.285-0.087
		c-4.568-2.376-8.891-4.628-13.336-7.443c-3.943-2.5-7.691-6.063-7.852-6.213c-0.018-0.019-1.934-1.943-2.024-5.052
		c-0.026-0.958,0.181-1.615,0.62-1.948c0.515-0.393,1.182-0.194,1.188-0.191c-0.002,0.015,2.221,3.241,4.043,4.698
		c3.542,2.831,7.627,3.697,7.668,3.708C149.577,23.207,150.361,21.506,148.832,18.679z"/>
	<circle fill="#231F20" cx="152.734" cy="12.259" r="1.507"/>
	<path fill="#231F20" d="M137.828,14.805c0,0,2.216,3.235,4.055,4.706c3.575,2.856,7.647,3.697,7.647,3.697s0.803-1.661-0.734-4.503
		c-0.961-1.779-2.497-3.835-2.497-3.835L137.828,14.805z"/>
	<path fill="#231F20" d="M185.575,51.617c-5.322-5.298-10.805-9.78-16.098-13.356c2.822-0.281,6.938-1.114,9.945-3.558
		c5.01-4.066,5.516-7.397,5.516-7.397s-0.656-1.79-3.298,0.699c-2.642,2.49-7.358,6.244-14.325,5.241
		c-6.965-1.004-14.374-6.819-14.374-6.819s-3.968,0.137-7.177-1.203c-3.203-1.338-6.521-4.462-6.521-4.462
		c-0.359-0.345-0.932-0.329-1.279,0.032c-0.342,0.361-0.328,0.933,0.033,1.277c0.158,0.151,3.941,3.736,7.857,6.218
		c4.447,2.816,8.771,5.068,13.346,7.45l0.277,0.083c7.416,4.227,15.978,10.83,24.34,19.163
		c14.756,14.696,30.731,37.325,31.233,46.09C216.701,91.601,201.212,67.196,185.575,51.617z"/>
	<path fill="#231F20" d="M149.33,14.471c-0.128,0.168-0.124,0.4,0.011,0.563c1.215,1.462,2.279,3.252,3.082,5.171l1.15,3.621
		c0.063,0.2,0.262,0.35,0.473,0.334c0.209-0.017,0.385-0.156,0.417-0.364c0.06-0.404,0.085-0.829,0.071-1.27
		c-0.033-1.16-0.322-2.424-0.839-3.666c-0.856-2.052-2.216-3.645-3.65-4.39c-0.002-0.004-0.005-0.009-0.009-0.012
		c0,0,0,0.004,0.004,0.007c-0.057-0.03-0.103-0.103-0.158-0.129C149.688,14.249,149.461,14.303,149.33,14.471z"/>
	<path fill="#231F20" d="M244.071,31.709c-4.149-2.584-10.48-4.667-14.841-5.694c3.477,6.386,6.028,13.361,7.373,20.778
		c-6.74-18.633-21.161-33.479-39.323-40.913c-0.523-0.187-1.043-0.38-1.558-0.549c0.084,0.012,0.175,0.033,0.262,0.044
		c-3.752-1.282-7.675-2.369-11.743-3.23c-17.913-3.779-35.027-2.4-47.924,2.849c-1.75,0.727-0.674,2.185-0.674,2.185
		s0.826,1.067,2.918,1.871c3.15,1.214,6.557,4.354,6.557,4.354s1.721-0.502,4.082-0.89l-0.001-0.003
		c-0.058-1.946,1.526-3.572,3.532-3.63c2.009-0.06,3.684,1.472,3.74,3.419c0.005,0.166-0.019,0.322-0.037,0.481l0.297,0.019
		c4.795,1.05,11.92,4.122,11.92,4.122s-0.053-1.809-5.875-4.955c-3.559-1.925-5.186-1.961-3.714-3.21
		c1.103-0.935,9.507-0.561,24.381,11.513c0.589-3.556-0.172-6.781-0.853-9.01c-1.06-3.473,0.835-3.267,0.835-3.267
		s2.763,1.932,4.188,8.223c0.565,2.497,0.276,5.109-0.265,7.371c1.333,1.177,2.716,2.463,4.141,3.833
		c2.426-0.318,5.16-0.312,8.034,0.131c6.356,0.979,11.495,3.716,13.6,6.829c0.178,0.18,0.313,0.372,0.396,0.582
		c0.006,0.01,0.012,0.02,0.02,0.03l-0.012-0.002c0.363,0.989-0.416,2.327-3.212,4.24c-0.109,0.077-0.211,0.141-0.321,0.213
		l-8.8-5.088l-0.092-0.007l6.797,6.414c-0.894,0.522-1.746,0.968-2.562,1.33l-8.196-4.739l5.914,5.581
		c-3.532,1.013-6.395,0.396-9.275-1.392l-0.082-0.018c14.742,11.706,25.599,31.758,26.332,53.674
		c7.297-12.849,8.34-34.394,1.689-54.735c-0.483-1.481-1.011-2.934-1.559-4.365l0.008-0.18c8.277,7.479,12.408,26.473,9.391,46.82
		c-2.424,16.346-8.793,28.058-16.272,34.495c-0.148,0.212-0.293,0.432-0.441,0.641l-12.255,11.233l12.676-15.028l-16.078,12.11
		l13.823-13.432l-12.846,5.562l11.828-7.643l-11.278,1.723l11.621-4.314l-12.191-1.07l13.855-1.717l-10.641-3.768l12.801,1.034
		c-1.332-0.974-2.441-1.363-2.441-1.363s-3.911-1.541-8.476-2.48c-7.392-1.517-9.997-3.69-7.755,11.221
		c2.244,14.908-10.172,32.978-4.626,30.852c1.56-0.596,4.694-2.848,8.29-5.951c9.638-7.381,20.509-19.057,27.919-33.471
		c7.016-13.647,9.592-27.387,10.321-39.113c0.317-3.314,0.399-6.515,0.24-9.533c1.021-1.038,2.085-1.889,2.879-1.911
		c2.11-0.062,4.307-3.745,4.865-5.27c0.558-1.524,4.724-3.455,6.497-4.711C253.649,39.574,249.547,35.122,244.071,31.709z"/>
	<path fill="#231F20" d="M276.812,33.617"/>
	<path fill="#231F20" d="M277.112,33.459"/>
</g>
</svg>
