<?xml version="1.0" encoding="utf-8"?>
<!-- Generator: Adobe Illustrator 15.1.0, SVG Export Plug-In . SVG Version: 6.00 Build 0)  -->
<!DOCTYPE svg PUBLIC "-//W3C//DTD SVG 1.1//EN" "http://www.w3.org/Graphics/SVG/1.1/DTD/svg11.dtd">
<svg version="1.1" id="Layer_1" xmlns="http://www.w3.org/2000/svg" xmlns:xlink="http://www.w3.org/1999/xlink" x="0px" y="0px"
	 width="539.17px" height="200px" viewBox="0 0 539.17 200" enable-background="new 0 0 539.17 200" xml:space="preserve">
<g id="Layer_1_1_">
	<g>
		<g>
			<g>
				<path fill="#FFFFFF" d="M72.905,180.416l6.308,13.809v-13.809h2.641v19.143H78.9l-7.089-15.322v15.322h-2.639v-19.143H72.905z"
					/>
				<path fill="#FFFFFF" d="M100.653,180.416v2.53h-7.782v5.508h6.115v2.528h-6.115v5.998h7.921v2.576H89.718v-19.142
					L100.653,180.416L100.653,180.416z"/>
				<path fill="#FFFFFF" d="M108.682,180.416l2.588,14.352l2.981-14.352h2.755l2.954,14.352l2.729-14.352h2.669l-4.018,19.201h-2.87
					l-3.013-14.061l-2.98,14.061h-2.903l-4.131-19.201H108.682z"/>
				<path fill="#FFFFFF" d="M140.254,185.641c-0.607-1.777-1.41-2.951-3.388-2.951c-2.04,0-2.615,1.547-2.615,2.41
					c0,1.719,1.554,2.295,3.817,3.183c2.212,0.832,5.367,2.038,5.367,5.825c0,2.758-1.948,5.8-6.423,5.8
					c-5.374,0-6.313-4.046-6.632-5.339l2.813-0.805c0.202,0.863,0.775,3.528,3.901,3.528c2.638,0,3.099-1.858,3.099-2.754
					c0-1.81-1.548-2.495-3.27-3.126c-2.126-0.805-3.017-1.15-4.045-2.037c-0.889-0.775-1.72-2.126-1.72-3.907
					c0-2.606,1.832-5.391,5.878-5.391c4.504,0,5.512,3.297,5.909,4.622L140.254,185.641z"/>
				<path fill="#FFFFFF" d="M151.558,195.941v3.615h-3.183v-3.615H151.558z"/>
				<path fill="#FFFFFF" d="M183.557,193.534c-0.23,1.551-0.95,6.372-6.254,6.372c-6.23,0-6.917-6.688-6.917-9.846
					c0-3.041,0.599-9.983,6.974-9.983c5.334,0,5.995,4.903,6.228,6.538l-2.958,0.404c-0.199-1.607-0.573-4.33-3.214-4.33
					c-3.298,0-3.68,4.414-3.68,7.459c0,3.444,0.641,7.144,3.68,7.144c1.949,0,2.754-1.376,3.214-4.162L183.557,193.534z"/>
				<path fill="#FFFFFF" d="M193.428,180.416v11.883c0,2.557,0,4.993,3.188,4.993c3.127,0,3.127-2.29,3.127-5.05v-11.826h2.841
					v11.681c0,2.786-0.056,5.195-1.982,6.632c-0.746,0.549-1.921,1.179-4.163,1.179c-6.024,0-6.109-4.22-6.109-7.607v-11.883
					L193.428,180.416L193.428,180.416z"/>
				<path fill="#FFFFFF" d="M213.57,180.416v16.477h6.777v2.666h-9.933v-19.143H213.57z"/>
				<path fill="#FFFFFF" d="M234.957,180.416v2.703h-4.276v16.438h-3.156v-16.438h-4.217v-2.703H234.957z"/>
				<path fill="#FFFFFF" d="M243.623,180.416v11.883c0,2.557,0,4.993,3.187,4.993c3.132,0,3.132-2.29,3.132-5.05v-11.826h2.836
					v11.681c0,2.786-0.057,5.195-1.979,6.632c-0.749,0.549-1.926,1.179-4.162,1.179c-6.025,0-6.115-4.22-6.115-7.607v-11.883
					L243.623,180.416L243.623,180.416z"/>
				<path fill="#FFFFFF" d="M266.379,180.416c1.809,0,3.098,0.264,4.104,0.977c1.031,0.75,2.013,2.211,2.013,4.479
					c0,3.479-2.125,4.594-2.956,5.021l3.645,8.666h-3.417l-3.01-7.998h-2.987v7.998h-3.159v-19.142L266.379,180.416L266.379,180.416
					z M263.77,182.859v6.254h2.438c2.271,0,3.16-1.372,3.16-3.271c0-2.98-2.465-2.98-3.132-2.98h-2.466V182.859z"/>
				<path fill="#FFFFFF" d="M291.005,180.416v2.53h-7.777v5.508h6.107v2.528h-6.107v5.998h7.92v2.576h-11.08v-19.142
					L291.005,180.416L291.005,180.416z"/>
				<path fill="#FFFFFF" d="M298.604,195.941v3.615h-3.187v-3.615H298.604z"/>
				<path fill="#FFFFFF" d="M326.758,185.641c-0.604-1.777-1.407-2.951-3.385-2.951c-2.041,0-2.615,1.547-2.615,2.41
					c0,1.719,1.554,2.295,3.817,3.183c2.211,0.832,5.367,2.038,5.367,5.825c0,2.758-1.95,5.8-6.426,5.8
					c-5.367,0-6.313-4.046-6.634-5.339l2.812-0.805c0.202,0.863,0.774,3.528,3.907,3.528c2.641,0,3.095-1.858,3.095-2.754
					c0-1.81-1.548-2.495-3.27-3.126c-2.125-0.805-3.011-1.15-4.046-2.037c-0.891-0.775-1.725-2.126-1.725-3.907
					c0-2.606,1.842-5.391,5.886-5.391c4.503,0,5.507,3.297,5.912,4.622L326.758,185.641z"/>
				<path fill="#FFFFFF" d="M350.144,190.006c0,3.93-0.886,9.9-6.824,9.9c-5.742,0-6.92-5.453-6.92-9.9
					c0-4.394,1.148-9.929,6.886-9.929C349,180.077,350.144,185.53,350.144,190.006z M340.506,184.637
					c-0.718,1.635-0.774,4.191-0.774,5.369c0,1.149,0.084,3.7,0.774,5.335c0.54,1.236,1.289,1.951,2.812,1.951
					c1.602,0,2.296-0.974,2.723-1.951c0.72-1.69,0.778-4.304,0.778-5.335c0-1.324-0.094-3.762-0.778-5.369
					c-0.427-0.943-1.09-1.947-2.757-1.947C341.651,182.689,340.962,183.604,340.506,184.637z"/>
				<path fill="#FFFFFF" d="M360.622,180.416v16.477h6.77v2.666h-9.931v-19.143H360.622z"/>
				<path fill="#FFFFFF" d="M376.459,180.416v11.883c0,2.557,0,4.993,3.187,4.993c3.131,0,3.131-2.29,3.131-5.05v-11.826h2.839
					v11.681c0,2.786-0.06,5.195-1.978,6.632c-0.748,0.549-1.926,1.179-4.16,1.179c-6.033,0-6.116-4.22-6.116-7.607v-11.883
					L376.459,180.416L376.459,180.416z"/>
				<path fill="#FFFFFF" d="M402.802,180.416v2.703h-4.276v16.438h-3.155v-16.438h-4.217v-2.703H402.802z"/>
				<path fill="#FFFFFF" d="M411.67,180.416v19.143h-3.154v-19.143H411.67z"/>
				<path fill="#FFFFFF" d="M432.799,190.006c0,3.93-0.896,9.9-6.839,9.9c-5.735,0-6.914-5.453-6.914-9.9
					c0-4.394,1.146-9.929,6.888-9.929C431.643,180.077,432.799,185.53,432.799,190.006z M423.155,184.637
					c-0.725,1.635-0.776,4.191-0.776,5.369c0,1.149,0.08,3.7,0.776,5.335c0.543,1.236,1.286,1.951,2.805,1.951
					c1.609,0,2.303-0.974,2.731-1.951c0.716-1.69,0.771-4.304,0.771-5.335c0-1.324-0.085-3.762-0.771-5.369
					c-0.43-0.943-1.096-1.947-2.758-1.947C424.299,182.689,423.604,183.604,423.155,184.637z"/>
				<path fill="#FFFFFF" d="M443.725,180.416l6.316,13.809v-13.809h2.635v19.143h-2.951l-7.087-15.322v15.322h-2.644v-19.143
					H443.725z"/>
				<path fill="#FFFFFF" d="M469.242,185.641c-0.604-1.777-1.412-2.951-3.391-2.951c-2.039,0-2.617,1.547-2.617,2.41
					c0,1.719,1.555,2.295,3.821,3.183c2.214,0.832,5.368,2.038,5.368,5.825c0,2.758-1.955,5.8-6.427,5.8
					c-5.37,0-6.317-4.046-6.633-5.339l2.813-0.805c0.198,0.863,0.773,3.528,3.9,3.528c2.644,0,3.102-1.858,3.102-2.754
					c0-1.81-1.547-2.495-3.269-3.126c-2.126-0.805-3.021-1.15-4.049-2.037c-0.89-0.775-1.723-2.126-1.723-3.907
					c0-2.606,1.839-5.391,5.886-5.391c4.498,0,5.505,3.297,5.912,4.622L469.242,185.641z"/>
				<path fill="#FFFFFF" d="M480.544,195.941v3.615h-3.183v-3.615H480.544z"/>
			</g>
		</g>
		<g>
			<polygon fill="#D9B100" points="173.773,150.505 311.31,150.505 423.197,148.852 287.486,146.232 419.725,128.027 
				285.764,141.105 409.444,108.009 282.374,136.271 392.753,89.558 277.456,131.925 370.287,73.384 271.195,128.223 
				342.911,60.112 263.833,125.32 311.677,50.249 255.654,123.316 277.783,44.178 246.967,122.298 242.543,42.126 238.115,122.298 
				207.302,44.178 229.434,123.316 173.407,50.249 221.249,125.32 142.173,60.112 213.891,128.223 114.801,73.384 207.629,131.925 
				92.329,89.558 202.711,136.271 75.638,108.009 199.324,141.105 65.357,128.027 197.598,146.232 61.887,148.852 			"/>
		</g>
		<rect x="4.371" y="147.616" fill="#FFFFFF" width="170.573" height="3.149"/>
		<rect x="171.342" y="147.607" fill="#FFFFFF" width="366.375" height="3.168"/>
		<g>
			<g>
				<path fill="#B4B4B4" stroke="#B4B4B4" stroke-width="12.0997" stroke-linecap="round" stroke-linejoin="round" d="
					M278.272,134.557"/>
				<path fill="none" stroke="#000000" stroke-width="4.2018" d="M276.536,132.225"/>
				<path fill="#FFFFFF" d="M283.043,37.868c-4.817-3.006-11.743-5.424-17.139-6.832C251.999,13.477,228.03,2.312,201.396,1.057
					c-4.688-0.572-9.404-0.862-14.022-0.862c-12.492,0-24.292,2.119-34.144,6.133c-1.856,0.768-3.147,2.153-3.627,3.873
					c-0.728,2.534,0.542,4.597,0.949,5.167l0.111,0.151c0.209,0.269,1.12,1.357,2.934,2.438c-0.356,0.169-0.692,0.377-0.997,0.616
					c-1.158,0.875-2.527,2.595-2.467,5.896c0.152,4.5,2.467,7.535,3.394,8.574l0.326,0.343c0.194,0.187,4.807,4.591,9.85,7.789
					c5.367,3.409,10.482,6.068,15.896,8.884l0.581,0.251c8.569,4.933,18.189,12.541,27.138,21.472
					c14.503,14.44,29.081,34.536,33.656,45.655c-1.991-0.634-4.475-1.332-7.008-1.848l-2.335-0.506
					c-1.881-0.436-3.659-0.848-5.321-0.848c-2.009,0-3.685,0.603-5.006,1.817c-3.122,2.913-3.002,7.959-1.594,17.5
					c1.306,8.604-2.316,18.867-4.732,25.714c-2.325,6.489-3.605,10.064-0.798,12.803c0.938,0.908,2.194,1.408,3.544,1.408
					c0.756,0,1.531-0.152,2.42-0.482c3.11-1.198,8.099-5.262,10.862-7.637c13.557-10.402,25.85-25.148,33.739-40.482
					c7.229-14.077,11.438-30.021,12.516-47.413l0.347-6.143l0.019-3.25c4.833-0.798,7.742-6.683,8.492-8.391
					c0.657-0.601,2.501-1.683,3.608-2.334l2.414-1.5l0.156-0.104c1.587-1.083,2.473-2.884,2.373-4.701
					C294.521,45.43,285.728,39.537,283.043,37.868z"/>
				<path d="M175.817,18.758c-0.036-0.972-0.849-1.741-1.806-1.708c-0.985,0.027-1.747,0.83-1.717,1.811
					c0.03,0.966,0.831,1.736,1.81,1.708C175.086,20.547,175.843,19.73,175.817,18.758z"/>
				<path d="M156.634,21.781c0,0,2.6,3.771,4.744,5.497c4.171,3.347,8.94,4.32,8.94,4.32s0.926-1.938-0.862-5.247
					c-1.126-2.087-2.92-4.485-2.92-4.485L156.634,21.781z"/>
				<path d="M212.415,64.781c-6.226-6.184-12.617-11.427-18.802-15.585c3.305-0.339,8.103-1.313,11.619-4.168
					c5.856-4.75,6.442-8.635,6.442-8.635s-0.77-2.091-3.847,0.81c-3.093,2.917-8.604,7.295-16.734,6.119
					c-8.139-1.164-16.794-7.963-16.794-7.963s-4.641,0.149-8.381-1.403c-3.742-1.563-7.626-5.211-7.626-5.211
					c-0.411-0.415-1.089-0.392-1.495,0.032c-0.396,0.427-0.393,1.089,0.047,1.497c0.181,0.174,4.592,4.363,9.171,7.266
					c5.197,3.284,10.238,5.915,15.598,8.699l0.325,0.102c8.653,4.936,18.665,12.646,28.429,22.385
					c17.229,17.161,35.905,43.596,36.487,53.834C248.782,111.486,230.687,82.979,212.415,64.781z"/>
				<path d="M170.083,21.403c-0.157,0.183-0.142,0.463,0.016,0.658c1.414,1.708,2.652,3.793,3.585,6.027l1.359,4.235
					c0.071,0.234,0.3,0.406,0.547,0.383c0.253-0.004,0.444-0.173,0.492-0.414c0.064-0.472,0.094-0.975,0.088-1.481
					c-0.059-1.358-0.393-2.835-0.99-4.293c-0.993-2.393-2.602-4.251-4.26-5.114l-0.017-0.02l0.009,0.003
					c-0.065-0.033-0.124-0.123-0.193-0.151C170.5,21.14,170.225,21.201,170.083,21.403z"/>
				<path d="M280.767,41.536c-4.851-3.022-12.247-5.46-17.358-6.649c4.075,7.448,7.049,15.598,8.61,24.263
					c-7.858-21.765-24.705-39.106-45.924-47.789c-0.61-0.218-1.213-0.443-1.824-0.643c0.105,0.025,0.201,0.047,0.312,0.047
					c-4.385-1.491-8.969-2.753-13.732-3.765c-20.92-4.41-40.91-2.801-55.975,3.32c-2.046,0.858-0.787,2.55-0.787,2.55
					s0.966,1.26,3.415,2.189c3.671,1.413,7.65,5.095,7.65,5.095s2.003-0.595,4.771-1.049l0,0c-0.061-2.274,1.776-4.171,4.125-4.239
					c2.354-0.077,4.304,1.716,4.374,3.988c0,0.195-0.031,0.377-0.048,0.561l0.35,0.025c5.594,1.224,13.916,4.825,13.916,4.825
					s-0.054-2.116-6.854-5.796c-4.157-2.258-6.053-2.285-4.34-3.741c1.299-1.104,11.101-0.66,28.48,13.442
					c0.692-4.147-0.2-7.924-0.999-10.522c-1.238-4.056,0.984-3.817,0.984-3.817s3.224,2.253,4.886,9.601
					c0.651,2.924,0.32,5.963-0.312,8.613c1.552,1.376,3.185,2.874,4.824,4.484c2.85-0.38,6.046-0.374,9.401,0.142
					c7.412,1.144,13.432,4.338,15.892,7.976c0.216,0.219,0.37,0.444,0.451,0.689c0.021,0.006,0.027,0.016,0.04,0.027l-0.013-0.011
					c0.419,1.169-0.494,2.729-3.758,4.964c-0.119,0.09-0.245,0.164-0.384,0.254l-10.283-5.951l-0.105-0.007l7.958,7.51
					c-1.058,0.59-2.057,1.119-3.009,1.535l-9.565-5.527l6.906,6.518c-4.13,1.178-7.478,0.459-10.839-1.63l-0.105-0.017
					c17.238,13.678,29.923,37.091,30.772,62.705c8.534-15.015,9.748-40.179,1.965-63.941c-0.556-1.736-1.178-3.423-1.807-5.096
					l0.012-0.216c9.663,8.746,14.495,30.928,10.957,54.688c-2.824,19.104-10.271,32.775-18.989,40.307
					c-0.187,0.242-0.367,0.508-0.529,0.744l-14.318,13.13l14.815-17.573l-18.792,14.157l16.159-15.698l-15.017,6.506l13.813-8.925
					l-13.173,1.999l13.584-5.033l-14.251-1.252l16.196-2.005l-12.441-4.399l14.957,1.201c-1.551-1.134-2.851-1.585-2.851-1.585
					s-4.555-1.804-9.905-2.894c-8.639-1.772-11.675-4.312-9.048,13.104c2.615,17.413-11.889,38.521-5.414,36.039
					c1.818-0.701,5.483-3.326,9.679-6.95c11.267-8.625,23.975-22.268,32.626-39.095c8.199-15.954,11.212-32,12.056-45.698
					c0.379-3.869,0.475-7.611,0.279-11.136c1.201-1.209,2.433-2.205,3.356-2.223c2.474-0.077,5.036-4.382,5.697-6.167
					c0.635-1.774,5.524-4.035,7.592-5.5C291.938,50.718,287.152,45.508,280.767,41.536z"/>
			</g>
		</g>
		<g>
			<path fill="#FFFFFF" d="M48.773,60.956H0v19.748h2.196l0.02-0.205C3.293,67.575,7.622,65.413,17.49,65.378
				c0,0.461,0,59.815,0,59.815c0,2.844-0.532,4.658-1.679,5.726c-1.107,1.027-2.891,1.428-5.449,1.235l-0.241-0.02v2.397h28.753
				v-2.392l-0.233,0.012c-2.736,0.144-4.503-0.256-5.564-1.267c-1.118-1.06-1.572-2.801-1.572-6.014c0,0,0-59.029,0-59.495
				c10.51,0.054,14.102,3.617,15.274,15.121l0.021,0.203h2.195V60.956H48.773z M112.648,60.956H86.183v2.382l0.234-0.005
				c2.236-0.044,3.717,0.367,4.661,1.291c1.065,1.041,1.494,2.745,1.494,5.884c0,0,0,23.14,0,23.58c-0.434,0-18.868,0-19.301,0
				c0-0.439,0-24.117,0-24.117c0-2.595,0.487-4.283,1.538-5.308c0.962-0.943,2.476-1.38,4.617-1.329l0.229,0.005v-2.382H52.873
				v2.388l0.228-0.011c2.059-0.088,3.536,0.326,4.53,1.272c1.105,1.067,1.625,2.807,1.625,5.474v55.332
				c0,2.689-0.486,4.418-1.533,5.439c-0.962,0.941-2.429,1.354-4.625,1.305l-0.225-0.006v2.385h26.781v-2.379h-0.226
				c-4.604,0-6.159-1.811-6.159-7.174c0,0,0-25.393,0-25.832c0.433,0,18.868,0,19.301,0c0,0.438,0,25.51,0,25.51
				c0,3.231-0.513,5.168-1.664,6.268c-0.954,0.914-2.417,1.313-4.491,1.228l-0.234-0.006v2.385h26.69v-2.379h-0.225
				c-5.127,0-6.063-2.524-6.063-7.494V70.079c0-2.642,0.517-4.426,1.581-5.468c0.948-0.922,2.37-1.329,4.479-1.278l0.229,0.005
				v-2.382H112.648z M161.195,60.956h-45.528v2.387l0.233-0.01c2.549-0.094,4.208,0.317,5.214,1.297
				c1.089,1.042,1.525,2.775,1.525,5.986v54.364c0,3.032-0.51,4.867-1.664,5.951c-1.044,0.979-2.657,1.371-5.073,1.224l-0.238-0.013
				v2.392h47.195l3.306-22.97h-2.19l-0.05,0.162c-4.354,13.922-9.627,18.391-21.701,18.391c-4.69,0-5.571-1.344-5.571-8.46
				c0,0,0-21.783,0-22.271c7.422,0.219,11.049,5.492,11.049,16.159v0.222h2.221V78.109h-2.221v0.225
				c0,10.885-3.523,16.15-11.049,16.581c0-0.499,0-29.106,0-29.543c0.403,0,4.885,0,4.885,0c14.022,0,16.792,8.46,17.666,16.743
				l0.017,0.201h2.195v-21.36H161.195z M376.729,42.672h-60.906v24.576h2.641l0.018-0.205c1.352-16.225,6.785-18.921,19.209-18.957
				c0,0.461,0,74.83,0,74.83c0,3.566-0.674,5.854-2.117,7.191c-1.396,1.298-3.635,1.809-6.854,1.564l-0.241-0.018v2.878h35.827
				v-2.871l-0.232,0.011c-3.431,0.184-5.655-0.33-6.998-1.602c-1.406-1.336-1.98-3.526-1.98-7.559c0,0,0-73.959,0-74.428
				c13.226,0.056,17.741,4.51,19.209,18.957l0.018,0.205h2.636V42.672H376.729z M431.175,60.956H417.78v2.37l0.221,0.007
				c3.269,0.105,4.793,1.084,4.793,3.1c0,1.451-0.465,3.384-1.653,6.898c0,0-7.541,22.077-8.834,25.875
				c-0.414-1.172-10.504-29.736-10.504-29.736c0-0.01-0.097-0.249-0.097-0.249c-0.324-0.822-0.873-2.197-0.873-3.217
				c0-0.701,0.249-1.288,0.736-1.734c0.864-0.795,2.433-1.12,4.528-0.938l0.245,0.022v-2.399h-25.218v2.342l0.191,0.035
				c3.713,0.623,3.852,0.823,7.483,10.896l11.994,33.242l-0.012,17.724c0,2.984-0.468,4.689-1.552,5.713
				c-1.182,1.104-3.206,1.478-6.764,1.248l-0.239-0.014v2.393h30.913v-2.393l-0.235,0.014c-3.417,0.191-5.356-0.176-6.479-1.23
				c-1.385-1.311-1.639-3.717-1.639-7.98v-18.555c-0.012,0.076,10.21-29.841,10.21-29.841c3.485-10.218,3.858-10.624,6.229-11.223
				l0.17-0.043v-2.326H431.175z M480.928,60.956h-45.529v2.387l0.238-0.01c2.545-0.094,4.2,0.317,5.221,1.297
				c1.076,1.042,1.521,2.775,1.521,5.986v54.364c0,3.032-0.516,4.867-1.667,5.951c-1.041,0.979-2.654,1.371-5.07,1.224l-0.242-0.013
				v2.392h47.196l3.309-22.97h-2.192l-0.05,0.162c-4.351,13.922-9.624,18.391-21.699,18.391c-4.687,0-5.577-1.344-5.577-8.46
				c0,0,0-21.783,0-22.271c7.428,0.219,11.049,5.492,11.049,16.159v0.222h2.223V78.109h-2.223v0.225
				c0,10.885-3.518,16.15-11.049,16.581c0-0.499,0-29.106,0-29.543c0.412,0,4.893,0,4.893,0c14.018,0,16.791,8.46,17.66,16.743
				l0.024,0.201h2.192v-21.36H480.928z M534.195,60.956h-45.533v2.387l0.23-0.01c2.552-0.094,4.211,0.317,5.228,1.297
				c1.081,1.042,1.521,2.775,1.521,5.986v54.364c0,3.032-0.512,4.867-1.664,5.951c-1.045,0.979-2.657,1.371-5.076,1.224
				l-0.238-0.013v2.392h47.195l3.312-22.97h-2.195l-0.053,0.162c-4.353,13.922-9.625,18.391-21.697,18.391
				c-4.687,0-5.573-1.344-5.573-8.46c0,0,0-21.783,0-22.271c7.424,0.219,11.051,5.492,11.051,16.159v0.222h2.217V78.109h-2.217
				v0.225c0,10.885-3.522,16.15-11.051,16.581c0-0.499,0-29.106,0-29.543c0.411,0,4.884,0,4.884,0c14.023,0,16.8,8.46,17.665,16.743
				l0.021,0.201h2.196v-21.36H534.195z"/>
		</g>
	</g>
</g>
</svg>
