<?xml version="1.0" encoding="utf-8"?>
<!-- Generator: Adobe Illustrator 15.1.0, SVG Export Plug-In . SVG Version: 6.00 Build 0)  -->
<!DOCTYPE svg PUBLIC "-//W3C//DTD SVG 1.1//EN" "http://www.w3.org/Graphics/SVG/1.1/DTD/svg11.dtd">
<svg version="1.1" id="Layer_1" xmlns="http://www.w3.org/2000/svg" xmlns:xlink="http://www.w3.org/1999/xlink" x="0px" y="0px"
	 width="600px" height="200px" viewBox="0 0 600 200" enable-background="new 0 0 600 200" xml:space="preserve">
<g>
	<polygon fill="#FFD000" points="193.474,153.349 383.053,153.349 537.283,150.378 350.217,146.769 532.496,121.678 347.84,139.701 
		518.324,94.079 343.166,133.039 495.316,68.648 336.387,127.047 464.348,46.354 327.756,121.945 426.613,28.059 317.609,117.94 
		383.559,14.462 306.334,115.183 336.84,6.093 294.363,113.777 288.268,3.265 282.162,113.777 239.682,6.093 270.193,115.183 
		192.965,14.462 258.91,117.94 149.915,28.059 248.771,121.945 112.183,46.354 240.139,127.047 81.21,68.648 233.358,133.039 
		58.198,94.079 228.69,139.701 44.03,121.678 226.31,146.769 39.248,150.378 	"/>
</g>
<path fill="#231F20" d="M68.278,56.664H13.03v22.374h2.493l0.02-0.233c1.22-14.64,6.121-17.091,17.302-17.129
	c0,0.52,0,67.762,0,67.762c0,3.218-0.603,5.279-1.902,6.484c-1.254,1.162-3.272,1.622-6.172,1.402l-0.274-0.021v2.716h32.572v-2.708
	l-0.266,0.014c-3.094,0.163-5.097-0.293-6.3-1.436c-1.268-1.201-1.782-3.176-1.782-6.812c0,0,0-66.869,0-67.397
	c11.905,0.062,15.977,4.094,17.303,17.13l0.022,0.229h2.488V56.664H68.278z"/>
<path fill="#231F20" d="M140.641,56.664h-29.975v2.699l0.258-0.004c2.535-0.051,4.216,0.414,5.284,1.462
	c1.204,1.179,1.691,3.111,1.691,6.667c0,0,0,26.212,0,26.709c-0.49,0-21.378,0-21.866,0c0-0.497,0-27.319,0-27.319
	c0-2.941,0.552-4.854,1.747-6.019c1.088-1.064,2.8-1.556,5.228-1.5l0.261,0.004v-2.699H72.924v2.706l0.264-0.011
	c2.327-0.104,4.002,0.369,5.124,1.442c1.26,1.208,1.846,3.178,1.846,6.198v62.684c0,3.044-0.552,5.002-1.74,6.165
	c-1.088,1.062-2.75,1.53-5.234,1.476l-0.26-0.007v2.701h30.344v-2.697h-0.256c-5.218,0-6.979-2.048-6.979-8.126
	c0,0,0-28.764,0-29.264c0.488,0,21.376,0,21.866,0c0,0.5,0,28.898,0,28.898c0,3.664-0.581,5.854-1.885,7.104
	c-1.078,1.033-2.739,1.488-5.086,1.391l-0.262-0.011v2.705h30.229v-2.697h-0.254c-5.807,0-6.868-2.856-6.868-8.491V67
	c0-2.989,0.584-5.015,1.79-6.19c1.08-1.052,2.688-1.512,5.074-1.45l0.259,0.006v-2.701H140.641z"/>
<path fill="#231F20" d="M195.639,56.664h-51.578v2.704l0.265-0.009c2.89-0.106,4.765,0.358,5.913,1.467
	c1.228,1.181,1.725,3.146,1.725,6.781v61.588c0,3.435-0.58,5.514-1.885,6.74c-1.183,1.113-3.006,1.553-5.745,1.389l-0.273-0.016
	v2.71h53.468l3.745-26.02h-2.483l-0.055,0.179c-4.933,15.775-10.906,20.836-24.582,20.836c-5.314,0-6.316-1.521-6.316-9.585
	c0,0,0-24.679,0-25.228c8.414,0.245,12.52,6.224,12.52,18.307v0.252h2.511V76.101h-2.511v0.254c0,12.327-3.992,18.292-12.52,18.779
	c0-0.562,0-32.97,0-33.467c0.462,0,5.536,0,5.536,0c15.882,0,19.026,9.587,20.01,18.964l0.021,0.229h2.489V56.664H195.639z"/>
<path fill="#231F20" d="M400.555,35.951h-68.998V63.79h2.992l0.016-0.23c1.533-18.377,7.691-21.435,21.762-21.475
	c0,0.521,0,84.773,0,84.773c0,4.04-0.762,6.63-2.396,8.146c-1.584,1.467-4.123,2.048-7.764,1.774l-0.275-0.021v3.261h40.588v-3.254
	l-0.268,0.015c-3.887,0.205-6.404-0.374-7.926-1.814c-1.598-1.515-2.248-3.994-2.248-8.563c0,0,0-83.783,0-84.312
	c14.982,0.061,20.096,5.106,21.762,21.473l0.021,0.228h2.988V35.951H400.555z"/>
<path fill="#231F20" d="M462.23,56.664h-15.176v2.685l0.248,0.011c3.705,0.116,5.434,1.231,5.434,3.51
	c0,1.644-0.527,3.833-1.879,7.815c0,0-8.537,25.007-10.006,29.311c-0.469-1.324-11.895-33.688-11.895-33.688
	c-0.004-0.008-0.113-0.28-0.113-0.28c-0.365-0.929-0.986-2.484-0.986-3.642c0-0.795,0.281-1.458,0.836-1.965
	c0.979-0.9,2.752-1.268,5.127-1.062l0.277,0.023v-2.719h-28.566v2.654l0.215,0.035c4.209,0.707,4.369,0.938,8.482,12.351
	l13.584,37.658l-0.014,20.075c0,3.381-0.525,5.315-1.758,6.47c-1.336,1.254-3.629,1.677-7.662,1.417l-0.268-0.02v2.714h35.021v-2.71
	l-0.27,0.016c-3.873,0.22-6.066-0.2-7.338-1.397c-1.57-1.484-1.857-4.209-1.857-9.04v-21.016
	c-0.014,0.082,11.562-33.808,11.562-33.808c3.949-11.573,4.377-12.036,7.062-12.715l0.191-0.045v-2.64H462.23z"/>
<path fill="#231F20" d="M518.59,56.664h-51.574v2.704l0.264-0.009c2.889-0.106,4.766,0.36,5.914,1.467
	c1.225,1.184,1.725,3.146,1.725,6.781v61.588c0,3.435-0.578,5.512-1.883,6.74c-1.184,1.113-3.008,1.553-5.748,1.389l-0.271-0.016
	v2.71h53.465l3.748-26.02h-2.486l-0.055,0.179c-4.93,15.775-10.902,20.836-24.582,20.836c-5.312,0-6.316-1.521-6.316-9.585
	c0,0,0-24.679,0-25.228c8.412,0.245,12.518,6.224,12.518,18.307v0.252h2.516V76.101h-2.516v0.254
	c0,12.327-3.988,18.292-12.518,18.779c0-0.562,0-32.97,0-33.467c0.465,0,5.539,0,5.539,0c15.879,0,19.023,9.587,20.01,18.966
	l0.021,0.228h2.486V56.664H518.59z"/>
<path fill="#231F20" d="M578.932,56.664h-51.58v2.704l0.264-0.009c2.889-0.106,4.77,0.36,5.918,1.467
	c1.225,1.184,1.725,3.148,1.725,6.781v61.588c0,3.432-0.58,5.512-1.885,6.74c-1.182,1.113-3.01,1.553-5.75,1.389l-0.271-0.016v2.71
	h53.467l3.75-26.02h-2.486l-0.055,0.179c-4.934,15.775-10.906,20.836-24.584,20.836c-5.311,0-6.316-1.521-6.316-9.585
	c0,0,0-24.679,0-25.228c8.412,0.245,12.521,6.224,12.521,18.307v0.252h2.512V76.101h-2.512v0.254
	c0,12.327-3.992,18.292-12.521,18.779c0-0.562,0-32.97,0-33.467c0.467,0,5.535,0,5.535,0c15.885,0,19.029,9.587,20.01,18.964
	l0.023,0.229h2.488V56.664H578.932z"/>
<rect x="13.923" y="150.85" fill="#231F20" width="242.499" height="2.607"/>
<path fill="none" stroke="#231F20" stroke-width="2.0836" d="M293.658,152.151"/>
<rect x="253.443" y="150.842" fill="#231F20" width="333.527" height="2.62"/>
<path fill="#231F20" d="M155.326,81.758"/>
<g>
	<g>
		<path d="M100.445,179.78l6.439,14.079V179.78h2.692v19.523h-3.015l-7.229-15.631v15.631H96.64V179.78H100.445z"/>
		<path d="M128.747,179.78v2.576h-7.932v5.618h6.235v2.577h-6.235v6.117h8.079v2.635h-11.298V179.78H128.747z"/>
		<path d="M136.941,179.78l2.635,14.636l3.044-14.636h2.81l3.016,14.636l2.78-14.636h2.721l-4.098,19.582h-2.927l-3.073-14.344
			l-3.044,14.344h-2.957l-4.215-19.582H136.941z"/>
		<path d="M169.138,185.107c-0.614-1.814-1.434-3.016-3.454-3.016c-2.077,0-2.664,1.581-2.664,2.461
			c0,1.756,1.582,2.341,3.894,3.248c2.254,0.848,5.474,2.077,5.474,5.941c0,2.811-1.991,5.913-6.556,5.913
			c-5.475,0-6.441-4.127-6.762-5.444l2.868-0.82c0.206,0.88,0.791,3.601,3.981,3.601c2.692,0,3.161-1.901,3.161-2.81
			c0-1.846-1.58-2.546-3.337-3.191c-2.167-0.818-3.074-1.17-4.127-2.076c-0.907-0.791-1.756-2.168-1.756-3.983
			c0-2.663,1.873-5.502,6-5.502c4.595,0,5.62,3.366,6.03,4.715L169.138,185.107z"/>
		<path d="M180.668,195.616v3.688h-3.249v-3.688H180.668z"/>
		<path d="M213.304,193.158c-0.235,1.578-0.965,6.497-6.381,6.497c-6.353,0-7.055-6.821-7.055-10.039
			c0-3.104,0.615-10.188,7.113-10.188c5.443,0,6.118,5.005,6.351,6.674l-3.014,0.409c-0.206-1.638-0.587-4.42-3.279-4.42
			c-3.366,0-3.747,4.509-3.747,7.609c0,3.515,0.644,7.29,3.747,7.29c1.991,0,2.809-1.403,3.279-4.245L213.304,193.158z"/>
		<path d="M223.372,179.78v12.118c0,2.605,0,5.093,3.248,5.093c3.19,0,3.19-2.342,3.19-5.149V179.78h2.898v11.913
			c0,2.84-0.058,5.298-2.02,6.762c-0.76,0.556-1.961,1.2-4.244,1.2c-6.146,0-6.234-4.304-6.234-7.757V179.78H223.372z"/>
		<path d="M243.918,179.78v16.8h6.907v2.724h-10.128V179.78H243.918z"/>
		<path d="M265.729,179.78v2.753h-4.361v16.771h-3.219v-16.771h-4.303v-2.753H265.729z"/>
		<path d="M274.568,179.78v12.118c0,2.605,0,5.093,3.248,5.093c3.191,0,3.191-2.342,3.191-5.149V179.78h2.898v11.913
			c0,2.84-0.061,5.298-2.021,6.762c-0.76,0.556-1.961,1.2-4.246,1.2c-6.145,0-6.232-4.304-6.232-7.757V179.78H274.568z"/>
		<path d="M297.777,179.78c1.846,0,3.162,0.263,4.188,0.994c1.055,0.763,2.047,2.256,2.047,4.565c0,3.543-2.164,4.687-3.014,5.124
			l3.717,8.84h-3.482l-3.072-8.166h-3.045v8.166h-3.219V179.78H297.777z M295.115,182.268v6.381h2.488
			c2.311,0,3.219-1.404,3.219-3.336c0-3.045-2.518-3.045-3.191-3.045H295.115z"/>
		<path d="M322.891,179.78v2.576h-7.932v5.618h6.234v2.577h-6.234v6.117h8.078v2.635h-11.299V179.78H322.891z"/>
		<path d="M330.646,195.616v3.688h-3.25v-3.688H330.646z"/>
		<path d="M359.359,185.107c-0.615-1.814-1.436-3.016-3.455-3.016c-2.078,0-2.664,1.581-2.664,2.461
			c0,1.756,1.582,2.341,3.893,3.248c2.256,0.848,5.475,2.077,5.475,5.941c0,2.811-1.99,5.913-6.557,5.913
			c-5.473,0-6.439-4.127-6.762-5.444l2.869-0.82c0.203,0.88,0.789,3.601,3.98,3.601c2.693,0,3.162-1.901,3.162-2.81
			c0-1.846-1.582-2.546-3.338-3.191c-2.166-0.818-3.074-1.17-4.127-2.076c-0.908-0.791-1.756-2.168-1.756-3.983
			c0-2.663,1.873-5.502,6-5.502c4.594,0,5.619,3.366,6.029,4.715L359.359,185.107z"/>
		<path d="M383.213,189.557c0,4.011-0.908,10.099-6.965,10.099c-5.857,0-7.057-5.561-7.057-10.099
			c0-4.478,1.172-10.128,7.025-10.128C382.043,179.429,383.213,184.991,383.213,189.557z M373.379,184.083
			c-0.732,1.667-0.793,4.272-0.793,5.474c0,1.172,0.09,3.775,0.793,5.444c0.555,1.259,1.316,1.99,2.869,1.99
			c1.637,0,2.34-0.994,2.779-1.99c0.732-1.727,0.789-4.392,0.789-5.444c0-1.346-0.088-3.835-0.789-5.474
			c-0.439-0.967-1.111-1.991-2.811-1.991C374.549,182.092,373.846,183.03,373.379,184.083z"/>
		<path d="M393.895,179.78v16.8h6.908v2.724h-10.127V179.78H393.895z"/>
		<path d="M410.053,179.78v12.118c0,2.605,0,5.093,3.248,5.093c3.189,0,3.189-2.342,3.189-5.149V179.78h2.898v11.913
			c0,2.84-0.059,5.298-2.02,6.762c-0.762,0.556-1.961,1.2-4.244,1.2c-6.146,0-6.234-4.304-6.234-7.757V179.78H410.053z"/>
		<path d="M436.918,179.78v2.753h-4.361v16.771h-3.219v-16.771h-4.303v-2.753H436.918z"/>
		<path d="M445.963,179.78v19.523h-3.219V179.78H445.963z"/>
		<path d="M467.506,189.557c0,4.011-0.906,10.099-6.967,10.099c-5.854,0-7.053-5.561-7.053-10.099c0-4.478,1.17-10.128,7.025-10.128
			C466.336,179.429,467.506,184.991,467.506,189.557z M457.672,184.083c-0.732,1.667-0.791,4.272-0.791,5.474
			c0,1.172,0.088,3.775,0.791,5.444c0.557,1.259,1.316,1.99,2.867,1.99c1.639,0,2.344-0.994,2.781-1.99
			c0.732-1.727,0.791-4.392,0.791-5.444c0-1.346-0.09-3.835-0.791-5.474c-0.438-0.967-1.111-1.991-2.809-1.991
			C458.842,182.092,458.139,183.03,457.672,184.083z"/>
		<path d="M478.656,179.78l6.441,14.079V179.78h2.691v19.523h-3.014l-7.23-15.631v15.631h-2.693V179.78H478.656z"/>
		<path d="M504.678,185.107c-0.615-1.814-1.436-3.016-3.455-3.016c-2.078,0-2.664,1.581-2.664,2.461
			c0,1.756,1.582,2.341,3.893,3.248c2.254,0.848,5.475,2.077,5.475,5.941c0,2.811-1.99,5.913-6.557,5.913
			c-5.473,0-6.439-4.127-6.762-5.444l2.867-0.82c0.207,0.88,0.791,3.601,3.982,3.601c2.693,0,3.16-1.901,3.16-2.81
			c0-1.846-1.58-2.546-3.336-3.191c-2.166-0.818-3.074-1.17-4.127-2.076c-0.908-0.791-1.756-2.168-1.756-3.983
			c0-2.663,1.873-5.502,6-5.502c4.594,0,5.619,3.366,6.029,4.715L504.678,185.107z"/>
		<path d="M516.207,195.616v3.688h-3.248v-3.688H516.207z"/>
	</g>
</g>
<g>
	<path fill="#FFFFFF" d="M194.534,22.975l-2.949-4.497l-1.541-1.974c-0.046-0.046-4.213-3.861-8.018-5.328
		c-2.51-0.963-3.531-2.253-3.542-2.266c-0.006-0.009-0.545-0.755-0.338-1.496c0.127-0.46,0.51-0.824,1.139-1.083
		c13.542-5.51,30.646-7.345,48.162-5.172c27.188,1.236,51.516,12.751,65.086,30.792c5.188,1.235,13.014,3.781,18.111,6.959
		c5.635,3.509,9.936,7.811,10,10.007c0.016,0.44-0.146,0.786-0.482,1.023l-2.529,1.56c-2.314,1.355-4.934,2.895-5.422,4.215
		c-0.676,1.848-3.328,6.314-5.881,6.387c-1.021,0.029-2.969,1.81-3.539,2.354c-0.018,0.038,0.059,2.168,0.059,2.168l-0.014,3.076
		c-0.002,0.008-0.361,6.411-0.361,6.411c-1.086,17.52-5.322,33.56-12.582,47.68c-7.936,15.441-20.34,30.312-34.031,40.797
		c-4.343,3.754-8.212,6.529-10.094,7.252c-0.697,0.27-1.16,0.275-1.422,0.021c-0.807-0.782,0.354-4.046,1.953-8.56
		c2.67-7.534,6.707-18.917,5.184-29.045c-1.331-8.856-1.26-12.852,0.256-14.259c1.236-1.145,3.504-0.626,6.635,0.089l2.502,0.556
		c5.494,1.123,10.277,2.998,10.324,3.015c0.016,0.007,1.369,0.485,2.965,1.657c0.008,0.005,0.541,0.4,0.973,0.053
		c0.32-0.256,0.252-1.229,0.178-2.252l-0.059-1.023l-0.006-0.426c-0.012,0-0.006,0.073-0.012,0.088
		c-0.008-0.105-0.021-0.152-0.047-0.152c-0.059,0-0.059,0-0.047,0.496c0,0,0.07,1.217,0.078,1.316
		c-0.572-11.135-20.547-38.834-37.99-56.207c-9.761-9.728-20.307-18.028-29.693-23.381c-0.012-0.004-0.348-0.105-0.348-0.105
		c-5.571-2.897-10.843-5.645-16.263-9.076c-4.809-3.05-9.38-7.396-9.575-7.577c-0.021-0.023-2.358-2.37-2.469-6.161
		c-0.032-1.168,0.22-1.971,0.757-2.376c0.626-0.479,1.441-0.237,1.448-0.232c-0.003,0.017,2.708,3.952,4.93,5.728
		c4.32,3.454,9.301,4.51,9.352,4.523C195.442,28.497,196.398,26.422,194.534,22.975z"/>
	<circle fill="#231F20" cx="199.292" cy="15.145" r="1.838"/>
	<path fill="#231F20" d="M181.113,18.249c0,0,2.703,3.947,4.946,5.74c4.36,3.483,9.325,4.51,9.325,4.51s0.979-2.027-0.894-5.492
		c-1.172-2.17-3.046-4.676-3.046-4.676L181.113,18.249z"/>
	<path fill="#231F20" d="M239.343,63.144c-6.49-6.463-13.177-11.928-19.631-16.289c3.442-0.343,8.461-1.358,12.128-4.338
		c6.11-4.959,6.727-9.022,6.727-9.022s-0.8-2.183-4.022,0.852c-3.221,3.038-8.973,7.615-17.47,6.394
		c-8.494-1.224-17.529-8.317-17.529-8.317s-4.839,0.167-8.753-1.467c-3.905-1.632-7.953-5.44-7.953-5.44
		c-0.438-0.421-1.136-0.402-1.56,0.038c-0.417,0.44-0.401,1.139,0.04,1.559c0.193,0.185,4.806,4.556,9.583,7.583
		c5.423,3.435,10.696,6.18,16.275,9.084l0.338,0.104c9.044,5.153,19.484,13.206,29.683,23.367
		c17.995,17.924,37.477,45.521,38.09,56.209C277.301,111.904,258.412,82.142,239.343,63.144z"/>
	<path fill="#231F20" d="M195.142,17.843c-0.157,0.204-0.152,0.488,0.012,0.688c1.481,1.782,2.78,3.967,3.76,6.305l1.403,4.416
		c0.078,0.246,0.319,0.426,0.577,0.407c0.254-0.019,0.468-0.19,0.507-0.442c0.073-0.493,0.104-1.012,0.088-1.548
		c-0.041-1.415-0.394-2.956-1.023-4.471c-1.045-2.504-2.703-4.444-4.452-5.354c-0.002-0.005-0.005-0.01-0.011-0.016
		c0,0,0,0.006,0.006,0.011c-0.069-0.038-0.125-0.127-0.192-0.157C195.578,17.57,195.3,17.638,195.142,17.843z"/>
	<path fill="#231F20" d="M310.68,38.865c-5.061-3.151-12.781-5.691-18.1-6.943c4.24,7.786,7.352,16.294,8.992,25.338
		c-8.221-22.724-25.807-40.827-47.955-49.894c-0.639-0.228-1.271-0.463-1.9-0.669c0.103,0.016,0.214,0.04,0.32,0.053
		c-4.576-1.562-9.359-2.89-14.321-3.939C215.871-1.798,195-0.117,179.271,6.286c-2.134,0.886-0.821,2.662-0.821,2.662
		s1.007,1.304,3.559,2.281c3.842,1.482,7.996,5.31,7.996,5.31s2.098-0.611,4.978-1.083l-0.002-0.005
		c-0.069-2.373,1.862-4.356,4.309-4.426c2.449-0.073,4.491,1.794,4.561,4.168c0.005,0.202-0.022,0.394-0.045,0.589l0.362,0.021
		c5.848,1.282,14.536,5.028,14.536,5.028s-0.063-2.206-7.165-6.044c-4.34-2.348-6.323-2.39-4.528-3.915
		c1.344-1.139,11.593-0.684,29.732,14.041c0.719-4.337-0.209-8.27-1.04-10.988c-1.292-4.234,1.019-3.983,1.019-3.983
		s3.37,2.355,5.106,10.027c0.689,3.046,0.338,6.23-0.322,8.988c1.625,1.437,3.312,3.004,5.049,4.676
		c2.959-0.388,6.293-0.38,9.797,0.161c7.752,1.192,14.02,4.53,16.586,8.326c0.217,0.22,0.383,0.455,0.484,0.709
		c0.006,0.013,0.014,0.023,0.023,0.039l-0.016-0.002c0.443,1.205-0.506,2.837-3.916,5.17c-0.135,0.093-0.258,0.171-0.393,0.26
		l-10.73-6.204l-0.113-0.01l8.291,7.821c-1.092,0.64-2.131,1.183-3.125,1.623l-9.996-5.778l7.213,6.804
		c-4.309,1.237-7.798,0.483-11.311-1.695l-0.102-0.021c17.979,14.275,31.219,38.729,32.113,65.457
		c8.898-15.671,10.17-41.945,2.059-66.753c-0.588-1.806-1.23-3.577-1.9-5.324l0.01-0.219c10.094,9.121,15.133,32.285,11.453,57.099
		c-2.957,19.935-10.723,34.219-19.846,42.068c-0.18,0.258-0.357,0.527-0.537,0.782l-14.945,13.698l15.459-18.327l-19.607,14.769
		l16.857-16.381l-15.666,6.784l14.424-9.321l-13.754,2.102l14.174-5.261l-14.869-1.306l16.896-2.093l-12.977-4.596l15.613,1.26
		c-1.625-1.187-2.979-1.662-2.979-1.662s-4.77-1.88-10.338-3.025c-9.014-1.849-12.189-4.499-9.456,13.684
		c2.737,18.182-12.405,40.218-5.642,37.624c1.901-0.727,5.725-3.473,10.109-7.258c11.756-9,25.012-23.24,34.049-40.818
		c8.557-16.642,11.697-33.397,12.588-47.699c0.387-4.041,0.486-7.942,0.293-11.625c1.244-1.266,2.541-2.304,3.51-2.33
		c2.574-0.075,5.252-4.567,5.934-6.427c0.68-1.86,5.76-4.212,7.922-5.744C322.361,48.457,317.357,43.025,310.68,38.865z"/>
	<path fill="#231F20" d="M350.607,41.192"/>
	<path fill="#231F20" d="M350.973,41"/>
</g>
</svg>
