<?xml version="1.0" encoding="utf-8"?>
<!-- Generator: Adobe Illustrator 15.1.0, SVG Export Plug-In . SVG Version: 6.00 Build 0)  -->
<!DOCTYPE svg PUBLIC "-//W3C//DTD SVG 1.0//EN" "http://www.w3.org/TR/2001/REC-SVG-20010904/DTD/svg10.dtd">
<svg version="1.0" xmlns="http://www.w3.org/2000/svg" xmlns:xlink="http://www.w3.org/1999/xlink" x="0px" y="0px" width="355px"
	 height="170px" viewBox="0 0 355 170" enable-background="new 0 0 355 170" xml:space="preserve">
<g id="Graphic_boundaries">
</g>
<g id="Layer_1">
	<g>
		<polygon fill="#9DCA4C" points="137,71.937 141.55,11.188 138.452,72.026 150.582,12.33 139.882,72.295 159.4,14.595 
			141.269,72.747 167.861,17.945 142.586,73.368 175.838,22.331 143.813,74.148 183.204,27.68 144.937,75.078 189.841,33.909 
			145.936,76.137 195.641,40.925 146.789,77.315 200.519,48.608 147.491,78.59 204.394,56.849 148.032,79.945 207.202,65.501 
			148.388,81.356 208.911,74.447 148.572,82.807 209.481,83.531 148.572,84.258 208.911,92.615 148.388,85.703 207.202,101.557 
			148.032,87.114 204.394,110.213 147.491,88.472 200.519,118.454 146.789,89.747 195.641,126.137 145.936,90.922 189.841,133.149 
			144.937,91.984 183.204,139.382 143.813,92.911 175.838,144.73 142.586,93.691 167.861,149.113 141.269,94.312 159.4,152.467 
			139.882,94.764 150.582,154.731 138.452,95.039 141.55,155.871 137,95.125 132.445,155.871 135.546,95.039 123.416,154.731 
			134.114,94.764 114.601,152.467 132.725,94.312 106.139,149.113 131.412,93.691 98.155,144.73 130.185,92.911 90.794,139.382 
			129.059,91.984 84.157,133.149 128.061,90.922 78.357,126.137 127.209,89.747 73.479,118.454 126.507,88.472 69.603,110.213 
			125.969,87.114 66.793,101.557 125.605,85.703 65.085,92.615 125.428,84.258 64.512,83.531 125.428,82.807 65.085,74.447 
			125.605,81.356 66.793,65.501 125.969,79.945 69.603,56.849 126.507,78.59 73.479,48.608 127.209,77.315 78.357,40.925 
			128.061,76.137 84.157,33.909 129.059,75.078 90.794,27.68 130.185,74.148 98.155,22.331 131.412,73.368 106.139,17.945 
			132.725,72.747 114.601,14.595 134.114,72.295 123.416,12.33 135.546,72.026 132.445,11.188 		"/>
	</g>
	<g>
		<path fill="#FFFFFF" d="M89.936,57.98l1.991-1.306l-2.062-3.145l-0.111-0.156l-1.072-1.379c-0.137-0.176-0.31-0.343-0.491-0.473
			l-1.373,1.913l1.5-1.815c-0.021-0.017-0.033-0.029-0.127-0.098l-1.373,1.913l1.5-1.815l-1.326,1.605l1.367-1.57l-0.041-0.035
			l-1.326,1.605l1.367-1.57l-0.234,0.27l0.236-0.268l-0.002-0.001l-0.234,0.27l0.236-0.268c-0.02-0.018-0.104-0.093-0.217-0.191
			c-0.403-0.351-1.244-1.064-2.312-1.824c-1.074-0.76-2.356-1.575-3.786-2.13l0,0c-0.642-0.247-1.051-0.518-1.283-0.698
			c-0.115-0.09-0.186-0.158-0.217-0.189l-0.02-0.02l-0.306,0.273l0.312-0.266l-0.006-0.007l-0.306,0.273l0.312-0.266l-0.004-0.005
			l-0.021-0.024l-0.037-0.042l-0.047-0.05l-0.128-0.123l-1.582,1.78l1.94-1.38L79.85,47.34l0.902-0.408l-0.1-0.164L79.85,47.34
			l0.902-0.408l-0.95,0.429h1.031c-0.007-0.285-0.062-0.376-0.081-0.429l-0.95,0.429h1.031h-1.466l1.406,0.408
			c0.045-0.155,0.06-0.297,0.06-0.408h-1.466l1.406,0.408l0.01-0.033l-1.39-0.381l0.994,1.052c0.142-0.126,0.322-0.388,0.396-0.671
			l-1.39-0.381l0.994,1.052l-0.683-0.723l0.518,0.851l0.165-0.128l-0.683-0.723l0.518,0.851l-0.269-0.442l0.229,0.464l0.039-0.022
			l-0.269-0.442l0.229,0.464l-0.09-0.182l0.082,0.185l0.008-0.003l-0.09-0.182l0.082,0.185l0.002,0l0.009-0.004
			c6.506-2.66,14.394-4.062,22.781-4.061c3.172,0,6.414,0.199,9.68,0.603l0.185,0.016c9.19,0.415,17.887,2.573,25.394,6.125
			c7.508,3.551,13.816,8.491,18.291,14.443c0.331,0.44,0.815,0.757,1.351,0.885c1.717,0.409,3.919,1.048,6.086,1.841
			c2.165,0.791,4.307,1.749,5.869,2.726l0.003,0.002c1.826,1.132,3.442,2.411,4.524,3.498c0.54,0.539,0.945,1.035,1.165,1.374
			c0.109,0.168,0.171,0.295,0.188,0.341l0.007,0.016l0.688-0.222l-0.716,0.018c0.005,0.143,0.027,0.203,0.027,0.204l0.688-0.222
			l-0.716,0.018l0.003,0.071l1.288-0.071h-1.29l0.002,0.071l1.288-0.071h-1.29h1.581l-1.391-0.739
			c-0.144,0.265-0.193,0.554-0.19,0.739h1.581l-1.391-0.739l1.421,0.755l-0.896-1.343c-0.169,0.109-0.386,0.32-0.525,0.588
			l1.421,0.755l-0.896-1.343l1.321,1.981l-1.255-2.024l-1.758,1.09l1.255,2.024l-1.209-2.052c-0.812,0.479-1.719,1.009-2.552,1.604
			c-0.418,0.301-0.82,0.617-1.204,1c-0.379,0.388-0.771,0.83-1.057,1.558l-0.012,0.031c-0.05,0.144-0.209,0.499-0.423,0.875
			c-0.317,0.571-0.78,1.23-1.183,1.634c-0.197,0.204-0.377,0.34-0.462,0.387l-0.042,0.023l-0.002,0l0.19,0.524l-0.018-0.551
			c-0.099,0.003-0.16,0.023-0.173,0.027l0.19,0.524l-0.018-0.551l0.021,0c-0.427,0.012-0.743,0.097-1.011,0.186
			c-0.464,0.162-0.799,0.354-1.111,0.549c-0.91,0.585-1.614,1.256-1.956,1.582c-0.468,0.457-0.73,1.097-0.718,1.751l0.028,1.501
			l-0.006,2.055l-0.248,4.417l0.001-0.014c-0.744,11.944-3.626,22.828-8.528,32.376l0.001-0.002
			c-5.369,10.451-13.854,20.634-23.118,27.714l-0.107,0.087c-1.475,1.271-2.863,2.373-4.009,3.195
			c-0.571,0.411-1.082,0.752-1.498,1.003c-0.41,0.252-0.74,0.413-0.857,0.456l0.861,2.221l-0.825-2.234l-0.048,0.017l0.003,0.01
			l-0.003-0.01l0,0l0.003,0.01l-0.003-0.01l0.255,1.03v-1.056c-0.162,0.001-0.236,0.022-0.255,0.025l0.255,1.03v-1.056v1.763
			l0.591-1.656c-0.248-0.088-0.455-0.106-0.591-0.106v1.763l0.591-1.656l-0.659,1.849l1.391-1.384
			c-0.206-0.211-0.484-0.38-0.731-0.465l-0.659,1.849l1.391-1.384l-0.034-0.033l-1.255,1.299l1.742-0.51
			c-0.053-0.185-0.189-0.503-0.487-0.789l-1.255,1.299l1.742-0.51l-0.988,0.289h1.038c-0.001-0.013,0.005-0.098-0.05-0.289
			l-0.988,0.289h1.038l0.002-0.019c0.004-0.067,0.033-0.271,0.1-0.543c0.197-0.836,0.7-2.271,1.314-3.977l0.003-0.011
			c0.788-2.229,1.773-5.012,2.568-8.061c0.794-3.052,1.404-6.376,1.406-9.749c0-1.214-0.08-2.435-0.265-3.649l0.001,0.008
			c-0.425-2.853-0.626-4.935-0.624-6.291c-0.002-0.76,0.067-1.285,0.134-1.536l0.042-0.138l0.016-0.038l-0.062-0.03l0.06,0.035
			l0.003-0.005l-0.062-0.03l0.06,0.035l-0.52-0.306l0.409,0.438l0.11-0.132l-0.52-0.306l0.409,0.438l-0.013,0.011l-0.481-0.523
			l0.21,0.688c0.043-0.01,0.177-0.072,0.271-0.164l-0.481-0.523l0.21,0.688l-0.061-0.197l0.042,0.202l0.019-0.005l-0.061-0.197
			l0.042,0.202c0,0,0.051-0.01,0.154-0.009c0.188-0.002,0.537,0.034,0.987,0.119c0.451,0.083,1.005,0.211,1.635,0.358l0.042,0.009
			l1.746,0.375l0.024,0.006c1.804,0.367,3.527,0.867,4.787,1.275c0.63,0.204,1.146,0.385,1.498,0.514
			c0.176,0.064,0.312,0.115,0.398,0.148l0.087,0.034l0.004,0.001l0.513-1.256l-0.537,1.246l0.024,0.01l0.513-1.256l-0.537,1.246
			l0.863-2.002l-0.918,1.978l0.055,0.024l0.863-2.002l-0.918,1.978l0.982-2.117l-1.057,2.081l0.074,0.036l0.982-2.117l-1.057,2.081
			l1.074-2.116l-1.316,1.975c0.16,0.104,0.198,0.117,0.242,0.142l1.074-2.116l-1.316,1.975c0.166,0.11,0.355,0.204,0.544,0.27
			l0.487-1.412l-0.507,1.405l0.02,0.007l0.487-1.412l-0.507,1.405l0.001,0.001c0.048,0.016,0.716,0.28,1.438,0.822l0.037,0.027
			c0.09,0.063,0.251,0.176,0.522,0.3c0.271,0.118,0.662,0.272,1.262,0.278c0.264,0.001,0.567-0.036,0.881-0.139
			c0.312-0.101,0.629-0.27,0.896-0.485l-1.49-1.857l1.464,1.879c0.4-0.314,0.627-0.671,0.764-0.952
			c0.201-0.43,0.248-0.736,0.286-0.994c0.032-0.258,0.038-0.47,0.039-0.668c-0.001-0.373-0.025-0.7-0.044-0.997l-0.001-0.002
			l-0.043-0.656l-0.005-0.242c-0.024-1.236-0.994-2.25-2.228-2.33c-1.233-0.079-2.325,0.802-2.509,2.023l-0.009,0.059l2.355,0.354
			l2.359-0.327l-0.015-0.105c-0.164-1.175-1.174-2.055-2.359-2.055c-0.012,0.008-0.136-0.022-0.547,0.06
			c-0.152,0.033-0.346,0.093-0.556,0.197c-0.371,0.177-0.75,0.528-0.948,0.854c-0.156,0.244-0.235,0.459-0.285,0.624
			c-0.071,0.249-0.084,0.401-0.094,0.513c-0.009,0.11-0.01,0.182-0.01,0.24c0.001,0.146,0.006,0.225,0.011,0.34l0.002,0.041
			l0.056,0.922c0.078,1.306,1.203,2.308,2.51,2.234c1.306-0.073,2.312-1.193,2.246-2.5c-0.07-1.301-0.393-2.637-0.881-4.074
			c-0.86-2.509-2.259-5.327-4.04-8.375c-5.348-9.12-14.173-20.257-22.329-28.386l0.002,0.002
			c-6.956-6.94-14.45-12.852-21.254-16.725c-0.149-0.085-0.283-0.144-0.447-0.197l-0.255-0.082l-0.729,2.267l1.1-2.113
			c-3.891-2.024-7.502-3.904-11.179-6.238l-0.001,0c-1.541-0.976-3.116-2.213-4.299-3.211c-0.593-0.499-1.089-0.939-1.441-1.259
			c-0.177-0.16-0.317-0.289-0.416-0.381l-0.114-0.108l-0.031-0.03l-0.008-0.007l-0.097,0.102l0.098-0.101l-0.001,0l-0.097,0.102
			l0.098-0.101l-1.658,1.71l1.905-1.429c-0.09-0.117-0.103-0.125-0.123-0.15l-0.053-0.058l-0.043-0.048
			c-0.09-0.104-0.352-0.431-0.581-0.904c-0.231-0.476-0.43-1.081-0.454-1.798l-2.38,0.079l2.381-0.043v-0.051
			c0-0.1,0.006-0.17,0.011-0.204l0.004-0.023l-0.272-0.055l0.262,0.09l0.011-0.036l-0.272-0.055l0.262,0.09l-1.11-0.384l0.697,0.918
			c0.263-0.196,0.391-0.456,0.413-0.534l-1.11-0.384l0.697,0.918l0.03-0.023l-0.87-1.107l0.387,1.355
			c0.144-0.04,0.324-0.122,0.483-0.248l-0.87-1.107l0.387,1.355l-0.336-1.177v1.226c0.081,0,0.19-0.008,0.336-0.049l-0.336-1.177
			v1.226v-1.252l-0.387,1.183c0.155,0.047,0.216,0.064,0.387,0.069v-1.252l-0.387,1.183l0.739-2.264l-1.963,1.349
			c0.021,0.029,0.518,0.753,1.236,1.661c0.36,0.455,0.775,0.956,1.225,1.446c0.452,0.491,0.93,0.971,1.469,1.402l-0.002-0.001
			c1.769,1.409,3.6,2.29,5.011,2.841c0.705,0.275,1.308,0.465,1.749,0.591c0.221,0.063,0.401,0.109,0.537,0.142l0.176,0.04
			l0.08,0.017l0.067,0.012l0.077,0.012l0.089,0.01c0.045,0.004,0.095,0.01,0.233,0.012c0.403,0,0.814-0.108,1.166-0.305
			c0.32-0.186,0.441-0.319,0.543-0.417c0.18-0.189,0.236-0.283,0.293-0.365c0.096-0.147,0.137-0.232,0.181-0.32
			c0.135-0.287,0.221-0.551,0.297-0.897c0.074-0.34,0.122-0.739,0.122-1.191c0.003-1.069-0.283-2.425-1.087-3.905l-0.104-0.173
			L89.936,57.98l-2.095,1.133c0.459,0.854,0.511,1.38,0.514,1.639l-0.009,0.151l-0.007,0.04l0.577,0.137l-0.546-0.226l-0.031,0.089
			l0.577,0.137l-0.546-0.226l1.569,0.65l-1.481-0.829c-0.053,0.095-0.071,0.141-0.088,0.179l1.569,0.65l-1.481-0.829l1.904,1.065
			l-1.766-1.281c-0.077,0.107-0.11,0.167-0.139,0.216l1.904,1.065l-1.766-1.281l1.878,1.363l-1.695-1.585
			c-0.093,0.1-0.143,0.167-0.183,0.222l1.878,1.363l-1.695-1.585l1.729,1.616l-1.158-2.063c-0.355,0.208-0.469,0.348-0.57,0.447
			l1.729,1.616l-1.158-2.063l1.166,2.077v-2.382v2.376l0.232-2.365c-0.045-0.004-0.095-0.01-0.232-0.012v2.376l0.232-2.365
			l-0.227,2.302l0.404-2.278c-0.029-0.004-0.03-0.008-0.178-0.024l-0.227,2.302l0.404-2.278l-0.271,1.527l0.316-1.518l-0.046-0.009
			l-0.271,1.527l0.316-1.518c0,0-0.231-0.052-0.566-0.152c-1.021-0.298-3.151-1.093-4.937-2.529l-0.002-0.001
			c-0.24-0.19-0.584-0.521-0.925-0.895c-0.517-0.563-1.044-1.226-1.429-1.737c-0.193-0.255-0.352-0.474-0.46-0.625l-0.123-0.174
			l-0.029-0.042l-0.007-0.01c-0.294-0.428-0.73-0.754-1.224-0.915c-0.155-0.047-0.513-0.162-1.092-0.166
			c-0.274,0-0.603,0.03-0.973,0.135c-0.367,0.104-0.777,0.292-1.151,0.587l1.472,1.873l-1.441-1.896
			c-0.628,0.474-1.02,1.136-1.215,1.729c-0.201,0.602-0.254,1.164-0.257,1.721l0.002,0.138l0.001,0.036
			c0.061,1.802,0.64,3.245,1.197,4.233c0.28,0.496,0.558,0.884,0.777,1.163c0.109,0.139,0.205,0.251,0.278,0.333l0.09,0.099
			l0.021,0.022l1.25-1.17l-1.261,1.158l0.011,0.012l1.25-1.17l-1.261,1.158l1.681-1.544l-1.709,1.513l0.028,0.031l1.681-1.544
			l-1.709,1.513l1.774-1.571l-1.896,1.422c0.09,0.117,0.102,0.125,0.121,0.149l1.774-1.571l-1.896,1.422
			c0.084,0.112,0.146,0.183,0.247,0.281c0.04,0.038,0.104,0.099,0.221,0.208c0.807,0.748,3.673,3.368,6.854,5.391l-0.001,0
			c3.894,2.471,7.647,4.419,11.532,6.442c0.125,0.065,0.236,0.111,0.37,0.154l0.255,0.082l0.729-2.267l-1.177,2.07
			c6.304,3.581,13.552,9.271,20.242,15.955l0.002,0.002c5.97,5.939,12.445,13.732,17.417,20.928c2.486,3.596,4.6,7.048,6.084,10.006
			c0.742,1.477,1.326,2.83,1.723,3.992c0.398,1.158,0.601,2.131,0.63,2.777c0.033,0.635,0.313,1.225,0.787,1.649
			c0.474,0.426,1.089,0.642,1.725,0.606c0.635-0.035,1.223-0.319,1.646-0.794c0.423-0.476,0.637-1.093,0.598-1.728l-0.056-0.922
			l-2.377,0.144l2.379-0.103l-0.005-0.123v-0.024l-0.546,0.013h0.546v-0.013l-0.546,0.013h0.546h-1.917l1.898,0.254
			c0.021-0.168,0.017-0.227,0.019-0.254h-1.917l1.898,0.254l-2.27-0.303l2.085,0.944c0.14-0.316,0.165-0.516,0.185-0.642
			l-2.27-0.303l2.085,0.944l-2.141-0.97l1.557,1.76c0.287-0.252,0.48-0.558,0.584-0.79l-2.141-0.97l1.557,1.76l-1.561-1.765
			l0.881,2.185c0.217-0.086,0.468-0.23,0.68-0.42l-1.561-1.765l0.881,2.185l-0.872-2.163l0.179,2.326
			c0.128-0.012,0.362-0.032,0.693-0.163l-0.872-2.163l0.179,2.326l-0.172-2.229l0.039,2.234l0.133-0.006l-0.172-2.229l0.039,2.234
			l-0.031-1.806v1.807l0.031-0.001l-0.031-1.806v1.807v-2.382l-2.359,0.327l0.015,0.105c0.163,1.175,1.16,2.048,2.347,2.055
			c1.186,0.006,2.192-0.855,2.368-2.028l0.009-0.059l-2.355-0.354l-2.381,0.047l0.006,0.297l0.005,0.109l0.047,0.711l-0.001-0.002
			c0.021,0.299,0.035,0.556,0.034,0.688l-0.002,0.076l1.074,0.079l-1.02-0.323c-0.058,0.19-0.053,0.244-0.055,0.244l1.074,0.079
			l-1.02-0.323l1.787,0.566l-1.605-0.965c-0.103,0.171-0.151,0.304-0.182,0.398l1.787,0.566l-1.605-0.965l1.809,1.087l-1.296-1.664
			c-0.25,0.195-0.412,0.408-0.513,0.577l1.809,1.087l-1.296-1.664l-0.026,0.021l1.207,1.505l-0.597-1.834
			c-0.216,0.068-0.436,0.188-0.61,0.329l1.207,1.505l-0.597-1.834l0.593,1.821v-1.916c-0.169-0.001-0.376,0.023-0.593,0.095
			l0.593,1.821v-1.916v1.704l0.707-1.557c-0.127-0.053-0.319-0.142-0.707-0.147v1.704l0.707-1.557l-0.7,1.542l0.986-1.374
			c-0.09-0.063-0.16-0.109-0.286-0.168l-0.7,1.542l0.986-1.374l-1.389,1.935l1.426-1.907c-1.394-1.038-2.562-1.447-2.717-1.504
			l-0.777,2.251l1.321-1.981c-0.11-0.072-0.157-0.096-0.196-0.118l-0.124-0.062l-0.117-0.051c-0.079-0.032-0.166-0.066-0.306-0.119
			c-0.95-0.357-3.9-1.415-7.327-2.116l-0.476,2.334l0.5-2.328l-1.746-0.375l-0.5,2.328l0.542-2.319
			c-0.635-0.147-1.244-0.29-1.85-0.403c-0.605-0.111-1.206-0.197-1.856-0.199c-0.476,0.001-0.985,0.048-1.525,0.212
			c-0.536,0.16-1.102,0.458-1.564,0.888l-0.012,0.011c-0.354,0.33-0.636,0.719-0.846,1.116c-0.315,0.601-0.487,1.217-0.596,1.86
			c-0.107,0.645-0.148,1.324-0.149,2.081c0.002,1.788,0.237,4.022,0.676,6.99l0.001,0.008c0.144,0.948,0.21,1.931,0.21,2.935
			c0.002,2.789-0.52,5.745-1.251,8.548c-0.731,2.805-1.664,5.449-2.45,7.676l0.003-0.011c-0.437,1.222-0.834,2.327-1.139,3.313
			c-0.152,0.494-0.282,0.959-0.381,1.415c-0.098,0.458-0.172,0.899-0.175,1.417c0.002,0.307,0.025,0.646,0.142,1.05
			c0.115,0.397,0.348,0.885,0.775,1.298l1.654-1.713l-1.688,1.68c0.293,0.299,0.676,0.533,1.045,0.662
			c0.37,0.132,0.716,0.171,1.01,0.171c0.616-0.008,1.041-0.144,1.443-0.286l0.036-0.015c0.542-0.212,1.044-0.485,1.605-0.823
			c1.657-1.01,3.793-2.64,6.146-4.662l-1.555-1.805l1.447,1.892c9.879-7.568,18.726-18.19,24.46-29.317l0.001-0.002
			c5.229-10.186,8.265-21.731,9.044-34.256l0.001-0.014l0.252-4.48l0.004-0.127l0.006-2.145l-0.001-0.052l-0.029-1.527l-2.381,0.046
			l1.663,1.705c0.137-0.135,0.531-0.498,0.883-0.761c0.173-0.132,0.34-0.239,0.408-0.273l0.025-0.013l-0.486-1.087l0.025,1.169
			c0.37-0.018,0.455-0.087,0.461-0.082l-0.486-1.087l0.025,1.169l0.021,0c0.564-0.018,1.076-0.154,1.516-0.338
			c0.772-0.328,1.354-0.785,1.862-1.264c0.754-0.724,1.341-1.529,1.821-2.298c0.479-0.776,0.832-1.481,1.071-2.13l-2.239-0.812
			l2.228,0.842l-0.795-0.3l0.693,0.501c0.007-0.011,0.05-0.066,0.102-0.201l-0.795-0.3l0.693,0.501l-0.021-0.015l0.021,0.016v-0.001
			l-0.021-0.015l0.021,0.016c0.019-0.044,0.418-0.411,0.96-0.767c0.545-0.369,1.233-0.776,1.917-1.179l0.046-0.028l1.758-1.09
			l0.066-0.042c0.394-0.259,0.783-0.654,1.038-1.14c0.26-0.483,0.369-1.024,0.366-1.496l-0.005-0.191l-2.378,0.131l2.381-0.06
			c-0.017-0.573-0.152-1.043-0.319-1.465c-0.299-0.734-0.712-1.352-1.207-1.979c-0.744-0.932-1.691-1.861-2.805-2.794
			c-1.113-0.93-2.39-1.854-3.774-2.714l0.003,0.002c-2.003-1.246-4.382-2.287-6.751-3.157c-2.368-0.867-4.714-1.548-6.618-2.002
			l-0.553,2.317l1.903-1.432c-5.009-6.658-11.947-12.046-20.062-15.885c-8.116-3.839-17.418-6.134-27.215-6.578l-0.107,2.379
			l0.292-2.364c-3.457-0.426-6.893-0.638-10.264-0.638c-8.914,0.002-17.376,1.474-24.582,4.415l0.009-0.004
			c-0.428,0.174-0.869,0.417-1.278,0.802c-0.407,0.378-0.766,0.927-0.927,1.53l2.297,0.63l-2.287-0.664
			c-0.095,0.326-0.13,0.64-0.13,0.919c0.007,0.706,0.192,1.19,0.342,1.532c0.155,0.341,0.298,0.547,0.36,0.636
			c0.1,0.14,0.229,0.285,0.358,0.399l1.58-1.778l-1.708,1.656l0.128,0.122l1.58-1.778l-1.708,1.656l1.688-1.636l-1.777,1.537
			l0.09,0.099l1.688-1.636l-1.777,1.537l1.466-1.268l-1.476,1.257l0.01,0.011l1.466-1.268l-1.476,1.257l0.109,0.125
			c0.393,0.432,1.452,1.42,3.324,2.137l0,0c0.967,0.363,2.251,1.186,3.215,1.917c0.485,0.365,0.901,0.705,1.194,0.952
			c0.146,0.124,0.261,0.224,0.341,0.294l0.095,0.084l0.036,0.032l0.03,0.026l0.035,0.03c0.022,0.018,0.035,0.031,0.13,0.1
			l1.389-1.935l-1.88,1.462l1.014,1.303l2.01,3.064L89.936,57.98l-2.095,1.133L89.936,57.98z"/>
		<path fill="#FFFFFF" d="M94.547,52.469l2.38-0.088c-0.036-0.981-0.462-1.873-1.112-2.503c-0.647-0.633-1.554-1.037-2.544-1.037
			l-0.123,0.002l0.017,0c-0.978,0.024-1.891,0.443-2.532,1.104c-0.645,0.657-1.041,1.578-1.04,2.558l0.003,0.125v-0.002
			c0.064,1.974,1.687,3.545,3.668,3.545l0.101-0.001h-0.012c1-0.02,1.918-0.457,2.551-1.12c0.637-0.661,1.026-1.57,1.026-2.549
			l-0.001-0.089l-0.001-0.032L94.547,52.469l-2.381,0.057l1.001-0.024h-1.001v0.024l1.001-0.024h-1.001h1.087l-0.783-0.753
			c-0.188,0.194-0.304,0.467-0.304,0.753h1.087l-0.783-0.753l0.801,0.771l-0.024-1.111c-0.299,0.004-0.593,0.144-0.776,0.34
			l0.801,0.771l-0.024-1.111h-0.012l0.028,1.04v-1.04h-0.028l0.028,1.04v-1.04v1.096l1.092-0.036
			c-0.019-0.591-0.508-1.06-1.092-1.06v1.096l1.092-0.036v-0.002l-1.104,0.038h1.104l-0.001-0.038l-1.104,0.038h1.104h-1.104
			l0.789,0.77c0.194-0.195,0.316-0.485,0.314-0.77h-1.104l0.789,0.77l-0.777-0.758l0.029,1.089c0.271-0.005,0.558-0.131,0.748-0.331
			l-0.777-0.758l0.029,1.089l0.017,0l-0.039-1.137v1.137l0.039,0l-0.039-1.137v1.137v-1.112l-0.777,0.8
			c0.186,0.183,0.467,0.312,0.777,0.312v-1.112l-0.777,0.8l0.753-0.774l-1.079,0.04c0.01,0.285,0.137,0.553,0.326,0.734l0.753-0.774
			l-1.079,0.04L94.547,52.469l-2.381,0.057L94.547,52.469z"/>
		<path fill="#FFFFFF" d="M80.549,54.676l-1.96,1.353c0.02,0.028,0.519,0.751,1.239,1.659c0.36,0.455,0.776,0.956,1.226,1.447
			c0.452,0.492,0.931,0.973,1.466,1.405l0.001,0.001c1.78,1.427,3.622,2.309,5.034,2.856c1.413,0.545,2.404,0.752,2.502,0.772
			c1.071,0.219,2.156-0.322,2.627-1.309c0.122-0.254,0.406-0.978,0.405-2.068c0.004-1.05-0.274-2.415-1.086-3.914l-0.001-0.002
			c-0.48-0.887-1.049-1.752-1.506-2.422c-0.457-0.667-0.802-1.127-0.815-1.146c-0.443-0.592-1.148-0.949-1.888-0.955l-7.225-0.059
			c-0.889-0.007-1.708,0.48-2.124,1.266c-0.416,0.785-0.36,1.737,0.145,2.468L80.549,54.676l-0.02,2.381l7.225,0.059l0.02-2.381
			l-1.907,1.427l0.01,0.013c0.06,0.08,0.379,0.513,0.768,1.084c0.388,0.569,0.847,1.286,1.167,1.882l-0.001-0.002
			c0.466,0.872,0.513,1.396,0.517,1.654c0,0.134-0.017,0.2-0.018,0.204l0.961,0.238l-0.887-0.422
			c-0.061,0.128-0.074,0.185-0.074,0.185l0.961,0.238l-0.887-0.422l2.15,1.024l0.477-2.333l-0.002,0
			c-0.1-0.021-0.888-0.204-1.944-0.63c-1.058-0.424-2.379-1.094-3.561-2.045l0.001,0.001c-0.247-0.197-0.593-0.532-0.937-0.909
			c-0.521-0.568-1.05-1.232-1.437-1.744c-0.194-0.256-0.354-0.475-0.462-0.626l-0.124-0.174l-0.029-0.042l-0.007-0.01L80.549,54.676
			l-0.02,2.381L80.549,54.676z"/>
		<path fill="#FFFFFF" d="M121.248,86.047l1.679-1.689c-4.646-4.616-9.417-8.53-14.065-11.661l-1.33,1.975l0.238,2.37
			c1.322-0.134,2.949-0.394,4.652-0.927c1.7-0.535,3.49-1.342,5.084-2.633l-0.002,0.001c2.354-1.907,3.738-3.721,4.529-5.132
			c0.793-1.41,0.988-2.408,1.025-2.661c0.06-0.399,0.02-0.794-0.119-1.173c-0.075-0.188-0.228-0.596-0.687-1.089
			c-0.229-0.242-0.549-0.501-0.962-0.696c-0.411-0.196-0.912-0.313-1.407-0.311c-0.692,0-1.337,0.204-1.916,0.508
			c-0.584,0.307-1.128,0.719-1.703,1.258l-0.004,0.004c-0.925,0.875-2.108,1.877-3.539,2.646c-1.436,0.769-3.087,1.309-5.071,1.312
			c-0.514,0-1.052-0.037-1.617-0.119l-0.005-0.001c-1.223-0.173-2.56-0.58-3.855-1.111c-1.946-0.795-3.797-1.863-5.136-2.726
			c-0.67-0.431-1.214-0.811-1.584-1.078c-0.186-0.134-0.328-0.24-0.421-0.31l-0.102-0.078l-0.021-0.017l-0.004-0.002l-0.548,0.702
			l0.55-0.701l-0.002-0.001l-0.548,0.702l0.55-0.701c-0.441-0.346-0.984-0.524-1.545-0.507l0.008,0.25l-0.006-0.25h-0.002
			l0.008,0.25l-0.006-0.25c-0.013,0-0.069,0.001-0.162,0.001c-0.332,0-1.135-0.017-2.079-0.138c-0.943-0.118-2.028-0.351-2.888-0.71
			l0.006,0.002c-1.036-0.427-2.317-1.279-3.27-2.018c-0.479-0.369-0.885-0.709-1.165-0.952c-0.14-0.121-0.248-0.218-0.319-0.283
			l-0.078-0.071l-0.017-0.015l-0.001-0.001l-1.63,1.736l1.682-1.687c-0.609-0.609-1.431-0.915-2.209-0.911
			c-0.837-0.001-1.68,0.338-2.295,0.988l-0.006,0.006c-0.557,0.59-0.86,1.374-0.858,2.161c-0.007,0.833,0.352,1.7,1.005,2.3
			l-0.007-0.006c0.005,0.004,0.085,0.08,0.196,0.184c0.811,0.748,3.686,3.379,6.848,5.39l0.004,0.002
			c3.899,2.463,7.644,4.415,11.552,6.447c0.125,0.065,0.287,0.13,0.422,0.17l0.237,0.07l0.677-2.284l-1.181,2.068
			c6.079,3.469,13.251,8.979,20.241,15.954l0.001,0.001c6.158,6.13,12.642,14,17.58,21.191c2.469,3.593,4.555,7.021,6.018,9.938
			c0.731,1.456,1.307,2.785,1.698,3.919c0.394,1.13,0.593,2.072,0.623,2.677c0.068,1.206,1.035,2.173,2.24,2.243
			c1.205,0.069,2.276-0.779,2.484-1.969c0.097-0.556,0.139-1.122,0.139-1.698c-0.002-1.386-0.239-2.837-0.643-4.379
			c-0.71-2.695-1.943-5.675-3.562-8.855c-4.86-9.519-13.209-20.829-21.719-29.316l-0.002-0.002L121.248,86.047l-1.681,1.688
			c6.183,6.155,12.407,14.057,17.024,21.429c2.31,3.684,4.219,7.238,5.525,10.336c0.653,1.548,1.155,2.982,1.486,4.242
			c0.332,1.259,0.487,2.347,0.485,3.169c0,0.342-0.025,0.637-0.068,0.88l2.347,0.409l2.378-0.135
			c-0.075-1.264-0.396-2.559-0.877-3.963c-0.849-2.447-2.223-5.222-3.981-8.242c-5.277-9.037-14.043-20.239-22.455-28.625
			l0.001,0.001c-7.26-7.236-14.695-12.976-21.243-16.718c-0.149-0.085-0.339-0.166-0.504-0.215l-0.237-0.07l-0.677,2.284
			l1.099-2.113c-3.908-2.03-7.512-3.915-11.206-6.248l0.004,0.002c-1.527-0.966-3.102-2.204-4.286-3.205
			c-0.594-0.501-1.093-0.943-1.448-1.265c-0.178-0.161-0.32-0.292-0.421-0.386c-0.104-0.097-0.154-0.144-0.184-0.172l-0.007-0.006
			l-1.104,1.189h1.62c0.006-0.429-0.191-0.894-0.516-1.189l-1.104,1.189h1.62h-1.604l1.171,1.101
			c0.275-0.291,0.436-0.693,0.434-1.101h-1.604l1.171,1.101l-0.006,0.006l-1.164-1.102v1.603c0.425,0.001,0.854-0.173,1.164-0.5
			l-1.164-1.102v1.603v-1.636l-1.154,1.158c0.318,0.319,0.758,0.482,1.154,0.478v-1.636l-1.154,1.158l0.052,0.049
			c0.039,0.036,0.796,0.747,1.935,1.624c1.146,0.876,2.646,1.924,4.337,2.638l0.006,0.002c1.442,0.595,2.892,0.877,4.109,1.036
			c1.218,0.155,2.204,0.176,2.684,0.176c0.179,0,0.286-0.003,0.309-0.004l-0.074-2.38l-1.471,1.874
			c0.06,0.046,1.714,1.343,4.177,2.771c1.233,0.714,2.669,1.462,4.227,2.099c1.559,0.637,3.238,1.167,4.985,1.418l-0.005-0.001
			c0.79,0.115,1.558,0.168,2.301,0.168c2.882,0.003,5.355-0.816,7.327-1.879c1.976-1.063,3.481-2.366,4.555-3.38l-0.004,0.004
			c0.344-0.325,0.577-0.473,0.649-0.509l0.023-0.011l-0.317-0.783v0.831c0.192,0,0.31-0.044,0.317-0.048l-0.317-0.783v0.831v-1.469
			l-0.625,1.324c0.198,0.097,0.441,0.147,0.625,0.145v-1.469l-0.625,1.324l0.646-1.367l-1.231,0.883
			c0.101,0.14,0.28,0.339,0.586,0.484l0.646-1.367l-1.231,0.883l1.355-0.972l-1.562,0.572c0.055,0.144,0.104,0.253,0.206,0.4
			l1.355-0.972l-1.562,0.572l2.236-0.819l-2.355-0.354l1.561,0.234l-1.55-0.298l-0.011,0.064l1.561,0.234l-1.55-0.298l0.456,0.088
			l-0.454-0.097l-0.002,0.009l0.456,0.088l-0.454-0.097l-0.023,0.085c-0.131,0.413-0.785,2.307-3.833,4.788l-0.002,0.001
			c-0.97,0.791-2.212,1.382-3.505,1.786c-1.291,0.405-2.618,0.624-3.704,0.732c-1.002,0.101-1.826,0.812-2.071,1.789
			c-0.246,0.977,0.144,1.993,0.979,2.556c4.375,2.947,8.926,6.674,13.368,11.089l-0.002-0.002L121.248,86.047z"/>
		<path fill="#FFFFFF" d="M90.363,54.398l-1.786-1.576c-0.467,0.524-0.683,1.202-0.678,1.799c0.003,0.665,0.23,1.267,0.626,1.757
			l0.015,0.019c0.86,1.037,1.658,2.373,2.251,3.795l2.197-0.919L90.721,60l0.99,3.09l2.268-0.727l-2.277,0.699
			c0.182,0.583,0.525,1.05,0.969,1.393c0.443,0.34,1.02,0.571,1.68,0.573l0.237-0.01l-0.207-2.373v2.382
			c0.649,0.005,1.318-0.248,1.795-0.667c0.482-0.417,0.786-0.976,0.9-1.552l0.024-0.142c0.067-0.489,0.086-0.957,0.087-1.403
			l-0.003-0.105c-0.059-1.304-0.368-2.631-0.898-3.93l-0.004-0.009c-0.454-1.094-1.049-2.072-1.751-2.906
			c-0.704-0.833-1.514-1.529-2.454-2.023l-1.104,2.11l1.905-1.429l-0.012-0.016l-1.905,1.429l-1.321,1.981l0.006,0.004
			c1.064,0.709,2.506,0.449,3.253-0.589c0.748-1.038,0.54-2.487-0.47-3.272l-0.141-0.109c-0.157-0.123-0.327-0.223-0.51-0.303
			c-0.363-0.158-0.738-0.231-1.111-0.232c-0.408,0-0.821,0.087-1.22,0.283c-0.397,0.193-0.782,0.508-1.062,0.926L90.363,54.398
			l-1.786-1.576L90.363,54.398l1.978,1.327l-1.695-1.137l0.9,1.833c0.292-0.142,0.584-0.379,0.795-0.696l-1.695-1.137l0.9,1.833
			l-0.879-1.79v1.995c0.289,0,0.584-0.062,0.879-0.205l-0.879-1.79v1.995v-1.983l-0.793,1.817c0.262,0.114,0.528,0.166,0.793,0.166
			v-1.983l-0.793,1.817l0.952-2.183l-1.462,1.88l0.141,0.109l1.462-1.88l1.321-1.981l-0.006-0.004
			c-0.963-0.642-2.256-0.496-3.052,0.345c-0.795,0.841-0.869,2.14-0.175,3.066l0.012,0.016c0.209,0.278,0.493,0.52,0.802,0.681
			c0.27,0.138,0.652,0.435,1.019,0.872c0.369,0.437,0.724,1.007,0.993,1.66l-0.004-0.009c0.343,0.834,0.52,1.655,0.549,2.336
			l2.379-0.105h-2.382c0.001,0.295-0.016,0.562-0.042,0.753l2.359,0.325l-2.335-0.467l1.956,0.392l-1.304-1.507
			c-0.357,0.309-0.573,0.715-0.652,1.115l1.956,0.392l-1.304-1.507l1.322,1.528v-2.022c-0.465-0.005-0.972,0.183-1.322,0.495
			l1.322,1.528v-2.022l-0.207,0.009l0.177,2.025v-2.033l-0.177,0.008l0.177,2.025v-2.033v2.002l1.221-1.59
			c-0.312-0.239-0.728-0.41-1.221-0.412v2.002l1.221-1.59l-1.204,1.568l1.889-0.58c-0.131-0.421-0.372-0.747-0.685-0.989
			l-1.204,1.568l1.889-0.58l-0.009-0.028l-0.99-3.09l-0.07-0.192c-0.767-1.828-1.773-3.539-2.976-4.994l0.015,0.019l-1.532,1.243
			h1.971c-0.003-0.486-0.166-0.904-0.438-1.243l-1.532,1.243h1.971h-2.047l1.533,1.353c0.355-0.398,0.519-0.918,0.514-1.353h-2.047
			l1.533,1.353l0.191-0.249L90.363,54.398z"/>
		<path fill="#FFFFFF" d="M171.108,69.086l1.26-2.021c-1.983-1.232-4.336-2.271-6.697-3.141c-2.361-0.866-4.72-1.551-6.688-2.009
			c-0.917-0.213-1.868,0.131-2.437,0.88c-0.568,0.75-0.644,1.758-0.191,2.583c2.859,5.22,4.937,10.92,6.029,16.978l2.344-0.423
			l2.24-0.809c-5.968-16.519-18.74-29.668-34.839-36.258l-0.114-0.043c-0.419-0.147-0.87-0.315-1.36-0.479l-0.758,2.258
			l-0.367,2.353l0.226,0.035c1.222,0.19,2.384-0.583,2.68-1.784s-0.375-2.425-1.545-2.824c-3.291-1.121-6.728-2.068-10.291-2.822
			l-0.002,0c-6.036-1.272-11.975-1.878-17.652-1.879c-9.07,0.002-17.479,1.542-24.573,4.425l-0.023,0.01
			c-0.632,0.262-1.251,0.684-1.692,1.3c-0.447,0.611-0.631,1.36-0.623,1.94c0.007,0.724,0.203,1.228,0.362,1.579
			c0.165,0.352,0.316,0.562,0.383,0.654l0.021,0.027c0.203,0.272,1.27,1.525,3.546,2.381l-0.015-0.005
			c0.976,0.367,2.26,1.193,3.217,1.923c0.483,0.364,0.895,0.703,1.179,0.946c0.143,0.122,0.253,0.219,0.326,0.284l0.079,0.072
			l0.018,0.015l0.001,0.001c0.613,0.567,1.487,0.772,2.289,0.537l-0.19-0.646l0.188,0.647l0.002,0l-0.19-0.646l0.188,0.647
			c0.024-0.008,1.379-0.399,3.197-0.697c1.177-0.194,2.027-1.225,1.994-2.418v-0.017c0.001-0.155,0.055-0.285,0.177-0.412
			c0.125-0.123,0.295-0.209,0.524-0.217h0.011l0.029,0c0.211,0,0.38,0.078,0.507,0.196c0.126,0.123,0.184,0.251,0.189,0.406
			l2.381-0.072h-2.382h0.878l-0.876-0.061l-0.002,0.061h0.878l-0.876-0.061l0,0c-0.002,0.021-0.014,0.105-0.027,0.257
			c-0.057,0.634,0.145,1.265,0.556,1.75c0.412,0.485,1.002,0.786,1.637,0.834l0.258,0.02l0.18-2.375l-0.51,2.326
			c1.818,0.396,4.304,1.248,6.272,1.996c0.987,0.375,1.854,0.723,2.471,0.976c0.309,0.126,0.555,0.229,0.722,0.3l0.19,0.081
			l0.061,0.026c0.745,0.322,1.604,0.242,2.277-0.212c0.674-0.455,1.069-1.221,1.049-2.033c-0.007-0.316-0.086-0.729-0.281-1.174
			c-0.294-0.672-0.821-1.409-1.739-2.24c-0.921-0.833-2.243-1.771-4.228-2.847l0.004,0.002c-1.231-0.669-2.229-1.098-2.767-1.36
			c-0.132-0.064-0.232-0.116-0.288-0.147l-0.043-0.025l-0.001,0l-0.776,1.141l1.087-0.832c-0.185-0.234-0.294-0.293-0.311-0.309
			l-0.776,1.141l1.087-0.832l-1.555,1.189l1.831-0.689c-0.082-0.216-0.187-0.383-0.276-0.5l-1.555,1.189l1.831-0.689l-1.933,0.728
			h2.064c0.001-0.25-0.05-0.513-0.132-0.728l-1.933,0.728h2.064h-2.003l1.866,0.733c0.072-0.183,0.138-0.442,0.137-0.733h-2.003
			l1.866,0.733l-1.445-0.567l1.185,1.017c0.041-0.051,0.148-0.172,0.261-0.45l-1.445-0.567l1.185,1.017l-0.515-0.442l0.491,0.468
			l0.023-0.026l-0.515-0.442l0.491,0.468l0.002-0.001l0.042-0.037l0.001,0l-1.072-1.257l0.652,1.522
			c0.088-0.039,0.228-0.104,0.42-0.266l-1.072-1.257l0.652,1.522l-0.356-0.832l0.233,0.876l0.123-0.044l-0.356-0.832l0.233,0.876
			l-0.071-0.266l0.06,0.269l0.012-0.003l-0.071-0.266l0.06,0.269l0.08-0.011c0.054-0.005,0.133-0.009,0.234-0.009
			c0.412-0.002,1.159,0.078,2.162,0.341c3.028,0.783,8.398,3.192,15.809,9.211c0.661,0.536,1.549,0.68,2.345,0.378
			c0.796-0.301,1.366-0.997,1.506-1.836c0.15-0.903,0.213-1.779,0.213-2.616c-0.002-2.487-0.548-4.625-1.02-6.157l0.003,0.007
			c-0.149-0.482-0.172-0.763-0.17-0.825v-0.012l-0.884-0.074l0.77,0.41c0.098-0.183,0.114-0.321,0.114-0.335l-0.884-0.074l0.77,0.41
			l-1.324-0.705l0.59,1.372c0.258-0.097,0.596-0.383,0.734-0.667l-1.324-0.705l0.59,1.372l-0.585-1.361v1.481
			c0.149-0.003,0.321-0.011,0.585-0.12l-0.585-1.361v1.481v-1.934l-0.2,1.922l0.2,0.011v-1.934l-0.2,1.922l0.246-2.369l-1.368,1.95
			l0.901-1.284L118,50.779l0.052,0.038l0.901-1.284L118,50.779l0.27-0.353l-0.276,0.347L118,50.779l0.27-0.353l-0.276,0.347
			l0.068,0.06c0.315,0.306,1.726,1.742,2.602,5.568l-0.003-0.01c0.138,0.618,0.201,1.269,0.201,1.938
			c0.001,1.085-0.169,2.214-0.424,3.276c-0.205,0.857,0.079,1.756,0.74,2.339c1.111,0.981,2.271,2.047,3.431,3.185
			c0.522,0.512,1.257,0.757,1.981,0.66c0.846-0.113,1.747-0.174,2.689-0.174c1.114,0,2.285,0.086,3.49,0.272l0,0
			c2.47,0.38,4.692,1.107,6.435,1.998c1.746,0.882,2.986,1.951,3.553,2.807c0.078,0.116,0.185,0.245,0.283,0.345l0.816-0.812
			l-1.077,0.333c0.105,0.33,0.261,0.477,0.261,0.478l0.816-0.812l-1.077,0.333c0.172,0.554,0.545,1.031,1.041,1.332l0.032,0.02
			c1.051,0.637,2.421,0.366,3.15-0.623s0.585-2.378-0.334-3.194l-0.009-0.008c-0.812-0.722-2.013-0.802-2.913-0.195
			c-0.9,0.607-1.276,1.75-0.912,2.773l1.12-0.399h-1.189c-0.001,0.13,0.025,0.279,0.069,0.399l1.12-0.399h-1.189h0.804l-0.744-0.339
			c-0.01,0.018-0.061,0.148-0.06,0.339h0.804l-0.744-0.339l0.029,0.014l-0.028-0.016l-0.001,0.002l0.029,0.014l-0.028-0.016
			c-0.008,0.021-0.136,0.219-0.438,0.503c-0.3,0.287-0.764,0.663-1.4,1.099l-0.032,0.022c-0.01,0.007-0.057,0.038-0.17,0.109
			l1.269,2.016l1.192-2.062l-7.5-4.34c-0.325-0.188-0.694-0.298-1.07-0.317l-0.076-0.004c-0.998-0.051-1.92,0.524-2.312,1.443
			c-0.393,0.919-0.171,1.982,0.557,2.668l5.804,5.473l1.634-1.733l-1.168-2.076c-0.737,0.416-1.403,0.765-1.973,1.011l0.946,2.186
			l1.191-2.062l-6.979-4.031c-1.046-0.604-2.381-0.329-3.102,0.64s-0.603,2.326,0.275,3.155l5.039,4.754l1.635-1.732l-0.653-2.291
			c-0.796,0.227-1.489,0.321-2.127,0.322c-0.662-0.001-1.271-0.101-1.899-0.301c-0.628-0.201-1.275-0.509-1.971-0.941
			c-0.308-0.191-0.653-0.309-1.014-0.346l-0.076-0.008c-1.052-0.108-2.051,0.492-2.449,1.472s-0.103,2.106,0.727,2.764
			c5.992,4.75,11.247,11.25,15.061,18.81c3.816,7.56,6.191,16.171,6.489,25.145c0.035,1.063,0.776,1.979,1.81,2.233
			c1.034,0.255,2.115-0.211,2.642-1.137c3.686-6.511,5.523-15.104,5.531-24.491c-0.001-7.729-1.265-16.002-3.909-24.078l0.004,0.015
			c-0.423-1.322-0.889-2.594-1.351-3.823l-2.229,0.838l2.38,0.087l0.006-0.16l-2.38-0.087l-1.598,1.766
			c2.284,2.049,4.366,5.652,5.798,10.323c1.44,4.665,2.258,10.364,2.256,16.535c0,3.519-0.264,7.192-0.819,10.92l-0.001,0.003
			c-1.987,13.506-7.254,22.959-13.052,27.948c-0.131,0.113-0.245,0.236-0.349,0.374c-0.174,0.231-0.325,0.453-0.449,0.634
			l1.968,1.342l-1.609-1.756l-10.447,9.578l1.609,1.756l1.821,1.535l10.805-12.82c0.782-0.929,0.743-2.291-0.092-3.173
			s-2.193-0.995-3.163-0.265l-13.705,10.328l1.434,1.902l1.659,1.708l11.789-11.453c0.825-0.802,0.96-2.077,0.32-3.033
			c-0.641-0.955-1.871-1.317-2.927-0.86l-10.954,4.746l0.947,2.186l1.293,2l10.075-6.512c0.941-0.608,1.332-1.795,0.934-2.844
			c-0.397-1.049-1.476-1.68-2.585-1.511l-9.609,1.461l0.358,2.354l0.827,2.233l9.908-3.672c1.046-0.388,1.682-1.446,1.533-2.551
			s-1.041-1.957-2.151-2.055l-10.395-0.914l-0.209,2.372l0.292,2.363l11.818-1.461c1.1-0.136,1.955-1.004,2.075-2.105
			c0.12-1.101-0.528-2.134-1.572-2.503l-9.082-3.215l-0.795,2.245l-0.191,2.374l10.913,0.879c1.062,0.085,2.052-0.546,2.424-1.544
			c0.371-0.997,0.033-2.123-0.825-2.752c-1.401-1.022-2.551-1.429-2.704-1.484l-0.78,2.25l0.88-2.213
			c-0.078-0.028-3.489-1.39-7.639-2.231l0.009,0.002c-0.991-0.203-1.905-0.43-2.777-0.618c-0.877-0.185-1.704-0.348-2.624-0.353
			c-0.602,0.001-1.271,0.076-1.963,0.371c-0.515,0.217-1.021,0.571-1.412,1.012c-0.596,0.667-0.917,1.449-1.102,2.229
			c-0.184,0.788-0.247,1.614-0.249,2.562c0.003,1.79,0.242,4.032,0.694,7.04l-0.001-0.002c0.142,0.939,0.207,1.911,0.207,2.903
			c0.007,4.305-1.257,8.986-2.583,12.944c-0.661,1.982-1.331,3.784-1.855,5.323c-0.263,0.771-0.489,1.478-0.662,2.138
			c-0.17,0.668-0.304,1.267-0.311,1.991c0.001,0.264,0.021,0.55,0.097,0.88c0.058,0.247,0.149,0.521,0.307,0.806
			c0.229,0.428,0.646,0.874,1.145,1.136c0.497,0.269,1.01,0.351,1.422,0.35c0.612-0.007,1.063-0.146,1.489-0.303l0.005-0.003
			c0.542-0.211,1.046-0.482,1.606-0.818c1.659-1.005,3.787-2.627,6.157-4.671l-1.557-1.803l1.447,1.891
			c8.488-6.504,17.959-16.67,24.472-29.325c6.172-12.011,8.425-24.056,9.054-34.282l-2.377-0.146l2.37,0.231
			c0.19-1.948,0.287-3.861,0.287-5.718c0-0.935-0.024-1.856-0.074-2.761l-2.378,0.13l1.694,1.674
			c0.378-0.385,0.743-0.706,0.977-0.867l0.139-0.09l0.047-0.026l0.002,0l-0.376-0.87l0.022,0.931
			c0.245-0.008,0.346-0.061,0.354-0.062l-0.376-0.87l0.022,0.931l0.017,0c0.566-0.017,1.079-0.153,1.521-0.337
			c0.775-0.328,1.361-0.786,1.873-1.267c0.76-0.727,1.353-1.537,1.839-2.309c0.483-0.78,0.842-1.489,1.085-2.134l0.011-0.029
			l-1.021-0.365l0.923,0.574c0.021-0.035,0.06-0.1,0.099-0.209l-1.021-0.365l0.923,0.574l-0.409-0.255l0.39,0.285l0.02-0.03
			l-0.409-0.255l0.39,0.285l0.001,0c0.028-0.042,0.269-0.272,0.615-0.518c0.522-0.379,1.271-0.83,2.021-1.268
			c0.756-0.445,1.497-0.865,2.153-1.327l0.007-0.005c0.408-0.287,0.787-0.713,1.022-1.201c0.238-0.486,0.329-1.002,0.328-1.448
			c-0.003-0.59-0.136-1.078-0.302-1.511c-0.298-0.755-0.717-1.385-1.217-2.022c-0.753-0.947-1.712-1.887-2.832-2.827
			c-1.12-0.937-2.399-1.864-3.777-2.721l0.002,0.001L171.108,69.086l-1.258,2.022c1.814,1.125,3.446,2.416,4.541,3.517
			c0.546,0.546,0.956,1.049,1.175,1.391c0.109,0.169,0.17,0.296,0.185,0.338l0.005,0.013l0.728-0.223h-0.753
			c0.001,0.15,0.024,0.218,0.025,0.223l0.728-0.223h-0.753h1.472l-1.316-0.643c-0.122,0.248-0.156,0.494-0.155,0.643h1.472
			l-1.316-0.643l1.391,0.679l-0.902-1.262c-0.167,0.115-0.37,0.334-0.488,0.583l1.391,0.679l-0.902-1.262l0.007-0.005
			c-0.255,0.182-0.726,0.47-1.266,0.786c-0.815,0.48-1.792,1.035-2.692,1.656c-0.452,0.314-0.888,0.644-1.303,1.043
			c-0.207,0.201-0.411,0.421-0.607,0.686c-0.194,0.266-0.387,0.579-0.534,0.986l2.243,0.801l-2.232-0.83
			c-0.057,0.155-0.221,0.516-0.438,0.897c-0.325,0.579-0.795,1.245-1.203,1.654c-0.201,0.206-0.384,0.344-0.473,0.394l-0.045,0.024
			l-0.005,0.002l0.094,0.229l-0.055-0.239l-0.039,0.011l0.094,0.229l-0.055-0.239l0.148,0.645l-0.021-0.66l-0.128,0.016l0.148,0.645
			l-0.021-0.66l0.017,0c-0.586,0.017-1.051,0.167-1.441,0.334c-0.584,0.259-1.034,0.578-1.461,0.917
			c-0.423,0.34-0.812,0.708-1.186,1.084c-0.472,0.478-0.721,1.133-0.684,1.804c0.045,0.814,0.066,1.648,0.066,2.5
			c0,1.692-0.088,3.452-0.264,5.255l-0.007,0.085c-0.602,9.766-2.743,21.127-8.536,32.397c-6.108,11.899-15.177,21.64-23.13,27.722
			l-0.109,0.088c-1.485,1.284-2.873,2.385-4.014,3.202c-0.569,0.409-1.077,0.746-1.49,0.995c-0.409,0.249-0.737,0.409-0.859,0.454
			l0.005-0.003l-0.041,0.016h-0.002l0.257,0.911v-0.938c-0.179,0.002-0.252,0.027-0.257,0.027l0.257,0.911v-0.938v1.749l0.725-1.584
			c-0.299-0.137-0.564-0.165-0.725-0.165v1.749l0.725-1.584l-0.803,1.754l1.417-1.309c-0.167-0.184-0.393-0.346-0.614-0.445
			l-0.803,1.754l1.417-1.309l-1.295,1.195l1.708-0.469c-0.045-0.166-0.157-0.449-0.413-0.727l-1.295,1.195l1.708-0.469l-0.933,0.256
			h0.975c-0.002-0.009,0.003-0.084-0.042-0.256l-0.933,0.256h0.975l0.003-0.051c0.013-0.149,0.093-0.55,0.242-1.063
			c0.261-0.909,0.716-2.191,1.248-3.688c0.799-2.253,1.771-5.011,2.549-8.016c0.776-3.008,1.366-6.269,1.368-9.578
			c0-1.201-0.079-2.408-0.259-3.61l-0.001-0.002c-0.438-2.892-0.643-4.979-0.64-6.329c-0.001-0.631,0.045-1.094,0.101-1.372
			c0.041-0.21,0.087-0.311,0.091-0.316l-0.184-0.093l0.168,0.117l0.016-0.024l-0.184-0.093l0.168,0.117L131.019,127l0.27,0.643
			c0.1-0.032,0.27-0.175,0.306-0.241L131.019,127l0.27,0.643l-0.175-0.418l0.122,0.437l0.053-0.019l-0.175-0.418l0.122,0.437
			l-0.032-0.113l0.022,0.116l0.01-0.003l-0.032-0.113l0.022,0.116c0.005-0.001,0.057-0.01,0.154-0.01
			c0.269-0.005,0.856,0.078,1.62,0.247c0.769,0.165,1.721,0.4,2.82,0.627l0.009,0.002c1.831,0.369,3.561,0.872,4.816,1.28
			c0.628,0.204,1.14,0.385,1.488,0.513c0.175,0.063,0.309,0.114,0.396,0.147l0.098,0.038l0.023,0.009l0.1,0.037l0.491-1.417
			l-0.51,1.41l0.019,0.007l0.491-1.417l-0.51,1.41l0.001,0.001c0.046,0.016,0.712,0.277,1.468,0.834l1.407-1.922l0.191-2.374
			l-10.913-0.879c-1.189-0.096-2.271,0.71-2.521,1.877s0.41,2.344,1.534,2.742l9.082,3.215l0.795-2.245l-0.292-2.363l-11.818,1.461
			c-1.213,0.149-2.11,1.184-2.089,2.405s0.955,2.224,2.172,2.33l10.395,0.914l0.209-2.372l-0.827-2.233l-9.908,3.672
			c-1.146,0.425-1.784,1.646-1.479,2.829s1.456,1.942,2.664,1.759l9.609-1.461l-0.358-2.354l-1.293-2l-10.075,6.512
			c-1.038,0.671-1.39,2.034-0.807,3.124s1.912,1.553,3.047,1.062l10.954-4.746l-0.947-2.186l-1.659-1.708l-11.789,11.453
			c-0.902,0.876-0.968,2.303-0.149,3.258s2.237,1.109,3.242,0.353l13.705-10.328l-1.434-1.902l-1.821-1.535l-10.805,12.82
			c-0.811,0.962-0.734,2.384,0.173,3.254s2.331,0.887,3.258,0.037l10.447-9.578c0.127-0.117,0.262-0.271,0.358-0.414
			c0.11-0.163,0.229-0.332,0.324-0.46l-1.905-1.429l1.557,1.803c6.923-5.996,12.52-16.488,14.651-30.857l-0.001,0.003
			c0.591-3.961,0.872-7.866,0.872-11.622c-0.002-6.589-0.861-12.722-2.468-17.938c-1.616-5.211-3.953-9.539-7.154-12.452
			c-0.688-0.621-1.671-0.788-2.524-0.427c-0.853,0.36-1.419,1.181-1.453,2.107l-0.006,0.16c-0.012,0.316,0.039,0.629,0.15,0.925
			c0.452,1.201,0.889,2.398,1.274,3.599l0.004,0.015c2.486,7.585,3.674,15.386,3.673,22.596c0.008,8.756-1.771,16.632-4.91,22.14
			l2.071,1.176l2.38-0.079c-0.323-9.713-2.886-18.987-6.996-27.133c-4.113-8.146-9.772-15.173-16.354-20.396l-1.479,1.866
			l-0.243,2.369l0.076,0.008l0.243-2.369l-1.257,2.023c0.959,0.596,1.963,1.088,3.029,1.431c1.065,0.342,2.192,0.529,3.354,0.528
			c1.12,0,2.268-0.171,3.434-0.504c0.825-0.235,1.457-0.892,1.66-1.726c0.204-0.834-0.055-1.708-0.679-2.297l-5.039-4.754
			l-1.635,1.732l-1.191,2.062l6.979,4.031c0.655,0.378,1.444,0.424,2.138,0.124c0.819-0.355,1.612-0.779,2.416-1.231
			c0.659-0.371,1.104-1.036,1.196-1.787s-0.181-1.503-0.73-2.022l-5.804-5.473l-1.634,1.733l-0.122,2.378l0.076,0.004l0.122-2.378
			l-1.192,2.062l7.5,4.34c0.763,0.441,1.716,0.423,2.461-0.046c0.098-0.062,0.227-0.14,0.393-0.258l-1.38-1.941l1.348,1.963
			c1.121-0.773,1.971-1.477,2.637-2.259c0.331-0.394,0.619-0.812,0.84-1.296c0.221-0.48,0.369-1.042,0.368-1.633
			c0.001-0.41-0.072-0.826-0.207-1.199l-2.243,0.799l-1.582,1.78l0.009,0.008l1.582-1.78l1.234-2.037l-0.032-0.02l-1.234,2.037
			l2.275-0.705c-0.217-0.689-0.602-1.158-0.911-1.47l-1.689,1.679l1.973-1.334c-1.229-1.8-3.083-3.225-5.334-4.382
			c-2.255-1.149-4.932-2.006-7.87-2.461l0,0c-1.446-0.224-2.86-0.329-4.219-0.329c-1.148,0-2.259,0.075-3.318,0.216l0.314,2.361
			l1.667-1.701c-1.23-1.206-2.45-2.328-3.612-3.354l-1.576,1.785l2.316,0.554c0.317-1.332,0.554-2.815,0.554-4.385
			c0-0.966-0.09-1.965-0.313-2.972l-0.003-0.01c-0.668-2.951-1.682-4.996-2.595-6.331c-0.912-1.336-1.717-1.955-1.925-2.1
			c-0.33-0.231-0.721-0.377-1.122-0.419c-0.07-0.007-0.168-0.015-0.292-0.015c-0.207,0-0.488,0.018-0.84,0.11
			c-0.263,0.07-0.566,0.185-0.879,0.377c-0.468,0.282-0.937,0.768-1.216,1.348c-0.285,0.58-0.396,1.205-0.395,1.818
			c0.002,0.702,0.133,1.411,0.376,2.215l0.003,0.007c0.405,1.309,0.809,2.971,0.807,4.752c0,0.6-0.045,1.212-0.148,1.834l2.35,0.391
			l1.501-1.849c-5.201-4.22-9.55-6.852-13.03-8.446c-1.74-0.797-3.265-1.334-4.579-1.677c-1.316-0.342-2.416-0.493-3.363-0.495
			c-0.477,0.001-0.914,0.037-1.36,0.136c-0.224,0.051-0.451,0.118-0.695,0.222c-0.244,0.106-0.509,0.246-0.796,0.488l0.001,0
			c-0.238,0.207-0.477,0.423-0.733,0.774c-0.127,0.177-0.26,0.393-0.37,0.673c-0.11,0.278-0.193,0.629-0.193,1.008
			c-0.007,0.577,0.211,1.149,0.461,1.511c0.219,0.326,0.443,0.533,0.637,0.692c0.342,0.273,0.616,0.418,0.889,0.563
			c0.406,0.209,0.813,0.39,1.285,0.612c0.471,0.221,0.999,0.478,1.597,0.802l0.004,0.002c2.318,1.252,3.345,2.178,3.702,2.594
			c0.091,0.103,0.141,0.174,0.163,0.209l0.015,0.024l0.062-0.036l-0.063,0.032l0.001,0.004l0.062-0.036l-0.063,0.032l1.341-0.669
			l-1.466,0.037c0.007,0.364,0.105,0.599,0.125,0.632l1.341-0.669l-1.466,0.037l2.381-0.059l0.945-2.186
			c-0.022-0.01-1.567-0.678-3.647-1.465c-2.086-0.788-4.677-1.695-6.939-2.194c-0.097-0.021-0.23-0.041-0.33-0.049l-0.258-0.02
			l-0.18,2.375l2.372,0.209c0,0,0.006-0.048,0.018-0.152c0.011-0.104,0.027-0.26,0.027-0.463l-0.001-0.072
			c-0.043-1.466-0.691-2.793-1.677-3.722c-0.983-0.933-2.328-1.5-3.781-1.5l-0.191,0.003h0.011
			c-1.458,0.042-2.795,0.648-3.755,1.613c-0.962,0.96-1.571,2.31-1.569,3.777l0.002,0.152l2.381-0.068l-0.387-2.35
			c-2.16,0.356-3.701,0.809-3.766,0.827l0.672,2.285l1.617-1.748c-0.04-0.037-0.814-0.753-1.968-1.624
			c-1.163-0.87-2.67-1.901-4.375-2.565l-0.015-0.005c-0.655-0.248-1.062-0.519-1.284-0.695c-0.111-0.087-0.177-0.151-0.201-0.177
			l-0.011-0.011l-0.3,0.273l0.312-0.259l-0.012-0.014l-0.3,0.273l0.312-0.259l-1.283,1.067l1.327-1.012l-0.044-0.055l-1.283,1.067
			l1.327-1.012l-1.894,1.444l1.914-1.417l-0.796,0.589l0.901-0.42c-0.026-0.054-0.04-0.078-0.105-0.169l-0.796,0.589l0.901-0.42
			l-0.929,0.433h1.014c-0.007-0.283-0.064-0.379-0.085-0.433l-0.929,0.433h1.014h-1.437l1.166,0.837
			c0.188-0.249,0.278-0.616,0.271-0.837h-1.437l1.166,0.837l-0.955-0.685l0.704,0.946c0.065-0.048,0.162-0.137,0.251-0.261
			l-0.955-0.685l0.704,0.946l-0.403-0.541l0.329,0.589l0.074-0.048l-0.403-0.541l0.329,0.589l-0.134-0.241l0.12,0.249l0.014-0.008
			l-0.134-0.241l0.12,0.249l0.003-0.001l-0.921-2.196l0.897,2.206c6.422-2.613,14.249-4.076,22.778-4.074
			c5.339,0,10.952,0.571,16.67,1.777l-0.002,0c3.38,0.715,6.634,1.612,9.742,2.67l0.768-2.254l0.367-2.353l-0.226-0.035
			c-1.222-0.19-2.389,0.588-2.681,1.789c-0.293,1.201,0.384,2.429,1.556,2.822c0.395,0.132,0.828,0.292,1.3,0.458l0.788-2.247
			l-0.902,2.204c14.862,6.082,26.664,18.237,32.163,33.468c0.42,1.163,1.665,1.812,2.858,1.491c1.193-0.32,1.945-1.506,1.726-2.723
			c-1.187-6.583-3.445-12.773-6.539-18.42l-2.089,1.144l-0.539,2.32c1.764,0.409,3.97,1.049,6.124,1.841
			c2.154,0.789,4.268,1.742,5.82,2.712l0.002,0.001L171.108,69.086z"/>
		<path fill="#FFFFFF" d="M89.936,57.98l-2.062-3.145l-1.072-1.379c-0.038-0.027-2.947-2.699-5.61-3.723
			c-1.749-0.672-2.47-1.578-2.479-1.586c0,0-0.375-0.527-0.226-1.043c0.088-0.32,0.354-0.574,0.8-0.754
			c9.448-3.859,21.401-5.129,33.653-3.617c18.987,0.859,35.997,8.906,45.48,21.516c3.621,0.863,9.097,2.641,12.662,4.863
			c3.938,2.445,6.943,5.461,6.981,6.988c0.018,0.316-0.103,0.555-0.343,0.715l-1.758,1.09c-1.617,0.953-3.445,2.031-3.794,2.953
			c-0.466,1.285-2.317,4.406-4.104,4.461c-0.715,0.016-2.074,1.258-2.467,1.641l0.029,1.527l-0.006,2.145l-0.252,4.48
			c-0.762,12.234-3.721,23.449-8.786,33.316c-5.552,10.789-14.218,21.191-23.789,28.516c-3.038,2.617-5.739,4.559-7.058,5.07
			c-0.486,0.18-0.806,0.188-0.984,0.008c-0.574-0.555,0.234-2.82,1.365-5.977c1.857-5.258,4.676-13.223,3.601-20.309
			c-0.917-6.184-0.87-8.973,0.185-9.957c0.87-0.801,2.449-0.441,4.641,0.07l1.746,0.375c3.85,0.785,7.195,2.094,7.225,2.113
			c0,0,0.961,0.332,2.068,1.16c0,0,0.381,0.273,0.683,0.031c0.226-0.176,0.179-0.859,0.132-1.578l-0.047-0.711l-0.006-0.297
			l-0.009,0.059l-0.015-0.105c-0.064,0-0.064,0-0.05,0.344l0.056,0.922c-0.398-7.789-14.367-27.141-26.552-39.27
			c-6.823-6.812-14.194-12.613-20.748-16.34l-0.255-0.082c-3.888-2.023-7.57-3.938-11.355-6.34
			c-3.363-2.133-6.562-5.172-6.691-5.297c-0.015-0.02-1.641-1.656-1.729-4.309c-0.015-0.809,0.155-1.363,0.53-1.648
			c0.442-0.348,1.005-0.164,1.005-0.164s1.893,2.754,3.451,3.996c3.023,2.414,6.501,3.156,6.533,3.156
			C90.571,61.836,91.239,60.391,89.936,57.98z"/>
		<path d="M94.547,52.469c-0.026-0.711-0.621-1.27-1.318-1.246c-0.721,0.02-1.277,0.609-1.254,1.324
			c0.023,0.703,0.609,1.262,1.324,1.242C94.011,53.773,94.564,53.176,94.547,52.469z"/>
		<path d="M80.549,54.676c0,0,1.898,2.75,3.463,4.008c3.041,2.441,6.521,3.152,6.521,3.152s0.674-1.414-0.627-3.828
			c-0.823-1.523-2.133-3.273-2.133-3.273L80.549,54.676z"/>
		<path d="M121.248,86.047c-4.544-4.516-9.205-8.336-13.717-11.375c2.408-0.242,5.909-0.957,8.473-3.039
			c4.274-3.465,4.699-6.297,4.699-6.297s-0.56-1.527-2.807,0.586c-2.256,2.133-6.275,5.324-12.205,4.465
			c-5.938-0.848-12.255-5.805-12.255-5.805s-3.384,0.105-6.114-1.027c-2.728-1.141-5.561-3.801-5.561-3.801
			c-0.302-0.301-0.797-0.285-1.093,0.027c-0.29,0.309-0.287,0.789,0.032,1.086c0.138,0.129,3.352,3.184,6.691,5.301
			c3.797,2.398,7.471,4.316,11.379,6.348l0.237,0.07c6.313,3.605,13.617,9.23,20.742,16.336
			c12.568,12.516,26.191,31.805,26.616,39.277C147.776,120.117,134.575,99.32,121.248,86.047z"/>
		<path d="M90.363,54.398c-0.117,0.133-0.105,0.336,0.012,0.48c1.031,1.246,1.934,2.77,2.613,4.395l0.99,3.09
			c0.053,0.172,0.223,0.297,0.401,0.281c0.185,0,0.325-0.129,0.36-0.305c0.047-0.34,0.064-0.707,0.064-1.078
			c-0.044-0.992-0.287-2.066-0.724-3.133c-0.724-1.746-1.898-3.098-3.108-3.73l-0.012-0.016l0.006,0.004l-0.141-0.109
			C90.665,54.207,90.463,54.25,90.363,54.398z"/>
		<path d="M171.108,69.086c-3.536-2.203-8.933-3.984-12.665-4.852c2.977,5.434,5.145,11.379,6.284,17.699
			c-5.733-15.875-18.021-28.527-33.501-34.863c-0.445-0.156-0.888-0.32-1.33-0.469l0.226,0.035
			c-3.199-1.09-6.545-2.012-10.017-2.746c-15.264-3.219-29.848-2.047-40.837,2.422c-1.491,0.625-0.577,1.859-0.577,1.859
			s0.703,0.922,2.493,1.598c2.681,1.031,5.581,3.715,5.581,3.715s1.462-0.43,3.48-0.762c-0.047-1.66,1.295-3.043,3.012-3.094
			c1.714-0.059,3.138,1.254,3.188,2.91c0,0.141-0.023,0.273-0.035,0.406l0.258,0.02c4.081,0.895,10.151,3.52,10.151,3.52
			s-0.038-1.539-5.001-4.227c-3.032-1.648-4.415-1.664-3.164-2.73c0.943-0.805,8.098-0.48,20.777,9.809
			c0.504-3.027-0.146-5.781-0.732-7.68c-0.902-2.957,0.721-2.789,0.721-2.789s2.35,1.648,3.565,7.008
			c0.475,2.133,0.231,4.352-0.231,6.285c1.137,1.004,2.326,2.098,3.521,3.27c2.08-0.277,4.412-0.273,6.858,0.105
			c5.408,0.836,9.8,3.168,11.596,5.824c0.155,0.156,0.27,0.316,0.325,0.496l0.032,0.02l-0.009-0.008
			c0.305,0.855-0.363,1.992-2.742,3.625c-0.088,0.062-0.176,0.117-0.281,0.184l-7.5-4.34l-0.076-0.004l5.804,5.473
			c-0.771,0.434-1.5,0.82-2.194,1.121l-6.979-4.031l5.039,4.754c-3.015,0.859-5.455,0.336-7.907-1.188l-0.076-0.008
			c12.574,9.973,21.829,27.055,22.45,45.742c6.223-10.957,7.11-29.312,1.43-46.652c-0.404-1.262-0.855-2.496-1.312-3.711l0.006-0.16
			c7.049,6.375,10.576,22.562,7.992,39.895c-2.06,13.938-7.491,23.91-13.852,29.402c-0.135,0.18-0.27,0.375-0.387,0.547
			l-10.447,9.578l10.805-12.82l-13.705,10.328l11.789-11.453l-10.954,4.746l10.075-6.512l-9.609,1.461l9.908-3.672l-10.395-0.914
			l11.818-1.461l-9.082-3.215l10.913,0.879c-1.131-0.828-2.077-1.156-2.077-1.156s-3.322-1.32-7.23-2.109
			c-6.299-1.297-8.514-3.148-6.598,9.555c1.907,12.707-8.675,28.105-3.952,26.297c1.327-0.512,4.002-2.426,7.063-5.07
			c8.221-6.293,17.49-16.246,23.801-28.523c5.982-11.641,8.18-23.344,8.795-33.34c0.275-2.82,0.346-5.551,0.205-8.117
			c0.876-0.887,1.775-1.613,2.449-1.629c1.805-0.055,3.674-3.195,4.157-4.496c0.463-1.297,4.028-2.945,5.537-4.016
			C179.262,75.781,175.77,71.984,171.108,69.086z"/>
	</g>
	<g>
		<path fill="#FFFFFF" d="M188.948,102.053v-29.82h16.899c5.946,0,8.719,3.845,8.719,7.601c0,3.711-2.281,6.214-5.098,6.84
			c3.175,0.492,5.678,3.532,5.678,7.288c0,4.336-2.905,8.092-8.762,8.092H188.948z M206.742,81.264c0-1.431-1.073-2.325-2.639-2.325
			h-7.466v4.649h7.466C205.669,83.588,206.742,82.738,206.742,81.264z M207.323,92.798c0-1.476-1.073-2.503-2.95-2.503h-7.735v5.052
			h7.735C206.205,95.347,207.323,94.407,207.323,92.798z"/>
		<path fill="#FFFFFF" d="M233.481,102.053V99.46c-1.341,1.52-3.8,3.129-7.466,3.129c-4.873,0-7.109-2.816-7.109-6.751V80.459h6.885
			v12.518c0,2.639,1.342,3.532,3.577,3.532c1.968,0,3.309-1.073,4.113-2.102V80.459h6.885v21.594H233.481z"/>
		<path fill="#FFFFFF" d="M244.438,74.558c0-2.191,1.743-3.935,3.935-3.935c2.19,0,3.979,1.743,3.979,3.935
			c0,2.19-1.788,3.979-3.979,3.979C246.182,78.536,244.438,76.748,244.438,74.558z M244.931,102.053V80.459h6.885v21.594H244.931z"
			/>
		<path fill="#FFFFFF" d="M256.335,102.053v-29.82h6.886v29.82H256.335z"/>
		<path fill="#FFFFFF" d="M282.488,102.053v-2.504c-1.787,2.057-3.979,3.04-6.393,3.04c-5.32,0-9.523-4.023-9.523-11.355
			c0-7.063,4.113-11.312,9.523-11.312c2.369,0,4.694,0.939,6.393,3.085V72.232h6.841v29.82H282.488z M282.488,94.542v-6.617
			c-0.894-1.162-2.682-1.922-4.157-1.922c-2.728,0-4.739,2.012-4.739,5.23s2.012,5.275,4.739,5.275
			C279.807,96.509,281.595,95.704,282.488,94.542z"/>
		<path fill="#FFFFFF" d="M292.637,91.233c0-6.259,4.694-11.312,11.445-11.312c6.394,0,11.043,4.694,11.043,12.026v1.565h-15.38
			c0.492,1.922,2.28,3.531,5.41,3.531c1.521,0,4.023-0.67,5.275-1.833l2.995,4.516c-2.146,1.923-5.723,2.861-9.031,2.861
			C297.733,102.589,292.637,98.253,292.637,91.233z M304.082,85.466c-2.996,0-4.158,1.788-4.426,3.354h8.896
			C308.374,87.299,307.256,85.466,304.082,85.466z"/>
		<path fill="#FFFFFF" d="M318.223,102.053V80.459h6.885v2.638c1.431-1.744,4.203-3.22,6.751-3.22v6.617
			c-0.402-0.134-0.983-0.179-1.698-0.179c-1.789,0-4.158,0.76-5.053,1.967v13.771H318.223z"/>
		<path fill="#FFFFFF" d="M332.838,99.236l2.861-4.918c1.609,1.431,5.052,2.906,7.6,2.906c2.057,0,2.906-0.582,2.906-1.521
			c0-2.683-12.562,0.09-12.562-8.673c0-3.801,3.309-7.109,9.254-7.109c3.666,0,6.707,1.163,9.031,2.861l-2.638,4.873
			c-1.296-1.251-3.755-2.369-6.349-2.369c-1.609,0-2.682,0.626-2.682,1.476c0,2.369,12.518-0.09,12.518,8.763
			c0,4.113-3.621,7.063-9.791,7.063C339.097,102.589,335.117,101.293,332.838,99.236z"/>
	</g>
	<g>
		<path fill="#FFFFFF" d="M8.719,102.053V78.938H0.358v-6.706h24.366v6.706h-8.316v23.114H8.719z"/>
		<path fill="#FFFFFF" d="M24.912,104.333c0.492,0.269,1.163,0.402,1.699,0.402c1.564,0,2.548-0.313,2.951-1.207l0.492-1.163
			l-8.629-21.906h7.243l4.918,13.681l4.874-13.681h7.287L36,105.138c-1.744,4.561-4.963,5.589-9.121,5.678
			c-0.626,0-2.235-0.134-2.951-0.357L24.912,104.333z"/>
		<path fill="#FFFFFF" d="M45.347,91.233c0-6.259,4.694-11.312,11.445-11.312c6.394,0,11.043,4.694,11.043,12.026v1.565h-15.38
			c0.492,1.922,2.28,3.531,5.41,3.531c1.52,0,4.023-0.67,5.275-1.833l2.996,4.516c-2.146,1.923-5.723,2.861-9.031,2.861
			C50.443,102.589,45.347,98.253,45.347,91.233z M56.792,85.466c-2.995,0-4.157,1.788-4.427,3.354h8.897
			C61.084,87.299,59.967,85.466,56.792,85.466z"/>
		<path fill="#FFFFFF" d="M69.605,91.233c0-6.259,4.693-11.312,11.445-11.312c6.393,0,11.043,4.694,11.043,12.026v1.565h-15.38
			c0.491,1.922,2.28,3.531,5.409,3.531c1.521,0,4.023-0.67,5.275-1.833l2.996,4.516c-2.146,1.923-5.723,2.861-9.031,2.861
			C74.701,102.589,69.605,98.253,69.605,91.233z M81.051,85.466c-2.996,0-4.158,1.788-4.427,3.354h8.897
			C85.342,87.299,84.225,85.466,81.051,85.466z"/>
	</g>
</g>
</svg>
