<?xml version="1.0" encoding="utf-8"?>
<!-- Generator: Adobe Illustrator 16.0.0, SVG Export Plug-In . SVG Version: 6.00 Build 0)  -->
<!DOCTYPE svg PUBLIC "-//W3C//DTD SVG 1.1//EN" "http://www.w3.org/Graphics/SVG/1.1/DTD/svg11.dtd">
<svg version="1.1" id="Layer_1" xmlns="http://www.w3.org/2000/svg" xmlns:xlink="http://www.w3.org/1999/xlink" x="0px" y="0px"
	 width="600px" height="200px" viewBox="0 0 600 200" enable-background="new 0 0 600 200" xml:space="preserve">
<g>
	<polygon fill="#FFD000" points="193.474,181.246 383.053,181.246 537.283,178.274 350.217,174.666 532.496,149.574 347.84,167.598 
		518.324,121.976 343.166,160.936 495.316,96.544 336.387,154.943 464.348,74.25 327.756,149.842 426.613,55.956 317.609,145.836 
		383.559,42.358 306.334,143.08 336.84,33.989 294.363,141.674 288.268,31.162 282.162,141.674 239.682,33.989 270.193,143.08 
		192.965,42.358 258.91,145.836 149.915,55.956 248.771,149.842 112.183,74.25 240.139,154.943 81.21,96.544 233.358,160.936 
		58.198,121.976 228.69,167.598 44.03,149.574 226.31,174.666 39.248,178.274 	"/>
</g>
<path fill="#231F20" d="M68.278,84.561H13.03v22.374h2.493l0.02-0.233c1.22-14.64,6.121-17.091,17.302-17.129
	c0,0.52,0,67.762,0,67.762c0,3.219-0.603,5.279-1.902,6.484c-1.254,1.162-3.272,1.622-6.172,1.402l-0.274-0.021v2.717h32.572v-2.709
	l-0.266,0.015c-3.094,0.163-5.097-0.293-6.3-1.437c-1.268-1.201-1.782-3.176-1.782-6.812c0,0,0-66.869,0-67.397
	c11.905,0.062,15.977,4.094,17.303,17.13l0.022,0.229h2.488V84.561H68.278z"/>
<path fill="#231F20" d="M140.641,84.561h-29.975v2.699l0.258-0.004c2.535-0.051,4.216,0.414,5.284,1.462
	c1.204,1.179,1.691,3.111,1.691,6.667c0,0,0,26.212,0,26.709c-0.49,0-21.378,0-21.866,0c0-0.497,0-27.319,0-27.319
	c0-2.941,0.552-4.854,1.747-6.019c1.088-1.064,2.8-1.556,5.228-1.5l0.261,0.004v-2.699H72.924v2.706l0.264-0.011
	c2.327-0.104,4.002,0.369,5.124,1.442c1.26,1.208,1.846,3.178,1.846,6.198v62.685c0,3.043-0.552,5.002-1.74,6.164
	c-1.088,1.062-2.75,1.53-5.234,1.477l-0.26-0.008v2.701h30.344v-2.697h-0.256c-5.218,0-6.979-2.047-6.979-8.125
	c0,0,0-28.764,0-29.264c0.488,0,21.376,0,21.866,0c0,0.5,0,28.897,0,28.897c0,3.664-0.581,5.854-1.885,7.104
	c-1.078,1.032-2.739,1.487-5.086,1.391l-0.262-0.012v2.705h30.229v-2.697h-0.254c-5.807,0-6.868-2.855-6.868-8.49v-61.83
	c0-2.989,0.584-5.015,1.79-6.19c1.08-1.052,2.688-1.512,5.074-1.45l0.259,0.006v-2.701L140.641,84.561L140.641,84.561z"/>
<path fill="#231F20" d="M195.639,84.561h-51.578v2.704l0.265-0.009c2.89-0.106,4.765,0.358,5.913,1.467
	c1.228,1.181,1.725,3.146,1.725,6.781v61.588c0,3.435-0.58,5.514-1.885,6.74c-1.183,1.112-3.006,1.553-5.745,1.389l-0.273-0.016
	v2.709h53.468l3.745-26.02h-2.483l-0.055,0.179c-4.933,15.775-10.906,20.837-24.582,20.837c-5.314,0-6.316-1.521-6.316-9.586
	c0,0,0-24.679,0-25.228c8.414,0.245,12.52,6.224,12.52,18.307v0.252h2.511v-42.657h-2.511v0.254c0,12.326-3.992,18.291-12.52,18.778
	c0-0.562,0-32.97,0-33.467c0.462,0,5.536,0,5.536,0c15.882,0,19.026,9.587,20.01,18.964l0.021,0.229h2.489V84.561H195.639z"/>
<path fill="#231F20" d="M400.555,63.848h-68.998v27.839h2.992l0.016-0.23c1.533-18.377,7.691-21.435,21.763-21.475
	c0,0.521,0,84.772,0,84.772c0,4.041-0.763,6.631-2.396,8.146c-1.584,1.467-4.123,2.048-7.765,1.773l-0.274-0.021v3.261h40.588
	v-3.254l-0.269,0.016c-3.887,0.205-6.403-0.374-7.926-1.814c-1.599-1.515-2.248-3.994-2.248-8.562c0,0,0-83.783,0-84.312
	c14.981,0.061,20.096,5.106,21.762,21.473l0.021,0.228h2.987v-27.84H400.555z"/>
<path fill="#231F20" d="M462.23,84.561h-15.177v2.685l0.248,0.011c3.705,0.116,5.435,1.231,5.435,3.51
	c0,1.644-0.527,3.833-1.879,7.815c0,0-8.537,25.006-10.007,29.311c-0.469-1.324-11.895-33.688-11.895-33.688
	c-0.004-0.008-0.113-0.28-0.113-0.28c-0.364-0.929-0.985-2.484-0.985-3.642c0-0.795,0.28-1.458,0.836-1.965
	c0.979-0.9,2.752-1.268,5.127-1.062l0.276,0.023V84.56h-28.565v2.654l0.215,0.035c4.209,0.707,4.369,0.938,8.482,12.351
	l13.584,37.658l-0.015,20.074c0,3.381-0.524,5.315-1.758,6.471c-1.336,1.254-3.629,1.677-7.662,1.417l-0.268-0.021v2.715h35.021
	v-2.711l-0.27,0.017c-3.873,0.22-6.066-0.2-7.338-1.397c-1.57-1.484-1.857-4.209-1.857-9.04v-21.016
	c-0.014,0.082,11.562-33.808,11.562-33.808c3.948-11.573,4.377-12.036,7.062-12.715l0.191-0.045v-2.64h-0.251V84.561z"/>
<path fill="#231F20" d="M518.59,84.561h-51.574v2.704l0.265-0.009c2.889-0.106,4.766,0.36,5.914,1.467
	c1.225,1.184,1.725,3.146,1.725,6.781v61.588c0,3.435-0.578,5.512-1.883,6.74c-1.185,1.112-3.008,1.553-5.748,1.389l-0.271-0.016
	v2.709h53.465l3.748-26.02h-2.486l-0.055,0.179c-4.931,15.775-10.902,20.837-24.582,20.837c-5.312,0-6.316-1.521-6.316-9.586
	c0,0,0-24.679,0-25.228c8.412,0.245,12.518,6.224,12.518,18.307v0.252h2.517v-42.657h-2.517v0.254
	c0,12.326-3.987,18.291-12.518,18.778c0-0.562,0-32.97,0-33.467c0.465,0,5.539,0,5.539,0c15.879,0,19.023,9.587,20.01,18.966
	l0.021,0.229h2.485V84.561H518.59z"/>
<path fill="#231F20" d="M578.932,84.561h-51.58v2.704l0.265-0.009c2.889-0.106,4.77,0.36,5.918,1.467
	c1.225,1.184,1.725,3.148,1.725,6.781v61.588c0,3.432-0.58,5.512-1.885,6.74c-1.182,1.112-3.01,1.553-5.75,1.389l-0.271-0.016v2.709
	h53.468l3.75-26.02h-2.486l-0.055,0.179c-4.935,15.775-10.906,20.837-24.584,20.837c-5.312,0-6.316-1.521-6.316-9.586
	c0,0,0-24.679,0-25.228c8.412,0.245,12.521,6.224,12.521,18.307v0.252h2.512v-42.657h-2.512v0.254
	c0,12.326-3.992,18.291-12.521,18.778c0-0.562,0-32.97,0-33.467c0.467,0,5.535,0,5.535,0c15.885,0,19.029,9.587,20.01,18.964
	l0.023,0.229h2.487V84.561H578.932z"/>
<rect x="13.923" y="178.746" fill="#231F20" width="242.499" height="2.607"/>
<path fill="none" stroke="#231F20" stroke-width="2.0836" d="M293.658,180.047"/>
<rect x="253.443" y="178.738" fill="#231F20" width="333.527" height="2.62"/>
<path fill="#231F20" d="M155.326,109.654"/>
<g>
	<path fill="#FFFFFF" d="M194.534,50.872l-2.949-4.497l-1.541-1.974c-0.046-0.046-4.213-3.861-8.018-5.328
		c-2.51-0.963-3.531-2.253-3.542-2.266c-0.006-0.009-0.545-0.755-0.338-1.496c0.127-0.46,0.51-0.824,1.139-1.083
		c13.542-5.51,30.646-7.345,48.162-5.172c27.188,1.236,51.516,12.751,65.086,30.792c5.188,1.235,13.014,3.781,18.111,6.959
		c5.635,3.509,9.936,7.811,10,10.007c0.016,0.44-0.146,0.786-0.482,1.023l-2.529,1.56c-2.314,1.355-4.934,2.895-5.422,4.215
		c-0.676,1.848-3.328,6.314-5.881,6.387c-1.021,0.029-2.969,1.81-3.539,2.354c-0.018,0.038,0.059,2.168,0.059,2.168l-0.014,3.076
		c-0.002,0.008-0.361,6.411-0.361,6.411c-1.086,17.52-5.322,33.56-12.582,47.68c-7.936,15.441-20.34,30.312-34.031,40.797
		c-4.343,3.754-8.212,6.529-10.094,7.252c-0.697,0.27-1.16,0.275-1.422,0.021c-0.807-0.782,0.354-4.047,1.953-8.561
		c2.67-7.533,6.707-18.917,5.184-29.045c-1.331-8.855-1.26-12.852,0.256-14.259c1.236-1.146,3.504-0.626,6.635,0.089l2.502,0.557
		c5.494,1.123,10.277,2.998,10.324,3.015c0.016,0.007,1.369,0.485,2.965,1.657c0.008,0.004,0.541,0.399,0.973,0.053
		c0.32-0.256,0.252-1.229,0.178-2.252l-0.059-1.023l-0.006-0.426c-0.012,0-0.006,0.073-0.012,0.088
		c-0.008-0.105-0.021-0.152-0.047-0.152c-0.059,0-0.059,0-0.047,0.496c0,0,0.07,1.217,0.078,1.316
		c-0.572-11.135-20.547-38.834-37.99-56.207c-9.761-9.728-20.307-18.028-29.693-23.381c-0.012-0.004-0.348-0.105-0.348-0.105
		c-5.571-2.897-10.843-5.645-16.263-9.076c-4.809-3.05-9.38-7.396-9.575-7.577c-0.021-0.023-2.358-2.37-2.469-6.161
		c-0.032-1.168,0.22-1.971,0.757-2.376c0.626-0.479,1.441-0.237,1.448-0.232c-0.003,0.017,2.708,3.952,4.93,5.728
		c4.32,3.454,9.301,4.51,9.352,4.523C195.442,56.394,196.398,54.318,194.534,50.872z"/>
	<circle fill="#231F20" cx="199.292" cy="43.042" r="1.838"/>
	<path fill="#231F20" d="M181.113,46.146c0,0,2.703,3.947,4.946,5.74c4.36,3.483,9.325,4.51,9.325,4.51s0.979-2.027-0.894-5.492
		c-1.172-2.17-3.046-4.676-3.046-4.676L181.113,46.146z"/>
	<path fill="#231F20" d="M239.343,91.041c-6.49-6.463-13.177-11.928-19.631-16.289c3.442-0.343,8.461-1.358,12.128-4.338
		c6.11-4.959,6.727-9.022,6.727-9.022s-0.8-2.183-4.022,0.852c-3.221,3.038-8.973,7.615-17.47,6.394
		c-8.494-1.224-17.529-8.317-17.529-8.317s-4.839,0.167-8.753-1.467c-3.905-1.632-7.953-5.44-7.953-5.44
		c-0.438-0.421-1.136-0.402-1.56,0.038c-0.417,0.44-0.401,1.139,0.04,1.559c0.193,0.185,4.806,4.556,9.583,7.583
		c5.423,3.435,10.696,6.18,16.275,9.084l0.338,0.104c9.044,5.153,19.484,13.206,29.683,23.367
		c17.995,17.924,37.477,45.521,38.09,56.209C277.301,139.801,258.412,110.039,239.343,91.041z"/>
	<path fill="#231F20" d="M195.142,45.739c-0.157,0.204-0.152,0.488,0.012,0.688c1.481,1.782,2.78,3.967,3.76,6.305l1.403,4.416
		c0.078,0.246,0.319,0.426,0.577,0.407c0.254-0.019,0.468-0.19,0.507-0.442c0.073-0.493,0.104-1.012,0.088-1.548
		c-0.041-1.415-0.395-2.956-1.023-4.471c-1.045-2.504-2.703-4.444-4.452-5.354c-0.002-0.005-0.005-0.01-0.011-0.016
		c0,0,0,0.006,0.006,0.011c-0.069-0.038-0.125-0.127-0.192-0.157C195.578,45.466,195.3,45.535,195.142,45.739z"/>
	<path fill="#231F20" d="M310.68,66.762c-5.061-3.151-12.781-5.691-18.1-6.943c4.24,7.786,7.352,16.294,8.992,25.338
		c-8.221-22.724-25.807-40.827-47.955-49.894c-0.639-0.228-1.271-0.463-1.9-0.669c0.103,0.016,0.214,0.04,0.32,0.053
		c-4.576-1.562-9.359-2.89-14.321-3.939c-21.845-4.609-42.716-2.928-58.445,3.475c-2.134,0.886-0.821,2.662-0.821,2.662
		s1.007,1.304,3.559,2.281c3.842,1.482,7.996,5.31,7.996,5.31s2.098-0.611,4.978-1.083l-0.002-0.005
		c-0.069-2.373,1.862-4.356,4.309-4.426c2.449-0.073,4.491,1.794,4.561,4.168c0.005,0.202-0.022,0.394-0.045,0.589l0.362,0.021
		c5.848,1.282,14.536,5.028,14.536,5.028s-0.063-2.206-7.165-6.044c-4.34-2.348-6.323-2.39-4.528-3.915
		c1.344-1.139,11.593-0.684,29.732,14.041c0.719-4.337-0.209-8.27-1.04-10.988c-1.292-4.234,1.019-3.983,1.019-3.983
		s3.37,2.355,5.106,10.027c0.689,3.046,0.338,6.23-0.322,8.988c1.625,1.437,3.312,3.004,5.049,4.676
		c2.959-0.388,6.293-0.38,9.797,0.161c7.752,1.192,14.02,4.53,16.586,8.326c0.217,0.22,0.383,0.455,0.484,0.709
		c0.006,0.013,0.014,0.023,0.023,0.039l-0.016-0.002c0.443,1.205-0.506,2.837-3.916,5.17c-0.135,0.093-0.258,0.171-0.393,0.26
		l-10.73-6.204l-0.113-0.01l8.291,7.821c-1.092,0.64-2.131,1.183-3.125,1.623l-9.996-5.778l7.213,6.804
		c-4.309,1.237-7.798,0.483-11.311-1.695l-0.102-0.021c17.979,14.275,31.219,38.729,32.113,65.457
		c8.898-15.671,10.17-41.945,2.059-66.753c-0.588-1.806-1.23-3.577-1.9-5.324l0.01-0.219c10.094,9.121,15.133,32.285,11.453,57.099
		c-2.957,19.936-10.723,34.219-19.846,42.068c-0.18,0.258-0.357,0.527-0.537,0.781l-14.945,13.699l15.459-18.328l-19.607,14.77
		l16.857-16.381l-15.666,6.784l14.424-9.321l-13.754,2.102l14.174-5.261l-14.869-1.306l16.896-2.094l-12.977-4.596l15.613,1.26
		c-1.625-1.187-2.979-1.662-2.979-1.662s-4.77-1.879-10.338-3.024c-9.014-1.849-12.189-4.499-9.456,13.685
		c2.737,18.182-12.405,40.218-5.642,37.623c1.901-0.727,5.725-3.473,10.109-7.258c11.756-9,25.012-23.24,34.049-40.818
		c8.557-16.642,11.697-33.396,12.588-47.698c0.387-4.041,0.486-7.942,0.293-11.625c1.244-1.266,2.541-2.304,3.51-2.33
		c2.574-0.075,5.252-4.567,5.934-6.427c0.681-1.86,5.761-4.212,7.923-5.744C322.361,76.354,317.357,70.921,310.68,66.762z"/>
	<path fill="#231F20" d="M350.607,69.088"/>
	<path fill="#231F20" d="M350.973,68.896"/>
</g>
</svg>
