<?xml version="1.0" encoding="utf-8"?>
<!-- Generator: Adobe Illustrator 24.3.0, SVG Export Plug-In . SVG Version: 6.00 Build 0)  -->
<svg version="1.1" xmlns="http://www.w3.org/2000/svg" xmlns:xlink="http://www.w3.org/1999/xlink" x="0px" y="0px"
	 viewBox="0 0 653.4 134.9" style="enable-background:new 0 0 653.4 134.9;" xml:space="preserve">
<g id="Layer_1">
	<g>
		<polygon points="158.1,0 158.1,57.2 128.8,57.2 128.8,0 97.9,0 97.9,132.4 128.8,132.4 128.8,69.5 158.1,69.5 158.1,132.4 
			188.9,132.4 188.9,0 		"/>
		<g>
			<path d="M3.8,0L0,15.1c0,0,13.9-3.8,29.5-3.8v121.1h30.9V11.3c16.5,0,29.9,3.8,29.9,3.8L86.5,0H3.8z"/>
			<path d="M230.9,68.2c10.5,0,26.5,3.8,26.5,3.8l2.5-14.8h-29V11.3c21.4,0,33.5,2.9,36.1,3.6L269.6,0h-69.5v132.4h69.5l1.5-15.1
				c0,0-15.1,3.5-37.4,3.8c-1.5,0-2.8-1.2-2.8-2.7V68.2z"/>
			<path d="M308.3,0l-3.8,15.1c0,0,13.9-3.8,29.5-3.8v121.1h30.9V11.3c16.5,0,29.9,3.8,29.9,3.8L391.1,0H308.3z"/>
			<path d="M457.3,74.8L432,0h-34.7c0,0,38.4,98.5,41.4,106.1c1.8,4.7,2.2,8.9-0.4,10.9c-2.6,2-6.8,0.5-11.1-2.4
				c-11-7.5-30.5-21.4-30.5-21.4l5.7,37.5c6.3,2.8,13.9,4.3,21.6,4.3c12.4,0,24.7-8.4,30.6-22.1C460.9,97.8,499.1,0,499.1,0h-21.4
				C473.2,26.9,468.2,45.7,457.3,74.8"/>
			<path d="M535.5,68.2C546,68.2,562,72,562,72l2.5-14.8h-29V11.3c21.4,0,33.5,2.9,36.1,3.6L574.1,0h-69.5v132.4h69.5l1.5-15.1
				c0,0-15.1,3.5-37.4,3.8c-1.5,0-2.8-1.2-2.8-2.7V68.2z"/>
			<path d="M613.3,68.2c10.5,0,26.5,3.8,26.5,3.8l2.5-14.8h-29V11.3c21.4,0,33.5,2.9,36.1,3.6L651.9,0h-69.5v132.4h69.5l1.5-15.1
				c0,0-15.1,3.5-37.4,3.8c-1.5,0-2.8-1.2-2.8-2.7V68.2z"/>
		</g>
	</g>
</g>
<g id="Layer_2">
</g>
</svg>
