<?xml version="1.0" encoding="utf-8"?>
<!-- Generator: Adobe Illustrator 15.1.0, SVG Export Plug-In . SVG Version: 6.00 Build 0)  -->
<!DOCTYPE svg PUBLIC "-//W3C//DTD SVG 1.1//EN" "http://www.w3.org/Graphics/SVG/1.1/DTD/svg11.dtd">
<svg version="1.1" xmlns="http://www.w3.org/2000/svg" xmlns:xlink="http://www.w3.org/1999/xlink" x="0px" y="0px"
	 width="201.292px" height="213.522px" viewBox="0 0 201.292 213.522" enable-background="new 0 0 201.292 213.522"
	 xml:space="preserve">
<g id="bounding_area">
	<rect x="0.798" fill="none" width="200.494" height="213.522"/>
</g>
<g id="Layer_1">
	<g>
		<polygon fill="#FFFFFF" points="100.65,84.347 106.968,0 102.666,84.472 119.511,1.584 104.653,84.846 131.751,4.727 
			106.577,85.475 143.502,9.381 108.407,86.335 154.579,15.468 110.112,87.422 164.805,22.899 111.67,88.708 174.019,31.551 
			113.058,90.181 182.074,41.288 114.246,91.82 188.844,51.96 115.218,93.589 194.226,63.399 115.966,95.473 198.129,75.419 
			116.466,97.431 200.499,87.833 116.72,99.439 201.292,100.448 116.72,101.458 200.499,113.062 116.466,103.467 198.129,125.481 
			115.966,105.424 194.226,137.499 115.218,107.307 188.844,148.938 114.246,109.079 182.074,159.606 113.058,110.714 
			174.019,169.347 111.67,112.188 164.805,177.997 110.112,113.473 154.579,185.427 108.407,114.561 143.502,191.515 
			106.577,115.42 131.751,196.169 104.653,116.048 119.511,199.313 102.666,116.425 106.968,200.896 100.65,116.549 94.329,200.896 
			98.631,116.425 81.79,199.313 96.642,116.048 69.549,196.169 94.716,115.42 57.798,191.515 92.89,114.561 46.718,185.427 
			91.184,113.473 36.492,177.997 89.624,112.188 27.278,169.347 88.241,110.714 19.226,159.606 87.053,109.079 12.453,148.938 
			86.079,107.307 7.067,137.499 85.333,105.424 3.166,125.481 84.829,103.467 0.798,113.062 84.58,101.458 0,100.448 84.58,99.439 
			0.798,87.833 84.829,97.431 3.166,75.419 85.333,95.473 7.067,63.399 86.079,93.589 12.453,51.96 87.053,91.82 19.226,41.288 
			88.241,90.181 27.278,31.551 89.624,88.708 36.492,22.899 91.184,87.422 46.718,15.468 92.89,86.335 57.798,9.381 94.716,85.475 
			69.549,4.727 96.642,84.846 81.79,1.584 98.631,84.472 94.329,0 		"/>
		<path fill="#B4B4B4" stroke="#B4B4B4" stroke-width="12.0997" stroke-linecap="round" stroke-linejoin="round" d="
			M145.487,174.618"/>
		<path fill="none" stroke="#000000" stroke-width="4.2018" d="M143.729,172.257"/>
		<g>
			<path fill="#FFFFFF" d="M149.563,77.886c-4.885-3.046-12.01-5.492-17.429-6.87C118.338,53.32,94.278,42.058,67.493,40.811
				c-4.709-0.577-9.447-0.869-14.086-0.869c-12.468,0-24.233,2.108-34.042,6.104c-1.975,0.819-2.634,2.238-2.847,2.999
				c-0.442,1.551,0.099,3.088,0.752,4.01l0.067,0.091c0.151,0.196,1.562,1.95,4.75,3.182c2.295,0.876,5.124,3.069,6.658,4.42
				l1.252,1.606l2.224,3.393c-1.071-0.54-2.221-1.232-3.312-2.104c-1.483-1.185-3.531-3.945-4.195-4.909l-0.579-0.839l-0.968-0.313
				c-0.197-0.064-0.729-0.212-1.412-0.212c-1.026,0-1.98,0.323-2.712,0.899c-1.322,0.996-1.973,2.589-1.935,4.785
				c0.14,4.125,2.272,6.889,3.091,7.802l0.234,0.247c0.047,0.045,4.735,4.532,9.759,7.718c5.4,3.428,10.546,6.103,15.995,8.936
				l0.511,0.209c8.821,5.058,18.722,12.877,27.916,22.051c16.327,16.258,32.209,38.739,35.412,49.57
				c-1.824-0.681-5.618-1.948-9.729-2.787l-2.385-0.517c-1.903-0.441-3.548-0.822-5.067-0.822c-1.667,0-3.04,0.485-4.099,1.458
				c-2.4,2.24-2.687,6.239-1.177,16.47c1.377,9.07-2.365,19.673-4.86,26.743c-2.227,6.215-3.345,9.334-1.155,11.464
				c0.68,0.658,1.602,1.021,2.594,1.021c0.593,0,1.217-0.126,1.938-0.395c3.063-1.179,8.395-5.6,10.616-7.51
				c13.585-10.418,25.905-25.193,33.808-40.553c7.231-14.083,11.444-30.045,12.523-47.458l0.35-6.223l0.017-3.139l-0.002-0.108
				c0-0.002-0.01-0.317-0.021-0.694c0.349-0.284,0.667-0.513,0.874-0.632c4.629-0.463,7.51-6.846,7.973-7.95
				c0.547-0.674,2.814-2.005,4.107-2.766l2.445-1.52l0.102-0.065c1.215-0.825,1.866-2.148,1.789-3.551
				C160.532,84.959,151.39,79.022,149.563,77.886z"/>
			<path d="M41.702,57.319c-0.035-0.985-0.859-1.765-1.828-1.729c-0.998,0.026-1.77,0.84-1.74,1.834
				c0.031,0.979,0.842,1.759,1.834,1.729C40.961,59.129,41.729,58.303,41.702,57.319z"/>
			<path d="M22.27,60.381c0,0,2.633,3.82,4.805,5.566c4.225,3.391,9.057,4.377,9.057,4.377s0.938-1.963-0.873-5.314
				c-1.143-2.114-2.959-4.543-2.959-4.543L22.27,60.381z"/>
			<path d="M78.776,103.939c-6.307-6.266-12.781-11.575-19.047-15.788c3.348-0.344,8.207-1.331,11.77-4.223
				c5.932-4.812,6.525-8.746,6.525-8.746s-0.779-2.119-3.896,0.819c-3.133,2.955-8.715,7.39-16.951,6.198
				c-8.244-1.179-17.012-8.065-17.012-8.065s-4.701,0.151-8.49-1.421c-3.789-1.584-7.725-5.279-7.725-5.279
				c-0.416-0.42-1.104-0.396-1.514,0.033c-0.402,0.433-0.398,1.102,0.047,1.516c0.184,0.176,4.652,4.42,9.289,7.359
				c5.266,3.327,10.371,5.991,15.801,8.812l0.328,0.104c8.766,5,18.906,12.812,28.797,22.676
				c17.453,17.384,36.371,44.162,36.961,54.535C115.614,151.249,97.284,122.373,78.776,103.939z"/>
			<path d="M35.893,59.998c-0.158,0.186-0.145,0.47,0.016,0.667c1.434,1.731,2.688,3.842,3.633,6.105l1.375,4.289
				c0.072,0.238,0.305,0.411,0.555,0.389c0.258-0.004,0.451-0.176,0.5-0.42c0.064-0.479,0.094-0.986,0.088-1.5
				c-0.059-1.377-0.396-2.872-1.002-4.35c-1.006-2.424-2.637-4.306-4.314-5.181l-0.018-0.019l0.008,0.002
				c-0.066-0.032-0.125-0.124-0.195-0.152C36.315,59.731,36.038,59.793,35.893,59.998z"/>
			<path d="M148.012,80.391c-4.912-3.062-12.404-5.531-17.584-6.735c4.129,7.544,7.141,15.801,8.723,24.577
				c-7.961-22.047-25.023-39.613-46.52-48.409c-0.617-0.22-1.229-0.448-1.848-0.65c0.107,0.025,0.203,0.047,0.316,0.047
				c-4.441-1.511-9.086-2.789-13.91-3.813c-21.191-4.468-41.441-2.838-56.701,3.363c-2.072,0.87-0.797,2.584-0.797,2.584
				s0.979,1.275,3.459,2.217c3.719,1.432,7.748,5.161,7.748,5.161s2.029-0.603,4.836-1.062l0,0
				c-0.062-2.306,1.799-4.227,4.178-4.295c2.383-0.078,4.359,1.738,4.43,4.039c0,0.197-0.031,0.383-0.049,0.568l0.355,0.025
				c5.666,1.24,14.096,4.888,14.096,4.888s-0.055-2.144-6.943-5.872c-4.211-2.286-6.131-2.314-4.396-3.788
				c1.316-1.119,11.246-0.669,28.852,13.615c0.701-4.201-0.203-8.027-1.012-10.658c-1.254-4.109,0.996-3.867,0.996-3.867
				s3.266,2.282,4.949,9.726c0.66,2.961,0.324,6.041-0.316,8.725c1.572,1.394,3.227,2.911,4.887,4.543
				c2.887-0.386,6.125-0.38,9.523,0.144c7.508,1.159,13.605,4.394,16.098,8.079c0.219,0.223,0.375,0.449,0.457,0.698
				c0.02,0.005,0.027,0.015,0.041,0.026l-0.014-0.012c0.426,1.186-0.5,2.765-3.807,5.029c-0.121,0.09-0.248,0.166-0.389,0.258
				l-10.416-6.029l-0.107-0.006l8.062,7.605c-1.072,0.599-2.084,1.135-3.049,1.556l-9.689-5.599l6.996,6.602
				c-4.184,1.193-7.574,0.466-10.979-1.652l-0.107-0.017c17.461,13.855,30.312,37.572,31.172,63.517
				c8.645-15.207,9.875-40.7,1.99-64.77c-0.564-1.758-1.193-3.467-1.83-5.161l0.012-0.22c9.789,8.859,14.684,31.33,11.1,55.397
				c-2.861,19.352-10.404,33.201-19.236,40.828c-0.188,0.246-0.371,0.514-0.535,0.756l-14.504,13.299l15.006-17.801l-19.035,14.34
				l16.369-15.9l-15.211,6.588l13.992-9.039l-13.344,2.025l13.76-5.1l-14.436-1.268l16.406-2.031l-12.604-4.455l15.15,1.217
				c-1.57-1.15-2.887-1.607-2.887-1.607s-4.613-1.826-10.033-2.932c-8.752-1.795-11.826-4.365-9.166,13.277
				c2.648,17.639-12.043,39.02-5.484,36.506c1.842-0.711,5.555-3.369,9.805-7.041c11.412-8.734,24.285-22.557,33.049-39.602
				c8.305-16.16,11.357-32.416,12.213-46.292c0.383-3.918,0.48-7.71,0.283-11.279c1.217-1.226,2.463-2.234,3.4-2.253
				c2.506-0.078,5.102-4.438,5.771-6.247c0.643-1.798,5.596-4.087,7.689-5.572C159.331,89.691,154.483,84.415,148.012,80.391z"/>
		</g>
	</g>
</g>
</svg>
