<svg xmlns="http://www.w3.org/2000/svg" viewBox="0 0 301.06396 63.01243">
    <circle cx="191.53832" cy="31.50621" r="31.50621" style="fill: #ffd000; opacity: .6;"/>
    <path d="M28.15625,26.53693l-7.91895,21.50195h-3.9043L3.18945,13.5589c-.49463-1.26514-1.64941-1.81494-3.18945-2.03467v-2.31006h18.0376v2.31006c-2.19971.16455-2.96973.87988-2.96973,2.14453,0,.82471.38525,1.86963.77002,2.96973l6.43408,17.4873,4.39941-11.98828-2.91455-8.57861c-.43994-1.31982-1.26465-1.81494-2.80469-2.03467v-2.31006h17.98291v2.31006c-2.91504.05469-3.84961.76953-3.84961,2.36426,0,.87988.33008,1.97998.71484,3.35449l5.33447,16.60791,5.71924-16.77246c.38477-1.15479.71484-2.19971.71484-3.0249,0-1.53955-.99023-2.41943-3.79443-2.5293v-2.31006h11.1084v2.31006c-1.54004.21973-2.74951.71484-3.18945,2.03467l-12.2085,34.47998h-3.95947l-7.36914-21.50195Z"/>
    <path d="M79.19678,29.6717v1.37451h-17.54297c-.10986,6.54443,3.51953,10.61377,8.52393,10.61377,3.51953,0,6.10449-1.26465,8.19385-4.01465l1.04492.66016c-1.48438,6.04932-5.71924,10.06348-12.64795,10.06348-8.13916,0-14.29834-5.44434-14.29834-14.68311,0-9.78857,6.76416-16.05762,14.68311-16.05762,7.97412,0,12.04346,5.05908,12.04346,12.04346ZM61.70898,28.51691h8.79883c0-5.33447-1.04492-8.5791-4.01416-8.5791-3.0249,0-4.50977,3.46436-4.78467,8.5791Z"/>
    <path d="M108.12598,29.6717v1.37451h-17.54248c-.11035,6.54443,3.51953,10.61377,8.52344,10.61377,3.51953,0,6.10449-1.26465,8.19434-4.01465l1.04443.66016c-1.48486,6.04932-5.71924,10.06348-12.64795,10.06348-8.13916,0-14.29834-5.44434-14.29834-14.68311,0-9.78857,6.76416-16.05762,14.68311-16.05762,7.97412,0,12.04346,5.05908,12.04346,12.04346ZM90.63818,28.51691h8.79883c0-5.33447-1.04492-8.5791-4.01465-8.5791-3.02441,0-4.50928,3.46436-4.78418,8.5791Z"/>
    <path d="M113.24316,10.47931l-3.02441-1.54004v-1.6499l11.49365-2.5293h1.70459v38.76953c0,1.75977.87988,1.97998,3.07959,2.14502v2.14453h-16.33301v-2.14453c2.19971-.16504,3.07959-.38525,3.07959-2.14502V10.47931ZM132.21582,24.61213c1.42969-1.26465,1.81494-1.9248,1.81494-2.63965,0-1.04492-.77002-1.37451-3.35498-1.64941v-2.14502h12.4834v2.14502c-1.86963.2749-3.13428.60449-4.56445,2.03467l-6.32373,5.93896,11.98828,18.0376v1.48486h-10.55859l-9.89893-15.56299,8.41406-7.64404Z"/>
    <path d="M155.20654,34.29084v1.04492c0,4.94922,2.14551,7.42383,5.77441,7.42383,2.85938,0,5.22461-1.48438,7.86426-4.4541l1.26465,1.15479c-3.68457,5.66406-8.30371,8.90869-14.4082,8.90869-6.104,0-10.39355-4.34424-10.39355-11.05322,0-9.95361,7.97363-19.6875,18.69727-19.6875,5.66504,0,8.24902,2.85938,8.24902,6.32422,0,6.21387-7.25879,8.79883-17.04785,10.33838ZM155.42725,32.47638c6.48926-1.54004,9.62305-5.16943,9.62305-10.00879,0-1.59473-.60449-2.63965-1.9248-2.63965-3.46387,0-6.81836,6.76416-7.69824,12.64844Z"/>
    <path d="M186.00635,31.10138c4.34473-8.63379,9.89844-13.47314,15.06738-13.47314,2.91504,0,4.45508,1.81494,4.45508,4.61914,0,.71533-.11035,1.70508-.44043,3.0249l-4.01465,14.62793c-.27441.98975-.43945,1.81494-.43945,2.25488,0,.5498.27539.82471.76953.82471.99023,0,2.36523-1.31982,4.45508-3.9043l1.31934,1.15479c-3.84961,5.33398-6.76367,8.13867-11.1084,8.13867-3.62988,0-5.66406-2.25439-5.66406-5.05908,0-1.48486.27539-2.69482.82422-4.50928l3.41016-11.54883c.16504-.60498.33008-1.31982.33008-1.75977,0-.65967-.2207-1.04492-.93555-1.04492-2.30957,0-7.80859,7.25928-10.06348,15.89307l-1.92383,7.479h-10.00879l6.04883-24.19678-2.91504-2.14453.33008-1.48486,12.53906-2.36475h1.7041l-3.73926,13.47314Z"/>
    <path d="M234.51416,10.36896l-2.80469-1.53955.33008-1.6499,12.09863-2.41943h1.64941l-8.46875,35.14014c-.27441.98975-.49512,1.81494-.49512,2.25488,0,.5498.27539.82471.77051.82471,1.04492,0,2.41895-1.31982,4.4541-3.9043l1.32031,1.15479c-3.84961,5.33398-6.70996,8.13867-11.05371,8.13867-3.51953,0-5.66504-2.03467-5.66504-5.22412,0-1.375.66016-4.34424,1.54004-7.09424-3.68457,7.25928-7.91895,12.31836-12.97754,12.31836-4.17969,0-6.70996-3.29932-6.70996-8.79883,0-10.28369,8.19434-21.94189,18.97266-21.94189,1.9248,0,3.62988.38477,5.05957,1.26465l1.97949-8.52393ZM231.6001,22.41242c-.27539-1.31982-1.26562-2.36475-2.69531-2.36475-5.38867,0-10.2832,10.55859-10.2832,17.81787,0,2.03467.43945,3.68457,1.97949,3.68457,2.91504,0,7.97363-7.86426,10.99902-19.1377Z"/>
    <path d="M255.08545,34.29084v1.04492c0,4.94922,2.14453,7.42383,5.77441,7.42383,2.85938,0,5.22461-1.48438,7.86426-4.4541l1.26465,1.15479c-3.68457,5.66406-8.30371,8.90869-14.4082,8.90869s-10.39355-4.34424-10.39355-11.05322c0-9.95361,7.97363-19.6875,18.69727-19.6875,5.66406,0,8.24902,2.85938,8.24902,6.32422,0,6.21387-7.25879,8.79883-17.04785,10.33838ZM255.30518,32.47638c6.48926-1.54004,9.62402-5.16943,9.62402-10.00879,0-1.59473-.60449-2.63965-1.9248-2.63965-3.46387,0-6.81934,6.76416-7.69922,12.64844Z"/>
    <path d="M287.31494,25.82209l-2.58398,8.08398c5.93848-12.15332,8.46875-16.27783,12.31836-16.27783,2.5293,0,4.01465,1.75977,4.01465,4.28955,0,3.35449-2.41992,6.104-5.16992,7.25879h-.43945c0-1.42969-.49512-2.63965-2.14453-2.63965-4.34473,0-8.74414,8.90869-11.38379,21.28223h-10.00879l6.04883-24.19678-2.91406-2.14453.33008-1.48486,12.53809-2.36475h1.70508l-2.31055,8.19385Z"/>
</svg>